<svg width="1200" height="800" viewBox="0 0 1200 800" fill="none" xmlns="http://www.w3.org/2000/svg">
<g clip-path="url(#clip0_2016_4)">
<rect width="1200" height="800" fill="#007FFF"/>
<path d="M1266 800V343.426C1230.49 358.773 1189.69 384.521 1147.94 427.36C1100.2 476.346 1069.66 539.829 1041.23 598.925C997.897 688.994 959.467 768.871 872.539 771.705C806.066 773.872 771.954 746.343 710.588 696.818C639.051 639.085 530.475 551.46 290.417 446.146C35.509 334.306 24.9643 143.213 62.7276 0H-67V424.32C-23.303 451.36 21.7651 495.667 50.9972 568.226C93.0666 672.665 150.505 748.361 200.92 800H293.816C184.658 716.719 147.067 567.619 174.621 558.839C196.312 551.935 244.088 587.485 315.078 640.309C356.769 671.33 406.465 708.309 463.587 746.146C488.688 762.773 508.31 781.293 523.638 800L1266 800Z" fill="#FF00FF"/>
<path d="M500.099 421.107C746.848 419.837 745.782 684.053 858.45 677.801C971.117 671.548 1019.62 597.973 1091.6 435.187C1137.33 331.799 1215.24 271.972 1266 242.093V104.173C1214.29 141.905 1151.37 201.034 1104.13 287.639C1008.15 463.571 941.375 524.927 755.692 351.71C570.009 178.494 362.043 398.095 234.085 268.231C150.152 183.05 280.461 68.6425 380.065 0H210.051C37.1009 141.013 216.581 422.547 500.099 421.107Z" fill="#FF00FF"/>
</g>
<defs>
<clipPath id="clip0_2016_4">
<rect width="1200" height="800" fill="white"/>
</clipPath>
</defs>
</svg>
