<svg width="1200" height="800" viewBox="0 0 1200 800" fill="none" xmlns="http://www.w3.org/2000/svg">
<g clip-path="url(#clip0_2016_38)">
<rect width="1200" height="800" fill="#FF00FF"/>
<path d="M1049.95 638.967C1095.46 609.624 1146.65 628.37 1209.4 698.824C1265.71 777.663 1334.1 915.551 1297.99 947.711C1261.88 979.871 1095.64 852.346 1045.4 772.112C996.817 679.087 1028.22 655.822 1049.95 638.967Z" fill="#007FFF"/>
<path d="M742.192 749.591C762.583 716.248 800.675 712.127 861.285 737.693C918.804 761.955 1007.44 807.656 993.862 839.836C980.289 872.016 833.826 872.742 778.316 836.906C720.109 792.297 733.296 767.343 742.192 749.591Z" fill="#007FFF"/>
<path d="M551.5 94.5C523 128 470.947 122.494 388.778 76.1331C309 21.5001 195.824 -80.0132 215 -114C234.176 -147.987 429 -74.4999 504 -17.5C582.5 50.5 564 76.1331 551.5 94.5Z" fill="#007FFF"/>
<path d="M223.924 115.261C189.533 157.095 135.07 154.861 53.8161 106.915C-23.8701 49.0206 -131.072 -61.4216 -106.498 -103.067C-81.925 -144.711 115.294 -73.9964 187.621 -12.9197C262.279 60.8416 239.468 92.5807 223.924 115.261Z" fill="#007FFF"/>
</g>
<defs>
<clipPath id="clip0_2016_38">
<rect width="1200" height="800" fill="white"/>
</clipPath>
</defs>
</svg>
