<svg width="1199" height="800" viewBox="0 0 1199 800" fill="none" xmlns="http://www.w3.org/2000/svg">
<g clip-path="url(#clip0_2015_1810)">
<rect width="1200" height="800" transform="translate(-1)" fill="#FFDE28"/>
<rect x="-1" width="1200" height="800" fill="#FF00FF"/>
<path d="M1048.95 638.967C1094.46 609.624 1145.65 628.37 1208.4 698.824C1264.71 777.663 1333.1 915.551 1296.99 947.711C1260.88 979.871 1094.64 852.346 1044.4 772.112C995.817 679.087 1027.22 655.822 1048.95 638.967Z" fill="#007FFF"/>
<path d="M741.192 749.591C761.583 716.248 799.675 712.127 860.285 737.693C917.804 761.955 1006.44 807.656 992.862 839.836C979.289 872.016 832.826 872.742 777.316 836.906C719.109 792.297 732.296 767.343 741.192 749.591Z" fill="#007FFF"/>
<path d="M550.5 94.5C522 128 469.947 122.494 387.778 76.1331C308 21.5001 194.824 -80.0132 214 -114C233.176 -147.987 428 -74.4999 503 -17.5C581.5 50.5001 563 76.1331 550.5 94.5Z" fill="#007FFF"/>
<path d="M222.924 115.261C188.532 157.095 134.07 154.861 52.8161 106.915C-24.8701 49.0206 -132.072 -61.4216 -107.498 -103.067C-82.925 -144.711 114.294 -73.9964 186.621 -12.9197C261.279 60.8416 238.468 92.5807 222.924 115.261Z" fill="#007FFF"/>
</g>
<defs>
<clipPath id="clip0_2015_1810">
<rect width="1200" height="800" fill="white" transform="translate(-1)"/>
</clipPath>
</defs>
</svg>
