<svg width="1200" height="800" viewBox="0 0 1200 800" fill="none" xmlns="http://www.w3.org/2000/svg">
<g clip-path="url(#clip0_2016_146)">
<rect width="1200" height="800" fill="#007FFF"/>
<path d="M765.901 378.893C519.152 380.163 520.218 115.947 407.55 122.199C294.882 128.452 246.379 202.027 174.397 364.813C128.674 468.201 50.7606 528.028 0 557.907V695.827C51.7128 658.095 114.625 598.966 161.872 512.361C257.848 336.429 324.625 275.073 510.308 448.29C695.991 621.506 903.957 401.905 1031.91 531.769C1115.85 616.95 987.104 731.857 887.5 800.5L1055.95 800C1228.9 658.987 1049.42 377.453 765.901 378.893Z" fill="#FF00FF"/>
<path d="M267.761 534C315.078 456.625 402.503 530.398 543.153 589.725C676.63 646.027 894.652 614.049 863.153 688.725C831.654 763.401 480.402 819.781 351.588 736.62C216.516 633.102 247.116 575.195 267.761 534Z" fill="#FF00FF"/>
<path d="M0 13.4996V456.574C35.5111 441.227 76.3137 415.479 118.063 372.64C165.799 323.654 196.341 260.171 224.772 201.075C268.103 111.006 306.533 31.1286 393.461 28.2947C459.934 26.1276 494.046 53.6571 555.412 103.182C626.949 160.915 735.525 248.54 975.583 353.854C1230.49 465.694 1241.04 656.787 1203.27 800H1333V375.68C1289.3 348.64 1244.23 304.333 1215 231.774C1172.93 127.335 1115.49 51.6393 1065.08 0H972.184C1081.34 83.2813 1118.93 232.381 1091.38 241.161C1069.69 248.065 1021.91 212.515 950.922 159.691L950.921 159.691C909.23 128.669 859.534 91.6904 802.413 53.8539C777.312 37.2267 757.69 18.7073 742.362 0L44.6884 5.7361e-05C52.2339 22.3491 59.6795 53.1508 48.2732 57.2851C38.4006 60.8635 12.5813 36.2299 0 13.4996Z" fill="#FF00FF"/>
</g>
<defs>
<clipPath id="clip0_2016_146">
<rect width="1200" height="800" fill="white"/>
</clipPath>
</defs>
</svg>
