<svg width="375" height="800" viewBox="0 0 375 800" fill="none" xmlns="http://www.w3.org/2000/svg">
<g clip-path="url(#clip0_2017_532)">
<rect width="375" height="800" fill="#FF00FF"/>
<path d="M210.95 694.058C260.492 650.998 306.448 651.557 353.839 697.178C398.813 740.473 461.454 818.766 420.477 861.333C379.5 903.9 214.912 880.696 181.459 821.617C152.013 749.875 186.768 717.307 210.95 694.058Z" fill="#007FFF"/>
<path d="M313.275 383.661C190.762 384.292 191.291 252.946 135.351 256.054C79.411 259.163 55.3288 295.738 19.5893 376.661C-3.11258 428.057 -41.797 457.798 -67 472.652V541.214C-41.3243 522.457 -10.0878 493.063 13.3705 450.01C61.0231 362.551 94.1783 332.05 186.371 418.159C278.564 504.268 381.82 395.1 445.352 459.658C487.026 502.003 422.326 558.877 372.872 593H457.286C543.156 522.9 454.043 382.945 313.275 383.661Z" fill="#007FFF"/>
</g>
<defs>
<clipPath id="clip0_2017_532">
<rect width="375" height="800" fill="white"/>
</clipPath>
</defs>
</svg>
