<svg width="1200" height="800" viewBox="0 0 1200 800" fill="none" xmlns="http://www.w3.org/2000/svg">
<g clip-path="url(#clip0_2016_353)">
<rect width="1200" height="800" fill="#007FFF"/>
<path fill-rule="evenodd" clip-rule="evenodd" d="M468.914 241.274C567.565 263.418 659.971 284.16 783.5 110C937.5 -139 1390.68 -161.825 1405.82 82.2894L1297.24 233.726C1297.45 222.256 1297.29 210.674 1296.74 199.099L1264.63 258.947C1240.45 263.698 1214.37 272.394 1187.34 286.923C1125.85 319.985 1068.7 346.793 1020.76 369.283C939.121 407.578 884.182 433.351 879.931 456.154C874.539 485.126 1078.13 514.048 1205.5 456.154V553C1134.84 573.391 942.848 584.225 828.799 571.683C752.624 563.31 594.816 560.239 686.692 591.112C719.175 597.042 753.258 602.527 787.761 608.079C987.109 640.16 1200.5 674.5 1200.5 810L1087 810C1092.81 745.702 892.5 665 455.152 589.561C136.5 534.596 134.5 246.5 387.963 226.93C415.863 229.366 442.611 235.37 468.914 241.274ZM526.312 543.018C580.674 562.24 610.118 546.217 647.87 525.673C652.882 522.946 658.039 520.139 663.422 517.324C722.232 477.503 783.773 423.599 846.991 368.227C966.06 263.935 1091.08 154.433 1215 124C1254.17 114.38 1272.03 121.696 1288.69 131.384C1269.9 36.2764 1219.11 -41.1113 1123 -26.0005C1031.77 -11.6591 1002.21 56.6844 969.87 131.459C932.23 218.483 890.822 314.218 744.05 343.672C517.586 389.118 410.774 471.883 526.312 543.018Z" fill="#FF00FF"/>
</g>
<defs>
<clipPath id="clip0_2016_353">
<rect width="1200" height="800" fill="white"/>
</clipPath>
</defs>
</svg>
