<svg width="375" height="800" viewBox="0 0 375 800" fill="none" xmlns="http://www.w3.org/2000/svg">
<g clip-path="url(#clip0_2017_695)">
<rect width="375" height="800" fill="#007FFF"/>
<path d="M-7.62939e-05 0V131.836C9.98992 127.404 21.4685 119.97 33.2135 107.6C46.6426 93.455 55.2346 75.1243 63.2328 58.0603C75.4229 32.0531 86.2338 8.98837 110.688 8.17007C129.389 7.54433 138.985 15.4935 156.249 29.7937C176.374 46.4642 206.918 71.7658 274.451 102.175C346.162 134.469 349.129 189.647 338.505 231L338.5 231C328 254 256.619 279.27 79.7663 295.153C-49.0887 306.726 -59.2402 421.546 41.1989 437.579C52.4038 437.514 63.2651 435.988 73.9461 434.488C114.004 428.86 151.527 423.589 195.132 497.05C248.459 601.345 428.435 625.162 442.4 528.307L404.015 464.392C400.698 517.334 377.073 574.629 326.1 562.307C290.187 553.626 280.618 525.413 270.149 494.544C257.964 458.619 244.56 419.098 186.988 402.587C89.6879 374.683 51.0858 333.586 122.908 309.328C147.889 303.691 179.812 301.137 212.714 298.505C293.456 292.046 380.094 285.114 384.5 231L375 231V147.944C369.983 135.551 362.183 123.874 350.167 115.5C332.804 103.399 309.218 94.9988 284.986 86.3682C250.855 74.2117 215.442 61.5989 194.332 37.5467C182.193 23.716 176.523 10.9113 174.348 0H-7.62939e-05Z" fill="#FF00FF"/>
<path d="M367.761 298.587C354.493 371.981 275.941 357.035 271.571 390.861C267.201 424.687 286.408 443.174 330.86 473.578C359.092 492.89 372.583 519.355 378.666 536.093L419.7 543.73C411.334 526.274 397.221 504.305 374.066 485.47C327.03 447.208 312.469 423.968 374.273 378.382C436.078 332.795 382.242 258.837 427.956 228.004C457.941 207.779 484.774 252.836 499.688 286.235L509.09 235.714C476.7 176.513 383.012 214.258 367.761 298.587Z" fill="#FF00FF"/>
</g>
<defs>
<clipPath id="clip0_2017_695">
<rect width="375" height="800" fill="white"/>
</clipPath>
</defs>
</svg>
