<svg width="375" height="227" viewBox="0 0 375 227" fill="none" xmlns="http://www.w3.org/2000/svg">
<g clip-path="url(#clip0_2019_1354)">
<rect width="375" height="227" fill="#007FFF"/>
<path d="M-1.37155e-05 251H64.6361C72.7166 241.835 83.0605 232.763 96.2929 224.618C177.682 174.519 230.476 127.489 248.626 132.858C263.151 137.159 243.335 210.201 185.79 251H234.762C261.339 225.702 291.618 188.62 313.796 137.456C329.206 101.911 352.964 80.205 376 66.9584V0C366.598 21.0264 351.982 40.8372 329.466 55.0443C251.101 104.491 105.088 117.521 37.4471 187.299C14.7007 210.764 4.07571 232.488 -1.37155e-05 251Z" fill="#FF00FF"/>
</g>
<defs>
<clipPath id="clip0_2019_1354">
<rect width="375" height="227" fill="white"/>
</clipPath>
</defs>
</svg>
