<svg width="1200" height="671" viewBox="0 0 1200 671" fill="none" xmlns="http://www.w3.org/2000/svg">
<g clip-path="url(#clip0_2016_464)">
<rect width="1200" height="671" fill="#007FFF"/>
<path d="M0 671V288.049C31.968 300.921 68.6994 322.517 106.283 358.448C149.257 399.536 176.751 452.782 202.345 502.349C241.353 577.893 275.948 644.891 354.203 647.268C414.044 649.086 444.752 625.995 499.996 584.456C564.396 536.032 662.138 462.537 878.245 374.205C1107.72 280.399 1118 62.5 1086.5 0H1200V340.312C1158.71 364.113 1116.12 403.114 1088.5 466.983C1048.74 558.915 994.464 625.545 946.823 671H859.039C962.191 597.693 997.713 466.449 971.675 458.721C951.178 452.644 906.031 483.936 838.947 530.433C799.551 557.74 752.589 590.29 698.61 623.596C674.89 638.232 656.348 654.533 641.864 671H0Z" fill="#FF00FF"/>
</g>
<defs>
<clipPath id="clip0_2016_464">
<rect width="1200" height="671" fill="white"/>
</clipPath>
</defs>
</svg>
