<svg width="293" height="87" viewBox="0 0 293 87" fill="none" xmlns="http://www.w3.org/2000/svg">
<path d="M271.481 0.043457H21.3592C20.5437 0.043457 19.7865 0.043457 18.971 0.043457C18.3303 0.043457 17.6313 0.043457 16.9905 0.043457C15.5343 0.101505 14.0781 0.159554 12.6801 0.449796C11.2239 0.68199 9.88414 1.14638 8.60266 1.78491C7.32118 2.42344 6.15619 3.29417 5.10771 4.33904C4.05922 5.38391 3.24372 6.54488 2.54473 7.82194C1.84573 9.15706 1.438 10.4922 1.205 11.8853C0.972003 13.3365 0.855498 14.7297 0.797249 16.1809C0.797249 16.8194 0.797263 17.516 0.739014 18.1546C0.739014 18.9092 0.739014 19.7219 0.739014 20.4765V66.5669C0.739014 67.3796 0.739014 68.1342 0.739014 68.8889C0.739014 69.5274 0.738999 70.224 0.797249 70.8625C0.855498 72.3137 0.913754 73.7649 1.205 75.1581C1.438 76.6093 1.90398 77.9444 2.54473 79.2215C3.18547 80.4986 4.05922 81.6595 5.10771 82.7044C6.15619 83.7493 7.32118 84.5619 8.60266 85.2585C9.94239 85.9551 11.2821 86.3614 12.6801 86.5936C14.1363 86.8258 15.5925 86.9419 16.9905 87C17.6313 87 18.3303 87 18.971 87C19.7865 87 20.5437 87 21.3592 87H271.481C272.239 87 273.054 87 273.811 87C274.452 87 275.151 87 275.792 87C277.248 86.9419 278.704 86.8839 280.102 86.5936C281.558 86.3614 282.898 85.8971 284.238 85.2585C285.519 84.62 286.684 83.7493 287.733 82.7044C288.781 81.7176 289.597 80.4986 290.296 79.2215C290.937 77.9444 291.403 76.5513 291.636 75.1581C291.927 73.7069 291.985 72.3137 292.043 70.8625C292.043 70.224 292.043 69.5274 292.043 68.8889C292.043 68.1342 292.043 67.3216 292.043 66.5669V20.5345C292.043 19.7219 292.043 18.9672 292.043 18.2126C292.043 17.5741 292.043 16.8775 292.043 16.239C291.985 14.7878 291.927 13.3365 291.636 11.9434C291.403 10.4922 290.937 9.15706 290.296 7.87999C289.655 6.60293 288.781 5.44196 287.733 4.39709C286.743 3.35222 285.519 2.53954 284.238 1.84296C282.898 1.20443 281.558 0.740038 280.102 0.507844C278.704 0.275651 277.248 0.159554 275.792 0.101505C275.151 0.101505 274.452 0.101505 273.811 0.101505C273.054 0.043457 272.297 0.043457 271.481 0.043457Z" fill="#B6B6B6"/>
<path d="M19.0295 85.259C18.3888 85.259 17.748 85.259 17.1073 85.259C15.8841 85.2009 14.4861 85.1429 13.0881 84.9107C11.7483 84.6785 10.5834 84.2722 9.53489 83.7497C8.42816 83.1692 7.37966 82.4727 6.50593 81.5439C5.63219 80.6732 4.87495 79.6863 4.29246 78.5254C3.70997 77.4225 3.36048 76.2615 3.12748 74.9844C2.83623 73.5332 2.778 72.082 2.778 70.9791C2.778 70.5147 2.71973 69.0054 2.71973 69.0054V18.2131C2.71973 18.2131 2.71975 16.7038 2.778 16.2975C2.778 15.1946 2.89448 13.6853 3.12748 12.2922C3.36048 10.957 3.76822 9.79607 4.29246 8.69315C4.87495 7.59023 5.57394 6.54536 6.50593 5.67463C7.37966 4.80391 8.42816 4.04928 9.53489 3.46879C10.6416 2.88831 11.8066 2.54002 13.0881 2.30782C14.5443 2.07563 16.0006 1.95953 17.1073 1.95953H19.0295H273.87H275.85C276.957 1.95953 278.413 2.07563 279.87 2.30782C281.151 2.54002 282.316 2.94636 283.481 3.46879C284.588 4.04928 285.578 4.74586 286.51 5.67463C287.384 6.54536 288.141 7.53218 288.723 8.69315C289.306 9.79607 289.655 10.957 289.888 12.2341C290.121 13.5692 290.238 14.9624 290.238 16.2975C290.238 16.878 290.238 17.5746 290.238 18.2131C290.238 19.0258 290.238 19.7804 290.238 20.535V66.6255C290.238 67.3801 290.238 68.1928 290.238 68.9474C290.238 69.644 290.238 70.2825 290.238 70.921C290.18 72.1981 290.121 73.5913 289.888 74.9264C289.655 76.2615 289.306 77.4225 288.723 78.5254C288.141 79.6283 287.384 80.6732 286.51 81.4858C285.636 82.3566 284.588 83.1112 283.481 83.6917C282.374 84.2722 281.209 84.6205 279.87 84.8527C278.472 85.0848 277.074 85.1429 275.85 85.2009C275.21 85.2009 274.569 85.2009 273.928 85.2009H271.598L19.0295 85.259Z" fill="black"/>
<path d="M108.908 58.8469H98.6559L96.1512 65.6385H91.666L101.685 40.1553H105.937L116.189 65.6385H111.471L108.908 58.8469ZM99.9374 55.364H107.568L104.83 48.0499C104.481 47.063 104.073 45.9021 103.724 44.6831C103.374 45.786 103.025 46.8889 102.675 47.9918L99.9374 55.364Z" fill="white"/>
<path d="M117.995 51.3009C117.995 49.9077 117.936 48.3404 117.878 46.657H121.956C122.13 47.4697 122.189 48.2243 122.247 49.037C123.936 47.1794 125.858 46.2507 128.072 46.2507C129.353 46.2507 130.518 46.5409 131.625 47.1794C132.732 47.818 133.605 48.8048 134.246 50.198C134.887 51.5911 135.236 53.3326 135.236 55.4223C135.236 57.6282 134.829 59.5438 134.071 61.1111C133.314 62.6784 132.266 63.8974 130.868 64.652C129.528 65.4647 127.955 65.8711 126.15 65.8711C124.868 65.8711 123.587 65.6389 122.305 65.2325V73.1852L117.936 73.5334V51.3009H117.995ZM129.47 60.995C130.344 59.834 130.809 58.0926 130.809 55.7706C130.809 53.6228 130.46 52.1136 129.703 51.1848C128.946 50.256 128.014 49.7336 126.79 49.7336C125.917 49.7336 125.159 49.9077 124.46 50.3141C123.761 50.7204 123.062 51.2428 122.422 51.9394V62.0979C122.829 62.3301 123.354 62.5042 123.936 62.6203C124.519 62.7364 125.101 62.7945 125.625 62.7945C127.256 62.7945 128.538 62.214 129.47 60.995Z" fill="white"/>
<path d="M137.858 51.3009C137.858 49.9077 137.799 48.3404 137.741 46.657H141.819C141.993 47.4697 142.052 48.2243 142.11 49.037C143.799 47.1794 145.721 46.2507 147.935 46.2507C149.216 46.2507 150.381 46.5409 151.488 47.1794C152.595 47.818 153.468 48.8048 154.109 50.198C154.75 51.5911 155.099 53.3326 155.099 55.4223C155.099 57.6282 154.692 59.5438 153.934 61.1111C153.177 62.6784 152.129 63.8974 150.731 64.652C149.391 65.4647 147.818 65.8711 146.013 65.8711C144.731 65.8711 143.45 65.6389 142.168 65.2325V73.1852L137.799 73.5334V51.3009H137.858ZM149.333 60.995C150.207 59.834 150.673 58.0926 150.673 55.7706C150.673 53.6228 150.323 52.1136 149.566 51.1848C148.809 50.256 147.877 49.7336 146.653 49.7336C145.78 49.7336 145.022 49.9077 144.323 50.3141C143.624 50.7204 142.925 51.2428 142.285 51.9394V62.0979C142.692 62.3301 143.217 62.5042 143.799 62.6203C144.382 62.7364 144.964 62.7945 145.488 62.7945C147.119 62.7945 148.459 62.214 149.333 60.995Z" fill="white"/>
<path d="M163.079 64.4185C161.215 63.3737 159.759 61.9225 158.769 59.9488C157.779 58.0332 157.255 55.7113 157.255 53.0991C157.255 50.2547 157.837 47.8167 159.002 45.8431C160.167 43.8694 161.74 42.3602 163.778 41.3733C165.759 40.3865 168.031 39.8641 170.535 39.8641C171.992 39.8641 173.39 40.0382 174.729 40.3285C176.069 40.6768 177.292 41.0831 178.457 41.6636L177.351 45.0304C175.021 43.9275 172.807 43.405 170.71 43.405C168.963 43.405 167.39 43.8114 166.05 44.566C164.71 45.3206 163.662 46.4235 162.963 47.8748C162.206 49.326 161.856 51.1255 161.856 53.1572C161.856 54.9567 162.147 56.582 162.73 57.9752C163.312 59.3683 164.186 60.4713 165.409 61.342C166.633 62.1547 168.205 62.561 170.069 62.561C170.943 62.561 171.759 62.503 172.632 62.3288C173.506 62.1547 174.263 61.9805 175.021 61.6903V56.524H169.137V53.1572H179.273V63.8961C177.817 64.5927 176.302 65.1151 174.671 65.4634C173.04 65.8117 171.467 65.9859 169.895 65.9859C167.215 65.9859 165.002 65.4634 163.079 64.4185Z" fill="white"/>
<path d="M194.592 65.6387C194.418 64.8841 194.359 64.0714 194.301 63.1426C193.602 63.9553 192.787 64.5938 191.68 65.1743C190.632 65.7548 189.408 65.987 188.01 65.987C186.904 65.987 185.913 65.7548 185.04 65.3485C184.166 64.9421 183.409 64.3036 182.884 63.4329C182.36 62.5621 182.069 61.5173 182.069 60.2983C182.069 58.4407 182.71 56.9895 184.049 55.8866C185.389 54.7837 187.603 54.2612 190.69 54.2612C191.855 54.2612 193.02 54.3193 194.126 54.4934V54.1451C194.126 52.4617 193.777 51.3008 193.078 50.6042C192.379 49.9076 191.33 49.5593 189.991 49.5593C189.059 49.5593 188.069 49.6754 187.02 49.9656C185.972 50.2559 185.04 50.5461 184.224 50.9525L183.525 47.8178C184.282 47.4696 185.331 47.1213 186.612 46.831C187.894 46.5408 189.234 46.3666 190.632 46.3666C192.263 46.3666 193.66 46.5988 194.825 47.1213C195.99 47.6437 196.864 48.4564 197.505 49.6754C198.146 50.8944 198.495 52.5198 198.495 54.5515V62.0978C198.495 62.9104 198.553 64.0714 198.612 65.6387H194.592ZM192.029 62.0978C192.961 61.6914 193.66 61.1109 194.243 60.4724V56.9314C193.078 56.8154 192.088 56.7573 191.33 56.7573C189.525 56.7573 188.302 57.0475 187.603 57.628C186.904 58.2085 186.554 58.9631 186.554 59.95C186.554 60.8787 186.787 61.5753 187.311 62.0397C187.836 62.5041 188.476 62.7363 189.35 62.7363C190.224 62.7943 191.097 62.5621 192.029 62.0978Z" fill="white"/>
<path d="M201.932 61.1102V38.7035L206.242 38.3552V60.3556C206.242 61.1683 206.359 61.7487 206.65 62.097C206.941 62.4453 207.349 62.6195 207.99 62.6195C208.281 62.6195 208.63 62.5614 209.155 62.4453L209.679 65.5799C209.271 65.7541 208.747 65.8702 208.164 65.9863C207.582 66.1024 206.999 66.1604 206.475 66.1604C203.446 65.9863 201.932 64.3609 201.932 61.1102Z" fill="white"/>
<path d="M212.766 61.1102V38.7035L217.077 38.3552V60.3556C217.077 61.1683 217.193 61.7487 217.485 62.097C217.776 62.4453 218.184 62.6195 218.824 62.6195C219.116 62.6195 219.465 62.5614 219.989 62.4453L220.514 65.5799C220.106 65.7541 219.581 65.8702 218.999 65.9863C218.417 66.1024 217.834 66.1604 217.31 66.1604C214.281 65.9863 212.766 64.3609 212.766 61.1102Z" fill="white"/>
<path d="M238.338 56.6994H225.872C226.047 60.6467 227.969 62.6784 231.581 62.6784C232.454 62.6784 233.386 62.5623 234.318 62.3301C235.25 62.0979 236.124 61.8076 236.998 61.4594L237.93 64.4198C235.775 65.4647 233.386 65.9871 230.765 65.9871C228.726 65.9871 227.037 65.5808 225.639 64.8262C224.241 64.0715 223.193 62.9686 222.494 61.5174C221.795 60.0662 221.445 58.3828 221.445 56.3511C221.445 54.2613 221.795 52.4618 222.552 50.9526C223.309 49.4433 224.3 48.2824 225.639 47.4697C226.979 46.657 228.493 46.2507 230.241 46.2507C232.047 46.2507 233.561 46.657 234.726 47.5277C235.949 48.3404 236.823 49.5014 237.406 50.8945C237.988 52.2877 238.279 53.855 238.279 55.5384V56.6994H238.338ZM234.085 53.9711C234.027 52.4619 233.619 51.3009 232.92 50.5463C232.221 49.7916 231.348 49.3853 230.183 49.3853C229.076 49.3853 228.144 49.7916 227.445 50.5463C226.688 51.3009 226.222 52.4619 225.989 53.9131H234.085V53.9711Z" fill="white"/>
<path d="M241.6 51.4168C241.6 50.372 241.541 48.8047 241.483 46.6569H245.561C245.619 47.1793 245.677 47.8178 245.735 48.5725C245.794 49.3271 245.852 49.9076 245.852 50.372C246.376 49.5593 246.842 48.8627 247.366 48.2822C247.832 47.7017 248.415 47.2374 249.056 46.8891C249.696 46.5408 250.454 46.3666 251.269 46.3666C251.968 46.3666 252.492 46.4247 253.017 46.5988L252.492 50.372C252.085 50.2559 251.619 50.1978 251.094 50.1978C250.046 50.1978 249.172 50.43 248.415 50.9525C247.658 51.4749 246.842 52.3456 245.968 53.5066V65.6968H241.658V51.4168H241.6Z" fill="white"/>
<path d="M255.463 73.4164C254.822 73.3003 254.298 73.1842 253.89 73.0101L254.706 69.8755C254.997 69.9335 255.347 70.0496 255.813 70.1077C256.278 70.1657 256.686 70.2238 257.094 70.2238C259.016 70.2238 260.472 69.0047 261.404 66.5087L261.696 65.8121L254.706 46.7142H259.366L262.919 57.3951C263.501 59.1946 263.851 60.6458 264.026 61.5746C264.375 60.1814 264.725 58.8463 265.191 57.4531L268.744 46.6561H273.112L266.123 65.8701C265.482 67.6696 264.725 69.1789 263.967 70.2818C263.21 71.3847 262.278 72.1974 261.288 72.7779C260.239 73.3003 259.016 73.5906 257.502 73.5906C256.803 73.5906 256.104 73.5325 255.463 73.4164Z" fill="white"/>
<path d="M93.7632 28.4291C92.7729 27.9067 92.074 27.094 91.5497 26.1072C91.0255 25.1204 90.7925 23.9594 90.7925 22.6243C90.7925 21.2311 91.0837 20.0121 91.608 18.9673C92.1322 17.9224 92.9477 17.1097 93.938 16.5873C94.9864 16.0068 96.1514 15.7166 97.5494 15.7166C98.8891 15.7166 99.9959 16.0068 100.986 16.5292C101.918 17.0517 102.675 17.8643 103.2 18.8512C103.724 19.838 103.957 20.999 103.957 22.276C103.957 23.6692 103.666 24.8882 103.141 25.9331C102.617 26.9779 101.802 27.7906 100.811 28.3131C99.8211 28.8935 98.5979 29.1838 97.2581 29.1838C95.9184 29.2418 94.7534 28.9516 93.7632 28.4291ZM99.7046 26.8038C100.345 26.3975 100.811 25.817 101.161 25.0623C101.452 24.3077 101.627 23.437 101.627 22.5082C101.627 21.5794 101.51 20.7087 101.219 20.0121C100.928 19.2575 100.52 18.677 99.8794 18.2707C99.2386 17.8063 98.4814 17.6321 97.4911 17.6321C96.5592 17.6321 95.8019 17.8643 95.1612 18.2707C94.5204 18.7351 94.0544 19.3156 93.7049 20.0702C93.3554 20.8248 93.239 21.6375 93.239 22.5663C93.239 23.495 93.4137 24.3658 93.7049 25.1204C93.9962 25.875 94.4622 26.4555 95.1029 26.9199C95.7437 27.3843 96.5009 27.5584 97.4329 27.5584C98.2484 27.4423 99.0639 27.2682 99.7046 26.8038Z" fill="white"/>
<path d="M108.558 17.806H104.481L104.656 15.8904H114.966L114.733 17.806H110.83V29.0674H108.558V17.806Z" fill="white"/>
<path d="M127.198 29.0677H124.635L120.733 23.2628H119.16V29.0677H116.888V15.9487H119.16V21.3472H120.325L123.063 17.4C123.47 16.8195 123.878 16.4131 124.286 16.1229C124.693 15.8326 125.218 15.7166 125.8 15.7166C126.324 15.7166 126.79 15.7746 127.14 15.9487L126.674 17.6902C126.441 17.5741 126.208 17.5161 125.975 17.5161C125.684 17.5161 125.451 17.5741 125.276 17.6902C125.101 17.8063 124.868 18.0385 124.693 18.3287L122.305 21.7536L127.198 29.0677Z" fill="white"/>
<path d="M128.946 15.9482H132.499C134.188 15.9482 135.469 16.2965 136.343 16.9931C137.217 17.6897 137.683 18.6765 137.683 19.9536C137.683 20.8243 137.508 21.5789 137.1 22.2175C136.693 22.856 136.168 23.3784 135.411 23.7267C134.712 24.075 133.897 24.2492 132.965 24.2492C132.441 24.2492 131.858 24.1911 131.217 24.075V29.0672H128.946V15.9482ZM134.654 21.8111C135.12 21.3467 135.353 20.7663 135.353 19.9536C135.353 19.1409 135.12 18.5604 134.596 18.2121C134.13 17.8638 133.373 17.6897 132.441 17.6897H131.217V22.3336C131.8 22.4497 132.208 22.4497 132.499 22.4497C133.431 22.4497 134.188 22.2175 134.654 21.8111Z" fill="white"/>
<path d="M142.052 28.4291C141.062 27.9067 140.363 27.094 139.839 26.1072C139.314 25.1204 139.081 23.9594 139.081 22.6243C139.081 21.2311 139.373 20.0121 139.897 18.9673C140.421 17.9224 141.237 17.1097 142.227 16.5873C143.275 16.0068 144.44 15.7166 145.838 15.7166C147.178 15.7166 148.285 16.0068 149.275 16.5292C150.207 17.0517 150.964 17.8643 151.488 18.8512C152.013 19.838 152.246 20.999 152.246 22.276C152.246 23.6692 151.954 24.8882 151.43 25.9331C150.906 26.9779 150.09 27.7906 149.1 28.3131C148.11 28.8935 146.887 29.1838 145.547 29.1838C144.149 29.2418 142.984 28.9516 142.052 28.4291ZM147.935 26.8038C148.576 26.3975 149.042 25.817 149.391 25.0623C149.683 24.3077 149.857 23.437 149.857 22.5082C149.857 21.5794 149.741 20.7087 149.45 20.0121C149.158 19.2575 148.751 18.677 148.11 18.2707C147.469 17.8063 146.712 17.6321 145.722 17.6321C144.79 17.6321 144.032 17.8643 143.392 18.2707C142.751 18.7351 142.285 19.3156 141.935 20.0702C141.586 20.8248 141.47 21.6375 141.47 22.5663C141.47 23.495 141.644 24.3658 141.935 25.1204C142.227 25.875 142.693 26.4555 143.333 26.9199C143.974 27.3843 144.731 27.5584 145.663 27.5584C146.537 27.4423 147.294 27.2682 147.935 26.8038Z" fill="white"/>
<path d="M163.779 29.0671V21.8691C163.779 20.9403 163.837 19.8955 163.895 18.7345L157.255 29.0671H154.75V15.9482H156.847V23.4364C156.847 24.2491 156.847 25.1198 156.789 26.1067L163.313 15.9482H165.934V29.0671H163.779ZM158.653 14.7872C158.187 14.555 157.779 14.2067 157.546 13.8004C157.313 13.394 157.138 12.9877 157.08 12.5233H158.711C158.886 13.5101 159.468 13.9745 160.4 13.9745C161.332 13.9745 161.915 13.5101 162.148 12.5233H163.779C163.721 12.9877 163.546 13.394 163.313 13.8004C163.08 14.2067 162.672 14.497 162.206 14.7872C161.74 15.0774 161.099 15.1935 160.4 15.1935C159.76 15.1935 159.119 15.0194 158.653 14.7872Z" fill="white"/>
<path d="M171.934 17.806H167.856L168.031 15.8904H178.283L178.05 17.806H174.147V29.0674H171.875V17.806H171.934Z" fill="white"/>
<path d="M180.205 15.9482H187.952L187.719 17.8058H182.477V21.4048H187.428V23.1462H182.477V27.1516H188.01L187.836 29.0091H180.205V15.9482Z" fill="white"/>
<path d="M203.912 22.5658C204.378 22.856 204.728 23.2043 205.019 23.7267C205.31 24.1911 205.427 24.7716 205.427 25.3521C205.427 26.1067 205.252 26.7452 204.903 27.2677C204.553 27.8482 203.971 28.2545 203.272 28.5447C202.573 28.835 201.699 29.0091 200.709 29.0091H196.398V15.9482H200.534C201.932 15.9482 202.98 16.2385 203.679 16.7609C204.378 17.2834 204.728 18.038 204.728 18.9668C204.728 19.7214 204.495 20.418 204.087 20.9404C203.621 21.4628 203.039 21.8111 202.34 22.0433C202.922 22.1014 203.446 22.2755 203.912 22.5658ZM198.67 21.2887H200.068C200.534 21.2887 200.942 21.1726 201.291 20.9984C201.641 20.8243 201.932 20.5341 202.107 20.2438C202.281 19.9536 202.398 19.6053 202.398 19.199C202.398 18.6765 202.223 18.2702 201.815 17.9799C201.408 17.6897 200.884 17.5736 200.126 17.5736H198.612V21.2887H198.67ZM202.456 26.8033C202.922 26.3969 203.155 25.8745 203.155 25.1779C203.155 24.4233 202.922 23.9009 202.398 23.4945C201.874 23.0882 201.175 22.914 200.185 22.914H198.67V27.3257H200.359C201.291 27.3838 201.99 27.2096 202.456 26.8033Z" fill="white"/>
<path fill-rule="evenodd" clip-rule="evenodd" d="M59.6287 16.0065H35.4553C24.0384 16.0065 19.9027 20.186 19.9027 31.5054V55.5955C19.9027 66.973 24.0967 71.0944 35.4553 71.0944H59.6287C71.0455 71.0944 75.1812 66.9149 75.1812 55.5955V31.5054C75.2395 20.186 71.0455 16.0065 59.6287 16.0065Z" fill="#C8102E"/>
<path d="M30.8537 43.5803H32.3099V50.7783H30.8537V47.8759H27.5335V50.7783H26.0773V43.5803H27.5335V46.4827H30.8537V43.5803ZM39.1251 47.7018C39.1251 48.8627 38.5426 49.5013 37.4941 49.5013C36.4456 49.5013 35.8631 48.8627 35.8631 47.6437V43.5803H34.4069V47.7018C34.4069 49.7334 35.5136 50.8944 37.4941 50.8944C39.4746 50.8944 40.6396 49.7334 40.6396 47.6437V43.5803H39.1833V47.7018H39.1251ZM56.0756 48.5144L54.4446 43.5803H53.2214L51.5904 48.5144L50.0177 43.5803H48.445L50.9497 50.7783H52.1729L53.8039 46.0184L55.4349 50.7783H56.6581L59.1628 43.5803H57.6483L56.0756 48.5144ZM61.8423 47.7018H64.5218V46.3666H61.8423V44.9154H65.745V43.5803H60.4443V50.7783H65.9197V49.4432H61.9005V47.7018H61.8423ZM67.609 50.7783H69.0652V43.5803H67.609V50.7783ZM43.4938 49.2691L42.853 50.7783H41.3385L44.484 43.5803H45.7655L48.9109 50.7783H47.3965L46.7557 49.2691H43.4938ZM44.018 47.992H46.2315L45.1247 45.4379L44.018 47.992Z" fill="white"/>
<path d="M47.571 34.4082C42.5034 34.4082 38.3677 30.2868 38.3677 25.2366H39.6492C39.6492 29.5902 43.2023 33.1312 47.571 33.1312C51.9397 33.1312 55.4929 29.5902 55.4929 25.2366H56.7744C56.7744 30.2868 52.6387 34.4082 47.571 34.4082Z" fill="white"/>
</svg>
