<svg width="290" height="87" viewBox="0 0 290 87" fill="none" xmlns="http://www.w3.org/2000/svg">
<g clip-path="url(#clip0_101_29)">
<path d="M279.259 -0.348083H10.7407C4.80879 -0.348083 0 4.52082 0 10.5269V75.7769C0 81.783 4.80879 86.6519 10.7407 86.6519H279.259C285.191 86.6519 290 81.783 290 75.7769V10.5269C290 4.52082 285.191 -0.348083 279.259 -0.348083Z" fill="black"/>
<path d="M279.259 1.39192C281.652 1.39192 283.947 2.35435 285.639 4.0675C287.331 5.78064 288.281 8.10416 288.281 10.5269V75.7769C288.281 78.1997 287.331 80.5232 285.639 82.2363C283.947 83.9495 281.652 84.9119 279.259 84.9119H10.7407C8.3479 84.9119 6.05306 83.9495 4.36107 82.2363C2.66907 80.5232 1.71852 78.1997 1.71852 75.7769V10.5269C1.71852 8.10416 2.66907 5.78064 4.36107 4.0675C6.05306 2.35435 8.3479 1.39192 10.7407 1.39192H279.259ZM279.259 -0.348083H10.7407C7.89212 -0.348083 5.16017 0.797672 3.14589 2.83713C1.13161 4.87659 0 7.64269 0 10.5269V75.7769C0 78.6611 1.13161 81.4272 3.14589 83.4667C5.16017 85.5062 7.89212 86.6519 10.7407 86.6519H279.259C282.108 86.6519 284.84 85.5062 286.854 83.4667C288.868 81.4272 290 78.6611 290 75.7769V10.5269C290 7.64269 288.868 4.87659 286.854 2.83713C284.84 0.797672 282.108 -0.348083 279.259 -0.348083Z" fill="white"/>
<g clip-path="url(#clip1_101_29)">
<path fill-rule="evenodd" clip-rule="evenodd" d="M55.3833 73.6889C41.8524 73.6889 35.087 73.6889 30.8835 69.4692C26.68 65.2494 26.68 58.4577 26.68 44.8744L26.68 42.4732C26.68 28.8899 26.68 22.0983 30.8835 17.8785C35.087 13.6589 41.8524 13.6589 55.3832 13.6589L57.7752 13.6589C71.3061 13.6589 78.0715 13.6589 82.275 17.8785C86.4785 22.0982 86.4785 28.8899 86.4785 42.4732V44.8744C86.4785 58.4577 86.4785 65.2494 82.275 69.4692C78.0715 73.6889 71.3061 73.6889 57.7752 73.6889H55.3833Z" fill="#0077FF"/>
<path d="M61.2591 50.6532C59.648 50.2491 58.5183 48.8024 58.5183 47.143V27.5938C58.5183 25.709 60.2924 24.3268 62.1224 24.7856L73.7111 27.6918C75.3222 28.0958 76.4519 29.5425 76.4519 31.2019V50.7511C76.4519 52.6359 74.6778 54.0182 72.8479 53.5593L61.2591 50.6532Z" fill="white"/>
<path d="M39.4479 59.6548C37.8367 59.2508 36.707 57.804 36.707 56.1446V36.5954C36.707 34.7106 38.4811 33.3284 40.3111 33.7873L51.8998 36.6934C53.5109 37.0974 54.6406 38.5442 54.6406 40.2035V59.7528C54.6406 61.6375 52.8665 63.0198 51.0365 62.5609L39.4479 59.6548Z" fill="white"/>
<path d="M50.3535 55.1541C48.7423 54.7501 47.6127 53.3033 47.6127 51.6439V32.0948C47.6127 30.21 49.3868 28.8277 51.2168 29.2866L62.8054 32.1927C64.4166 32.5968 65.5463 34.0436 65.5463 35.7029V55.2521C65.5463 57.1369 63.7722 58.5192 61.9422 58.0603L50.3535 55.1541Z" fill="white"/>
<path d="M57.9383 57.0613C57.4308 56.9316 57.0696 56.4811 57.0519 55.9557L56.5477 41.026C56.4019 39.0501 54.9408 37.4786 53.414 37.0158C53.3282 36.9898 53.2367 37.0248 53.1859 37.0988C53.1343 37.1741 53.1542 37.2782 53.2262 37.3342C53.6033 37.6271 54.641 38.5833 54.641 40.2325L54.6379 56.2217L57.9383 57.0613Z" fill="#0077FF"/>
<path d="M68.8467 52.5562C68.3396 52.4288 67.9779 51.9797 67.9603 51.4552L67.456 36.5267C67.3102 34.5507 65.8491 32.9792 64.3222 32.5165C64.2365 32.4905 64.145 32.5255 64.0942 32.5995C64.0426 32.6747 64.0626 32.7789 64.1345 32.8348C64.5115 33.1278 65.5493 34.084 65.5493 35.7332L65.5462 51.7278L68.8467 52.5562Z" fill="#0077FF"/>
<path d="M120.903 58.8593C125.431 57.7003 128.407 54.2234 128.407 49.6734C128.407 44.0502 123.921 40.1012 117.625 40.1012H106.412V70.3631H111.587V59.2456H115.253L123.274 70.3631H129.355L120.903 58.8593ZM117.625 44.8229C120.859 44.8229 123.102 46.7974 123.102 49.6734C123.102 52.5493 120.859 54.5239 117.625 54.5239H111.587V44.8229H117.625Z" fill="white"/>
<path d="M141.003 70.7923C143.72 70.7923 146.221 69.3758 147.645 67.0149L148.636 70.3631H152.346V48.0422H147.386V60.9626C147.386 64.139 145.273 66.3711 142.383 66.3711C139.537 66.3711 137.552 64.139 137.552 60.9626V48.0422H132.593V61.5206C132.593 66.8862 136.216 70.7923 141.003 70.7923Z" fill="white"/>
<path d="M168.174 70.7923C173.91 70.7923 178.654 67.53 178.654 62.1215C178.654 56.0691 173.694 54.3092 169.425 52.8498C166.104 51.7338 163.214 50.7036 163.214 47.9993C163.214 45.6384 165.413 44.3936 168.001 44.3936C170.718 44.3936 172.659 45.8101 173.738 48.2139L178.654 47.3984C177.101 42.6766 173.176 39.6719 167.829 39.6719C162.309 39.6719 157.909 42.8483 157.909 48.2569C157.909 54.3522 162.869 56.0262 167.139 57.4427C170.417 58.5159 173.349 59.546 173.349 62.2932C173.349 64.697 171.15 66.0706 168.217 66.0706C164.853 66.0706 163.042 64.4824 161.446 61.6064L156.443 62.4649C157.909 67.573 162.568 70.7923 168.174 70.7923Z" fill="white"/>
<path d="M192.146 66.0706C190.464 66.0706 189.645 65.255 189.645 63.581V52.3347H196.329V48.0422H189.645V41.6035H185.936L184.685 48.0422H181.019V52.3347H184.685V63.581C184.685 67.9593 187.229 70.3631 192.146 70.3631H196.329L196.761 66.0706H192.146Z" fill="white"/>
<path d="M210.934 70.7923C217.963 70.7923 222.922 65.9848 222.922 59.2027C222.922 52.4205 217.963 47.613 210.934 47.613C203.904 47.613 198.944 52.4205 198.944 59.2027C198.944 65.9848 203.904 70.7923 210.934 70.7923ZM210.934 66.2852C206.879 66.2852 204.119 63.4093 204.119 59.2027C204.119 54.996 206.879 52.1201 210.934 52.1201C214.988 52.1201 217.747 54.996 217.747 59.2027C217.747 63.4093 214.988 66.2852 210.934 66.2852Z" fill="white"/>
<path d="M232.194 70.3631V57.1852C232.194 54.3522 233.574 52.7639 236.593 52.7639H239.44L239.009 48.0422H238.06C235.429 48.0422 233.402 48.7719 231.892 51.2616L230.944 48.0422H227.235V70.3631H232.194Z" fill="white"/>
<path d="M263.844 58.9451C263.844 52.5064 259.013 47.613 252.199 47.613C245.385 47.613 240.555 52.4635 240.555 59.2027C240.555 65.9418 245.385 70.7923 252.199 70.7923C256.857 70.7923 261.256 68.6032 262.938 64.3536L258.28 63.581C257.203 65.1692 255.132 66.2852 252.502 66.2852C248.706 66.2852 246.205 63.9673 245.73 60.5333H263.757C263.801 60.0611 263.844 59.546 263.844 58.9451ZM252.199 51.9055C255.305 51.9055 257.633 53.88 258.453 56.6701H246.032C246.852 53.7941 249.181 51.9055 252.199 51.9055Z" fill="white"/>
<path d="M106.831 32.5164V28.1462H107.115C107.484 28.1462 107.779 28.0555 108.001 27.874C108.222 27.6926 108.406 27.3298 108.554 26.7855C108.712 26.2305 108.833 25.4141 108.918 24.3363L109.376 18.3813H116.396V28.1462H118.024V32.5164H116.396V29.6669H108.459V32.5164H106.831ZM114.767 28.1462V19.902H110.878L110.546 24.4163C110.42 26.2199 110.093 27.4632 109.566 28.1462H114.767Z" fill="white"/>
<path d="M123.201 29.827C122.368 29.827 121.625 29.6456 120.972 29.2827C120.318 28.9199 119.807 28.413 119.438 27.762C119.069 27.111 118.885 26.3693 118.885 25.5369C118.885 24.7044 119.069 23.9627 119.438 23.3118C119.807 22.6608 120.318 22.1538 120.972 21.791C121.625 21.4175 122.368 21.2307 123.201 21.2307C124.034 21.2307 124.777 21.4175 125.43 21.791C126.084 22.1538 126.595 22.6608 126.964 23.3118C127.333 23.9627 127.517 24.7044 127.517 25.5369C127.517 26.3693 127.333 27.111 126.964 27.762C126.595 28.413 126.084 28.9199 125.43 29.2827C124.777 29.6456 124.034 29.827 123.201 29.827ZM123.201 28.3863C124.002 28.3863 124.65 28.1248 125.146 27.6019C125.652 27.079 125.905 26.3906 125.905 25.5369C125.905 24.6831 125.652 23.9948 125.146 23.4718C124.65 22.9382 124.002 22.6714 123.201 22.6714C122.4 22.6714 121.752 22.9382 121.256 23.4718C120.761 23.9948 120.513 24.6831 120.513 25.5369C120.513 26.38 120.761 27.0683 121.256 27.6019C121.752 28.1248 122.4 28.3863 123.201 28.3863Z" fill="white"/>
<path d="M132.942 29.827C132.13 29.827 131.398 29.6456 130.744 29.2827C130.101 28.9092 129.6 28.397 129.242 27.746C128.884 27.095 128.705 26.3586 128.705 25.5369C128.705 24.7044 128.884 23.9627 129.242 23.3118C129.6 22.6608 130.101 22.1538 130.744 21.791C131.387 21.4175 132.12 21.2307 132.942 21.2307C133.817 21.2307 134.597 21.4442 135.282 21.871C135.977 22.2979 136.473 22.9116 136.768 23.712L135.313 23.9521C135.124 23.5679 134.823 23.2584 134.412 23.0236C134.012 22.7888 133.553 22.6714 133.037 22.6714C132.236 22.6714 131.582 22.9382 131.076 23.4718C130.581 24.0054 130.333 24.6938 130.333 25.5369C130.333 26.38 130.581 27.0683 131.076 27.6019C131.582 28.1248 132.236 28.3863 133.037 28.3863C133.574 28.3863 134.048 28.2636 134.46 28.0181C134.881 27.7726 135.187 27.4472 135.377 27.0416L136.831 27.2817C136.536 28.0928 136.03 28.7225 135.313 29.1707C134.607 29.6082 133.817 29.827 132.942 29.827Z" fill="white"/>
<path d="M141.615 29.6669H140.065V22.8315H137.235V21.3908H144.445V22.8315H141.615V29.6669Z" fill="white"/>
<path d="M151.765 21.3908H153.362L149.947 30.9156C149.694 31.6306 149.362 32.1482 148.95 32.4683C148.539 32.7885 147.991 32.9486 147.306 32.9486H146.089L145.947 31.5078H147.401C147.707 31.5078 147.944 31.4385 148.113 31.2997C148.281 31.1717 148.423 30.9422 148.539 30.6114L148.713 30.1312L145.077 21.3908H146.737L149.33 27.778H149.551L151.765 21.3908Z" fill="white"/>
<path d="M156.312 29.6669H154.763V21.3908H161.719V29.6669H160.17V22.8315H156.312V29.6669Z" fill="white"/>
<path d="M169.343 24.7685V21.3908H170.892V29.6669H169.343V26.2092H165.406V29.6669H163.857V21.3908H165.406V24.7685H169.343Z" fill="white"/>
<path d="M176.87 29.827C176.037 29.827 175.294 29.6456 174.641 29.2827C173.987 28.9199 173.476 28.413 173.107 27.762C172.738 27.111 172.554 26.3693 172.554 25.5369C172.554 24.7044 172.738 23.9627 173.107 23.3118C173.476 22.6608 173.987 22.1538 174.641 21.791C175.294 21.4175 176.037 21.2307 176.87 21.2307C177.703 21.2307 178.446 21.4175 179.099 21.791C179.753 22.1538 180.264 22.6608 180.633 23.3118C181.002 23.9627 181.186 24.7044 181.186 25.5369C181.186 26.3693 181.002 27.111 180.633 27.762C180.264 28.413 179.753 28.9199 179.099 29.2827C178.446 29.6456 177.703 29.827 176.87 29.827ZM176.87 28.3863C177.671 28.3863 178.319 28.1248 178.815 27.6019C179.32 27.079 179.573 26.3906 179.573 25.5369C179.573 24.6831 179.32 23.9948 178.815 23.4718C178.319 22.9382 177.671 22.6714 176.87 22.6714C176.069 22.6714 175.421 22.9382 174.925 23.4718C174.43 23.9948 174.182 24.6831 174.182 25.5369C174.182 26.38 174.43 27.0683 174.925 27.6019C175.421 28.1248 176.069 28.3863 176.87 28.3863Z" fill="white"/>
<path d="M192.069 25.3288C192.49 25.4888 192.828 25.7503 193.081 26.1132C193.344 26.4653 193.476 26.8815 193.476 27.3618C193.476 27.7993 193.349 28.1942 193.097 28.5464C192.854 28.8985 192.512 29.176 192.069 29.3788C191.626 29.5709 191.12 29.6669 190.551 29.6669H186.646V21.3908H190.409C190.946 21.3908 191.426 21.4868 191.847 21.6789C192.269 21.871 192.596 22.1325 192.828 22.4633C193.07 22.7942 193.191 23.173 193.191 23.5999C193.191 24.0054 193.091 24.3576 192.891 24.6564C192.701 24.9446 192.427 25.1687 192.069 25.3288ZM188.195 22.7195V24.7525H190.409C190.767 24.7525 191.062 24.6618 191.294 24.4803C191.526 24.2882 191.642 24.0428 191.642 23.744C191.642 23.4452 191.526 23.1997 191.294 23.0076C191.062 22.8155 190.767 22.7195 190.409 22.7195H188.195ZM190.551 28.3383C190.962 28.3383 191.294 28.2315 191.547 28.0181C191.8 27.8047 191.927 27.5272 191.927 27.1857C191.927 26.8442 191.8 26.5667 191.547 26.3533C191.294 26.1398 190.962 26.0331 190.551 26.0331H188.195V28.3383H190.551Z" fill="white"/>
</g>
</g>
<defs>
<clipPath id="clip0_101_29">
<rect width="290" height="87" fill="white"/>
</clipPath>
<clipPath id="clip1_101_29">
<rect width="237.156" height="60.03" fill="white" transform="translate(26.68 13.6589)"/>
</clipPath>
</defs>
</svg>
