<?xml version="1.0" encoding="utf-8"?>
<!-- Generator: Adobe Illustrator 28.0.0, SVG Export Plug-In . SVG Version: 6.00 Build 0)  -->
<svg version="1.1" id="Слой_1" xmlns="http://www.w3.org/2000/svg" xmlns:xlink="http://www.w3.org/1999/xlink" x="0px" y="0px"
	 viewBox="0 0 1200 800" style="enable-background:new 0 0 1200 800;" xml:space="preserve">
<style type="text/css">
	.st0{fill:#FF00FF;}
</style>
<g>
	<path class="st0" d="M1147.9,427.4C1027.4,551,1016.5,767,872.5,771.7c-144,4.7-136.1-129.9-582.1-325.6
		C35.5,334.3,25,143.2,62.7,0H-67v287.6v136.7c43.7,27,88.8,71.3,118,143.9C93.1,672.7,150.5,748.4,200.9,800h92.9
		c-109.2-83.3-146.7-232.4-119.2-241.2c34.4-11,134.6,85,289,187.3c25.1,16.6,44.7,35.1,60.1,53.9h122.6H1266V343.4
		C1230.5,358.8,1189.7,384.5,1147.9,427.4z"/>
	<path class="st0" d="M1104.1,287.6c-96,175.9-162.8,237.3-348.4,64.1C570,178.5,362,398.1,234.1,268.2
		C150.2,183,280.5,68.6,380.1,0h-170c-173,141,6.5,422.5,290,421.1c246.7-1.3,245.7,262.9,358.4,256.7
		c112.7-6.3,161.2-79.8,233.1-242.6c45.7-103.4,123.6-163.2,174.4-193.1V104.2C1214.3,141.9,1151.4,201,1104.1,287.6z"/>
</g>
</svg>
