<?xml version="1.0" encoding="utf-8"?>
<!-- Generator: Adobe Illustrator 28.0.0, SVG Export Plug-In . SVG Version: 6.00 Build 0)  -->
<svg version="1.1" id="Слой_1" xmlns="http://www.w3.org/2000/svg" xmlns:xlink="http://www.w3.org/1999/xlink" x="0px" y="0px"
	 viewBox="0 0 184 184" style="enable-background:new 0 0 184 184;" xml:space="preserve">
<g>
	<rect x="82.2" y="12.7" width="6.3" height="6.3"/>
	<polygon points="120.2,19 120.2,12.7 113.9,12.7 107.5,12.7 107.5,19 113.9,19 	"/>
	<polygon points="88.6,31.6 88.6,38 94.9,38 101.2,38 101.2,31.6 94.9,31.6 94.9,25.3 101.2,25.3 101.2,19 101.2,12.7 94.9,12.7 
		94.9,19 88.6,19 88.6,25.3 	"/>
	<rect x="101.2" y="25.3" width="6.3" height="6.3"/>
	<rect x="113.9" y="25.3" width="6.3" height="6.3"/>
	<polygon points="101.2,38 101.2,44.3 107.5,44.3 113.9,44.3 120.2,44.3 120.2,38 113.9,38 113.9,31.6 107.5,31.6 107.5,38 	"/>
	<rect x="113.9" y="50.6" width="6.3" height="6.3"/>
	<rect x="38" y="63.3" width="6.3" height="6.3"/>
	<polygon points="82.2,69.6 75.9,69.6 75.9,75.9 82.2,75.9 82.2,82.2 82.2,88.6 88.6,88.6 88.6,82.2 88.6,75.9 88.6,69.6 88.6,63.3 
		94.9,63.3 94.9,56.9 94.9,50.6 94.9,44.3 88.6,44.3 88.6,50.6 88.6,56.9 82.2,56.9 82.2,63.3 	"/>
	<rect x="164.5" y="63.3" width="6.3" height="6.3"/>
	<polygon points="19,69.6 19,63.3 12.7,63.3 12.7,69.6 12.7,75.9 19,75.9 	"/>
	<rect x="25.3" y="69.6" width="6.3" height="6.3"/>
	<path d="M151.8,69.6v-6.3h-6.3h-6.3h-6.3h-6.3h-6.3v6.3v6.3v6.3v6.3v6.3h-6.3v-6.3v-6.3v-6.3v-6.3v-6.3h-6.3v-6.3v-6.3h-6.3v6.3
		v6.3h-6.3v6.3h6.3v6.3h-6.3v6.3v6.3h-6.3v6.3h6.3v6.3h6.3h6.3v6.3h6.3h6.3v6.3h-6.3v6.3v6.3v6.3v6.3v6.3h6.3h6.3v6.3h-6.3h-6.3v6.3
		h6.3h6.3v6.3h6.3h6.3h6.3h6.3v6.3h6.3h6.3h6.3v-6.3h-6.3v-6.3v-6.3h6.3v-6.3v-6.3v-6.3h-6.3v6.3v6.3h-6.3v-6.3v-6.3h-6.3h-6.3v-6.3
		v-6.3h6.3h6.3v-6.3h6.3v-6.3h-6.3v-6.3h-6.3h-6.3v-6.3h-6.3v6.3h-6.3v6.3v6.3h-6.3v-6.3v-6.3v-6.3h6.3h6.3v-6.3h-6.3h-6.3v-6.3
		v-6.3v-6.3h6.3h6.3v6.3h6.3v6.3h6.3v6.3h-6.3v6.3h6.3h6.3v6.3h6.3v-6.3h6.3v-6.3h-6.3v-6.3h-6.3v-6.3h-6.3V69.6z M158.1,151.8v6.3
		h-6.3v-6.3h-6.3v6.3h-6.3h-6.3v-6.3h6.3v-6.3h6.3h6.3v6.3H158.1z M151.8,107.5v6.3h-6.3v-6.3H151.8z M132.8,120.2h6.3v6.3v6.3v6.3
		h-6.3h-6.3h-6.3v-6.3v-6.3v-6.3h6.3H132.8z M101.2,94.9v-6.3v-6.3h6.3v6.3v6.3H101.2z"/>
	<rect x="158.1" y="69.6" width="6.3" height="6.3"/>
	<rect x="50.6" y="75.9" width="6.3" height="6.3"/>
	<polygon points="75.9,82.2 75.9,75.9 69.6,75.9 63.3,75.9 63.3,69.6 75.9,69.6 75.9,63.3 69.6,63.3 69.6,44.3 75.9,44.3 75.9,50.6 
		75.9,56.9 82.2,56.9 82.2,50.6 82.2,44.3 75.9,44.3 75.9,12.7 63.3,12.7 63.3,19 69.6,19 69.6,31.6 63.3,31.6 63.3,63.3 50.6,63.3 
		50.6,69.6 56.9,69.6 56.9,75.9 63.3,75.9 63.3,82.2 69.6,82.2 	"/>
	<rect x="132.8" y="75.9" width="6.3" height="6.3"/>
	<polygon points="44.3,88.6 50.6,88.6 50.6,82.2 44.3,82.2 44.3,75.9 38,75.9 38,82.2 31.6,82.2 31.6,88.6 25.3,88.6 25.3,94.9 
		31.6,94.9 38,94.9 38,88.6 	"/>
	<rect x="56.9" y="82.2" width="6.3" height="6.3"/>
	<polygon points="19,88.6 19,82.2 12.7,82.2 12.7,88.6 12.7,94.9 12.7,101.2 19,101.2 25.3,101.2 25.3,94.9 19,94.9 	"/>
	<rect x="50.6" y="88.6" width="6.3" height="6.3"/>
	<rect x="63.3" y="88.6" width="6.3" height="6.3"/>
	<polygon points="82.2,101.2 75.9,101.2 75.9,94.9 69.6,94.9 69.6,101.2 69.6,107.5 63.3,107.5 63.3,101.2 56.9,101.2 50.6,101.2 
		50.6,94.9 44.3,94.9 38,94.9 38,101.2 44.3,101.2 44.3,107.5 50.6,107.5 56.9,107.5 56.9,113.9 50.6,113.9 44.3,113.9 44.3,120.2 
		50.6,120.2 56.9,120.2 63.3,120.2 63.3,113.9 69.6,113.9 69.6,120.2 75.9,120.2 75.9,113.9 82.2,113.9 82.2,107.5 	"/>
	<rect x="88.6" y="107.5" width="6.3" height="6.3"/>
	<polygon points="101.2,113.9 94.9,113.9 94.9,120.2 101.2,120.2 107.5,120.2 107.5,113.9 107.5,107.5 101.2,107.5 	"/>
	<polygon points="25.3,120.2 31.6,120.2 38,120.2 38,113.9 31.6,113.9 25.3,113.9 19,113.9 12.7,113.9 12.7,120.2 19,120.2 	"/>
	<rect x="82.2" y="113.9" width="6.3" height="6.3"/>
	<polygon points="63.3,126.5 63.3,132.8 69.6,132.8 75.9,132.8 75.9,126.5 69.6,126.5 69.6,120.2 63.3,120.2 	"/>
	<polygon points="88.6,126.5 82.2,126.5 82.2,132.8 82.2,139.2 88.6,139.2 88.6,132.8 94.9,132.8 94.9,139.2 88.6,139.2 88.6,145.5 
		94.9,145.5 94.9,151.8 101.2,151.8 107.5,151.8 107.5,145.5 101.2,145.5 101.2,139.2 101.2,132.8 107.5,132.8 107.5,126.5 
		101.2,126.5 94.9,126.5 94.9,120.2 88.6,120.2 	"/>
	<rect x="126.5" y="126.5" width="6.3" height="6.3"/>
	<rect x="63.3" y="139.2" width="6.3" height="6.3"/>
	<polygon points="75.9,145.5 69.6,145.5 69.6,151.8 75.9,151.8 75.9,158.1 82.2,158.1 82.2,151.8 82.2,145.5 82.2,139.2 75.9,139.2 
			"/>
	<polygon points="69.6,164.5 63.3,164.5 63.3,170.8 69.6,170.8 75.9,170.8 75.9,164.5 75.9,158.1 69.6,158.1 	"/>
	<rect x="88.6" y="158.1" width="6.3" height="6.3"/>
	<polygon points="101.2,158.1 101.2,164.5 94.9,164.5 94.9,170.8 101.2,170.8 107.5,170.8 113.9,170.8 113.9,164.5 113.9,158.1 
		107.5,158.1 	"/>
	<rect x="82.2" y="164.5" width="6.3" height="6.3"/>
	<path d="M56.9,12.7H12.7v44.3h44.3V12.7z M50.3,50.3h-31v-31h31V50.3z"/>
	<path d="M126.5,12.7v44.3h44.3V12.7H126.5z M164.1,50.3h-31v-31h31V50.3z"/>
	<path d="M12.7,170.8h44.3v-44.3H12.7V170.8z M19.3,133.2h31v31h-31V133.2z"/>
	<rect x="25.3" y="25.3" width="19" height="19"/>
	<rect x="139.2" y="25.3" width="19" height="19"/>
	<rect x="25.3" y="139.2" width="19" height="19"/>
</g>
</svg>
