<svg width="778" height="1016" viewBox="0 0 778 1016" fill="none" xmlns="http://www.w3.org/2000/svg">
<path d="M178.761 772C226.078 694.624 313.503 768.397 454.153 827.725C587.63 884.026 805.652 852.048 774.153 926.725C742.654 1001.4 391.402 1057.78 262.588 974.62C127.516 871.101 158.116 813.195 178.761 772Z" fill="#FF00FF"/>
<path d="M583.191 846.984C578.304 862.83 569.571 873.449 557.233 878.583C551.381 880.952 545.116 882.131 538.804 882.052C512.953 882.052 481.133 865.244 445.403 846.48C426.393 836.487 406.376 825.944 387.244 818.273C387.205 818.236 387.158 818.21 387.106 818.197L383.869 816.929C381.976 816.195 380.113 815.523 378.281 814.866L377.044 814.438C375.731 813.964 374.433 813.536 373.151 813.124C350.873 805.881 330.52 803.956 315.281 813.124C314.502 813.598 313.754 814.086 312.976 814.652C312.197 815.217 311.815 815.492 311.25 815.935C257.03 858.842 294.844 948.72 323 1000L306.5 995L289.5 988.5C259.084 929.595 231.867 847.58 296.103 796.774C297.325 795.796 298.562 794.88 299.829 794.024C300.608 793.489 301.356 792.97 302.196 792.496C303.524 791.686 304.868 790.968 306.211 790.189C307.021 789.776 307.845 789.348 308.654 788.966L309.021 788.783C309.815 788.431 310.548 788.08 311.388 787.759C311.48 787.708 311.577 787.667 311.678 787.637C312.075 787.484 312.456 787.301 312.838 787.163C313.22 787.026 313.8 786.781 314.289 786.613L316.778 785.757C316.919 785.731 317.057 785.69 317.19 785.635C317.556 785.513 317.923 785.406 318.289 785.314C319.205 785.024 320.137 784.795 321.068 784.566C322.458 784.214 323.862 783.924 325.282 783.664C325.746 783.559 326.215 783.477 326.687 783.42C327.68 783.236 328.672 783.099 329.649 782.976L332.184 782.717C333.176 782.717 334.184 782.549 335.238 782.518C359.79 781.265 387.152 790.754 414.331 803.391C416.85 804.552 419.37 805.759 421.889 806.981C433.677 812.696 445.388 818.854 456.794 824.859C487.469 840.995 519.03 857.635 538.727 857.635C541.858 857.709 544.973 857.158 547.889 856.015C549.874 855.205 555.92 852.684 559.89 839.803C563.753 827.319 564.379 807.715 525.489 782.396C493.012 761.202 441.968 742.057 396.314 726.12C378.556 719.901 360.462 713.804 341.345 707.325L341.07 707.249C336.016 705.522 330.962 703.841 325.893 702.115C323.465 701.305 321.038 700.495 318.61 699.655L326.443 676.505L348.873 684.145H349.148C368.371 690.639 386.526 696.782 404.421 703.031C453.817 720.267 504.296 739.352 538.88 761.905C577.816 787.377 592.764 815.997 583.191 846.984Z" fill="black"/>
<path d="M236.543 948.864C239.239 939.272 216.355 924.44 185.43 915.736C154.505 907.032 127.25 907.752 124.554 917.344C121.859 926.936 144.743 941.768 175.668 950.472C206.593 959.176 233.847 958.456 236.543 948.864Z" fill="#010100"/>
<path d="M413.444 929.792C416.119 920.166 393.128 905.361 362.092 896.724C331.057 888.088 303.729 888.89 301.054 898.517C298.379 908.143 321.37 922.948 352.405 931.585C383.441 940.221 410.769 939.419 413.444 929.792Z" fill="#010100"/>
<path d="M356.828 528.947C360.966 524.363 362.676 520.145 361.76 516.723L357.759 504.499C357.759 504.499 362.783 500.969 360.538 491.938C372.754 494.994 398.207 496.828 405.292 496.828C420.759 496.828 434.837 466.742 416.423 453.784C410.865 449.888 390.603 439.222 367.791 428.343C356.95 423.163 345.575 417.953 334.917 413.353C319.083 406.539 304.883 401.129 296.592 399.418C294.134 398.914 291.507 398.455 288.744 398.043C288.744 394.697 280.071 375.123 277.979 372.892C287.858 369.469 282.56 347.94 275.2 334.952C275.771 335.14 276.374 335.214 276.974 335.17C277.574 335.125 278.159 334.963 278.697 334.692C281.14 333.485 280.85 329.925 280.85 329.925C280.85 329.925 279.43 331.33 278.147 330.215C276.864 329.099 275.628 320.497 270.894 319.366C266.161 318.235 264.13 324.225 264.13 324.225C262.439 322.638 260.322 321.579 258.039 321.178C255.755 320.776 253.404 321.049 251.274 321.964C243.151 324.852 241.166 339.551 237.852 341.69C237.058 342.21 238.585 343.447 240.143 342.745C240.219 343.223 240.404 343.677 240.683 344.073C240.961 344.469 241.327 344.796 241.751 345.028C242.175 345.261 242.647 345.394 243.13 345.417C243.614 345.439 244.096 345.351 244.54 345.159C244.54 345.159 245.7 347.053 247.014 349.452C246.679 349.994 246.422 350.581 246.25 351.194C245.997 352.114 245.914 353.072 246.006 354.021C238.677 353.257 231.195 353.486 230.34 357.077C230.34 357.077 205.192 359.537 213.544 381.388L210.979 381.479C201.97 381.8 193.068 388.309 186.64 394.406C183.153 397.704 179.941 401.281 177.036 405.102L205.238 359.476L195.114 351.301L198.275 342.546L205.589 322.315C215.149 319.68 223.765 314.381 230.432 307.035C233.592 303.765 245.624 298.326 243.685 295.086C240.143 289.173 229.943 296.263 229.943 296.263C229.943 291.175 233.607 289.57 231.47 286.315C229.332 283.061 225.362 285.689 225.362 285.689C225.362 285.689 223.362 281.105 219.346 284.803C218.172 285.941 217.293 287.349 216.785 288.904C216.277 290.458 216.155 292.114 216.43 293.726C215.712 293.726 215.04 293.726 214.384 293.849C213.361 291.052 211.116 285.475 209.177 284.956C204.596 283.779 202.153 288.47 205.482 297.011C204.318 297.819 203.288 298.804 202.428 299.93C199.577 299.794 196.732 300.288 194.093 301.376C191.454 302.464 189.087 304.119 187.159 306.225C184.1 309.522 182.408 313.859 182.426 318.358L174.959 334.906C174.959 334.906 160.713 339.765 157.324 358.147C157.324 358.147 122.953 427.778 111.211 458.353C104.936 474.672 128.832 513.514 159.736 482.48C174.593 467.567 186.64 455.312 194.397 447.336L194.626 447.092C195.267 446.435 195.893 445.808 196.458 445.197L203.894 437.557L204.016 437.435C204.016 437.435 199.619 494.46 198.916 506.852C198.382 516.616 207.818 517.15 207.818 517.15L207.177 529.038C207.177 529.038 202.245 540.559 217.377 543.6C212.399 568.507 207.284 617.708 233.195 654.976C233.195 654.976 224.034 658.796 223.484 665.397C222.797 673.388 232.844 671.631 232.844 671.631C232.844 671.631 192.305 719.84 174.822 779.493C175.713 782.029 176.78 784.5 178.013 786.888L169.188 803.085C170.438 806.878 172.211 810.478 174.455 813.781C172.532 818.885 171.096 822.873 171.005 823.148C170.319 824.083 169.697 825.063 169.142 826.081C167.905 822.72 152.346 828.358 140.131 835.372C132.771 839.589 126.587 844.295 125.427 847.825C122.373 857.344 149.14 875.604 153.69 880.127C172.532 898.83 172.913 914.919 189.556 932.446C199.298 942.698 204.367 949.024 211.88 950.094C214.643 950.491 225.011 940.483 225.011 940.483C244.097 932.171 234.172 916.142 230.706 912.276C217.148 897.24 207.269 870.118 208.475 863.793C209.681 857.467 222.736 847.779 217.636 842.156C215.835 840.418 213.5 839.341 211.009 839.1C211.788 837.74 212.414 836.686 212.826 836.044C213.758 836.136 214.689 836.227 215.666 836.289L221.942 820.489C226.046 821.088 230.198 821.293 234.34 821.1C234.34 821.1 251.136 742.989 296.47 700.388C329.695 669.171 276.162 632.239 290.759 590.082C296.225 592.806 301.428 596.029 306.303 599.708C340.063 625.134 353.759 667.063 353.759 667.063" stroke="white" stroke-linecap="round" stroke-linejoin="round"/>
<path d="M289.354 375.719C289.354 375.719 285.339 362.776 277.689 361.019C270.039 359.262 251.961 356.435 250.602 362.196C250.602 362.196 225.454 364.656 233.806 386.522C233.806 386.522 258.817 400.625 282.193 395.201C282.163 395.201 293.966 384.963 289.354 375.719Z" fill="#FF8ACB"/>
<path d="M255.671 381.877C247.349 375.765 252.388 364.564 266.833 365.94C278.849 367.07 286.682 372.877 289.904 379.692C289.904 379.692 284.926 387.332 279.491 389.746C274.055 392.16 259.213 384.474 255.671 381.877Z" fill="#010100"/>
<path d="M403.521 485.139C397.153 484.237 391.412 483.458 386.007 482.709H385.839C374.067 481.089 364.004 479.653 352.797 477.453C355.057 486.483 350.018 490.013 350.018 490.013L354.019 502.237C357.607 515.653 321.343 541.4 255.58 548.963C219.392 553.135 227.454 534.279 227.454 534.279L228.095 522.391C228.095 522.391 218.674 521.856 219.194 512.092C219.865 499.7 224.049 442.66 224.049 442.66L223.927 442.782L216.491 450.422C215.926 451.034 215.3 451.66 214.659 452.317L214.445 452.562C206.688 460.492 194.595 472.746 179.8 487.706C148.88 518.739 124.984 479.898 131.26 463.578C143.001 433.018 177.372 363.372 177.372 363.372C180.777 345.036 195.008 340.131 195.008 340.131L225.454 364.717L197.237 410.282C200.142 406.461 203.354 402.883 206.841 399.586C213.269 393.474 222.186 386.98 231.195 386.659C259.061 385.65 288.835 386.445 308.319 390.479C316.61 392.206 330.81 397.599 346.644 404.414C357.332 408.998 368.677 414.224 379.518 419.404C402.33 430.283 422.592 440.949 428.149 444.845C446.579 457.726 434.791 489.6 403.521 485.139Z" fill="#FF8ACB"/>
<path d="M322.595 496.858C322.595 496.858 328.031 505.461 329.588 513.666" stroke="white" stroke-linecap="round" stroke-linejoin="round"/>
<path d="M345.773 489.402C345.773 489.402 350.98 502.038 350.049 508.227" stroke="white" stroke-linecap="round" stroke-linejoin="round"/>
<path d="M299.279 504.957C299.279 504.957 303.02 516.203 304.639 523.751" stroke="white" stroke-linecap="round" stroke-linejoin="round"/>
<path d="M272.666 510.427C273.019 517.374 273.825 524.29 275.078 531.132" stroke="white" stroke-linecap="round" stroke-linejoin="round"/>
<path d="M240.967 515.194C240.967 515.194 240.967 526.318 241.639 532.843" stroke="white" stroke-linecap="round" stroke-linejoin="round"/>
<path d="M379.533 419.343C378.846 419.664 356.263 430.91 346.72 438.81L330.229 435.402C330.229 435.402 328.565 429.779 326.809 422.185C326.809 422.185 336.245 410.741 346.659 404.354C357.317 408.938 368.707 414.163 379.533 419.343Z" fill="white"/>
<path d="M326.748 422.185C326.748 422.185 336.826 431.353 339.437 437.373L330.184 435.402C328.313 431.218 327.152 426.751 326.748 422.185Z" fill="#010100"/>
<path d="M177.677 362.135C181.556 357.261 187.434 349.911 197.191 347.695" stroke="white" stroke-linecap="round" stroke-linejoin="round"/>
<path d="M203.192 354.571C196.353 357.481 190.462 362.244 186.182 368.323" stroke="white" stroke-linecap="round" stroke-linejoin="round"/>
<path d="M199.069 374.053C203.393 370.139 206.982 365.481 209.666 360.301" stroke="white" stroke-linecap="round" stroke-linejoin="round"/>
<path d="M219.881 364.396C219.881 364.396 216.277 374.175 212.536 378.591" stroke="white" stroke-linecap="round" stroke-linejoin="round"/>
<path d="M314.808 436.273C320.63 435.292 326.604 435.765 332.199 437.648" stroke="white" stroke-linecap="round" stroke-linejoin="round"/>
<path d="M318.228 448.787C318.228 448.787 327.832 447.046 335.284 450.514" stroke="white" stroke-linecap="round" stroke-linejoin="round"/>
<path d="M316.808 459.346C316.808 459.346 327.283 459.346 333.864 462.586" stroke="white" stroke-linecap="round" stroke-linejoin="round"/>
<path d="M311.097 390.8C318.732 392.786 325.13 401.221 325.343 418.625" stroke="#010100" stroke-linecap="round" stroke-linejoin="round"/>
<path d="M234.63 431.689L224.049 442.599L223.942 442.721L216.521 450.361L214.674 452.256L214.445 452.485C215.469 444.895 214.211 437.171 210.83 430.3C207.45 423.428 202.101 417.72 195.466 413.903L197.191 410.343C200.102 406.527 203.313 402.95 206.795 399.647C237.638 399.326 234.63 431.689 234.63 431.689Z" fill="white"/>
<path d="M194.992 340.055C194.992 340.055 174.608 347.695 177.357 373.243" stroke="#010100" stroke-linecap="round" stroke-linejoin="round"/>
<path d="M215.834 345.403C224.248 352.188 228.553 360.821 225.454 364.656C222.354 368.491 213.025 366.184 204.612 359.323C196.199 352.463 191.893 343.906 194.992 340.055C198.092 336.205 207.421 338.604 215.834 345.403Z" fill="#010100"/>
<path d="M316.915 466.42C316.231 466.625 315.509 466.662 314.808 466.527L314.319 466.42C310.059 465.259 305.158 458.903 302.577 450.361C301.362 446.596 300.759 442.659 300.791 438.703C300.928 433.63 302.501 429.886 305.295 429C309.25 427.777 314.457 432.667 317.877 440.383C318.556 441.905 319.143 443.466 319.633 445.059C322.839 455.388 321.618 464.938 316.915 466.42Z" fill="#010100"/>
<path d="M262.435 387.209C262.13 393.749 272.986 397.08 283.033 396.958C295.966 396.805 300.333 391.87 300.333 391.87C300.333 391.87 301.417 381.067 298.119 377.965C292.301 372.479 270.329 372.907 265.306 376.36C263.794 377.399 262.435 387.209 262.435 387.209Z" fill="#FF8ACB"/>
<path d="M266.451 392.466C265.452 391.919 264.618 391.115 264.036 390.137C263.453 389.159 263.143 388.043 263.138 386.904C263.336 385.62 264.97 378.179 264.97 378.179C265.596 375.52 269.23 374.894 270.848 374.726" stroke="#010100" stroke-linecap="round" stroke-linejoin="round"/>
<path d="M288.24 386.323C288.24 386.323 291.538 400.396 290.775 409.992C290.286 415.997 294.012 431.827 296.561 433.676L300.776 431.154C298.226 429.29 294.5 413.476 294.989 407.47C295.767 397.875 292.469 383.802 292.469 383.802L288.24 386.323Z" fill="white"/>
<path d="M271.963 395.629C275.575 396.576 279.3 397.023 283.033 396.958C295.966 396.805 300.333 391.87 300.333 391.87C300.333 391.87 301.417 381.067 298.119 377.965C295.905 375.871 291.37 374.649 286.301 374.114" stroke="#010100" stroke-linecap="round" stroke-linejoin="round"/>
<path d="M270.054 379.752C271.093 377.476 296.989 375.566 295.248 381.418C294.638 383.481 289.782 386.231 282.117 386.323C273.017 386.43 268.772 382.625 270.054 379.752Z" fill="#010100"/>
<path d="M197.191 410.343C197.191 410.343 175.692 454.778 173.753 460.019C171.814 465.26 174.501 467.108 176.944 466.497" stroke="#010100" stroke-linecap="round" stroke-linejoin="round"/>
<path d="M221.82 388.951C230.905 384.673 253.885 397.447 234.646 431.735" stroke="#010100" stroke-linecap="round" stroke-linejoin="round"/>
<path d="M224.049 442.676L234.63 431.766C234.63 431.766 232.814 448.024 222.889 458.674L224.049 442.676Z" fill="#010100"/>
<path d="M267.276 511.191C282.078 509.257 296.681 506.021 310.914 501.519C334.551 493.619 343.865 487.263 350.049 489.998" stroke="#010100" stroke-linecap="round" stroke-linejoin="round"/>
<path d="M228.111 522.346C228.111 522.346 233.714 514.706 246.22 514.706" stroke="#010100" stroke-linecap="round" stroke-linejoin="round"/>
<path d="M248.663 367.467C248.663 367.467 236.142 373.488 263.29 386.308C263.29 386.308 254.129 385.895 233.775 386.521C225.286 386.766 221.805 388.951 221.805 388.951" stroke="#010100" stroke-linecap="round" stroke-linejoin="round"/>
<path d="M309.952 434.47C309.952 434.47 301.112 464.816 281.231 485.215" stroke="#010100" stroke-linecap="round" stroke-linejoin="round"/>
<path d="M298.821 392.252L292.714 384.887C291.351 385.698 289.858 386.266 288.301 386.568L293.92 396.469C294.117 396.85 294.395 397.182 294.734 397.443C295.074 397.704 295.467 397.887 295.885 397.979C296.304 398.071 296.737 398.07 297.155 397.975C297.572 397.88 297.964 397.695 298.302 397.432C298.767 397.037 299.127 396.533 299.348 395.965C299.569 395.397 299.645 394.782 299.569 394.177C299.495 393.48 299.237 392.816 298.821 392.252ZM297.294 395.69C297.056 395.85 296.785 395.955 296.5 395.999C296.216 396.042 295.926 396.022 295.65 395.941C295.375 395.859 295.121 395.717 294.906 395.526C294.691 395.335 294.521 395.098 294.408 394.834L297.89 392.267C298.242 392.81 298.376 393.465 298.266 394.103C298.155 394.74 297.808 395.312 297.294 395.705V395.69Z" fill="#FCCB04"/>
<path d="M314.808 466.528C314.808 466.528 339.452 474.871 352.812 477.438" stroke="#010100" stroke-linecap="round" stroke-linejoin="round"/>
<path d="M305.295 429.855C305.295 429.855 324.656 424.37 334.047 440.383" stroke="#010100" stroke-linecap="round" stroke-linejoin="round"/>
<path d="M330.229 435.402C355.034 440.817 380.104 444.927 405.338 447.718" stroke="#010100" stroke-linecap="round" stroke-linejoin="round"/>
<path d="M393.504 443.043C399.141 440.946 405.151 440.041 411.155 440.384" stroke="#010100" stroke-linecap="round" stroke-linejoin="round"/>
<path d="M295.309 562.945C294.959 563.264 294.501 563.438 294.027 563.434C293.814 563.429 293.603 563.393 293.401 563.327C293.069 563.212 292.774 563.012 292.546 562.746C292.31 562.497 292.141 562.192 292.057 561.86C291.987 561.518 292.009 561.163 292.122 560.833C292.234 560.502 292.433 560.208 292.698 559.98C303.463 550.675 304.837 533.668 304.608 523.767C305.891 523.369 307.219 522.926 308.563 522.453C309.006 532.828 307.876 552.096 295.309 562.945Z" fill="#786662"/>
<path d="M290.011 565.557C289.844 565.558 289.679 565.516 289.532 565.436C289.385 565.356 289.261 565.24 289.171 565.099C289.034 564.878 288.988 564.611 289.046 564.356C289.103 564.102 289.257 563.88 289.477 563.739C290.841 562.856 292.128 561.859 293.324 560.759C293.512 560.576 293.764 560.474 294.027 560.474C294.289 560.474 294.541 560.576 294.729 560.759C294.821 560.85 294.894 560.959 294.944 561.078C294.993 561.197 295.019 561.325 295.019 561.455C295.019 561.584 294.993 561.712 294.944 561.831C294.894 561.951 294.821 562.059 294.729 562.15C293.432 563.355 292.032 564.444 290.545 565.405C290.386 565.507 290.2 565.56 290.011 565.557Z" fill="#786662"/>
<path d="M314.121 561.585C313.934 561.806 313.699 561.983 313.435 562.102C313.171 562.221 312.883 562.279 312.594 562.272H312.288C311.931 562.222 311.597 562.068 311.326 561.829C311.063 561.617 310.871 561.329 310.777 561.004C310.651 560.682 310.614 560.331 310.671 559.99C310.727 559.648 310.875 559.328 311.097 559.064C320.992 547.451 318.854 528.687 316.991 519.443C318.228 518.999 319.48 518.51 320.763 518.021C322.839 527.617 325.466 548.276 314.121 561.585Z" fill="#786662"/>
<path d="M309.128 564.916C308.986 564.917 308.846 564.888 308.717 564.83C308.588 564.772 308.473 564.686 308.38 564.58C308.209 564.382 308.124 564.126 308.141 563.866C308.158 563.605 308.277 563.362 308.471 563.189C309.694 562.116 310.819 560.934 311.83 559.659C311.906 559.554 312.002 559.465 312.112 559.398C312.222 559.33 312.345 559.285 312.473 559.265C312.601 559.245 312.731 559.251 312.857 559.282C312.982 559.313 313.101 559.368 313.205 559.445C313.31 559.523 313.399 559.62 313.467 559.731C313.535 559.843 313.58 559.967 313.6 560.096C313.62 560.225 313.614 560.357 313.583 560.484C313.552 560.611 313.496 560.731 313.418 560.836C312.317 562.219 311.096 563.503 309.769 564.671C309.594 564.831 309.365 564.919 309.128 564.916Z" fill="#786662"/>
<path d="M298.409 335.425C297.126 334.325 295.89 325.707 291.171 324.577C286.453 323.446 284.423 329.436 284.423 329.436C282.744 327.829 280.632 326.749 278.348 326.329C276.064 325.908 273.706 326.165 271.566 327.067C263.458 329.955 261.458 344.655 258.145 346.794C257.351 347.313 258.878 348.551 260.45 347.848C260.522 348.327 260.703 348.783 260.979 349.181C261.256 349.579 261.62 349.907 262.044 350.141C262.468 350.374 262.941 350.507 263.424 350.528C263.908 350.549 264.39 350.458 264.833 350.262C264.833 350.262 269.551 357.902 270.772 361.967L294.561 339.75C295.226 340.148 295.981 340.371 296.756 340.397C297.53 340.424 298.298 340.254 298.989 339.902C301.432 338.695 301.142 335.135 301.142 335.135C301.142 335.135 299.692 336.541 298.409 335.425Z" fill="#451D05"/>
<path d="M257.916 347.252C257.916 347.252 258.969 348.963 261.092 347.252" stroke="#010100" stroke-linecap="round" stroke-linejoin="round"/>
<path d="M272.574 362.944L271.688 383.328C271.688 383.328 273.872 386.552 282.178 386.842C287.66 387.041 294.317 384.871 294.073 382.503L292.057 363.051L272.574 362.944Z" fill="#FFDECD"/>
<path d="M279.842 372.617C279.842 372.617 276.513 372.617 278.62 377.797C280.727 382.977 288.499 383.511 293.752 380.135L292.805 371.196L279.842 372.617Z" fill="#010100"/>
<path d="M270.681 344.609C270.681 344.609 288.316 329.222 293.584 337.06C302.364 350.171 309.907 377.69 295.951 378.561C281.995 379.432 273.063 375.001 270.681 344.609Z" fill="#FFDECD"/>
<path d="M285.507 335.166C285.507 335.166 281.949 331.819 279.827 334.768C278.3 336.801 281.354 339.994 280.346 343.936C279.552 346.992 274.773 347.818 274.773 347.818C275.203 348.114 275.564 348.5 275.831 348.949C276.098 349.398 276.265 349.899 276.32 350.419C276.376 350.939 276.318 351.464 276.151 351.96C275.984 352.455 275.711 352.908 275.353 353.288L269.001 353.777C269.001 353.777 266.543 333.699 266.848 333.592C267.153 333.485 284.133 325.173 285.507 335.166Z" fill="#451D05"/>
<path d="M266.512 356.298C268.283 349.972 275.353 353.242 275.353 353.242L279.002 364.091C279.002 364.091 274.895 368.216 270.161 365.038C268.659 364.204 267.482 362.888 266.82 361.302C266.158 359.716 266.049 357.953 266.512 356.298Z" fill="#FFDECD"/>
<path d="M274.024 366.275C275.11 367.138 275.918 368.302 276.345 369.622C277.674 372.831 281.689 379.615 293.66 378.637" stroke="#010100" stroke-linecap="round" stroke-linejoin="round"/>
<path d="M286.698 351.699C287.034 352.906 286.82 354.006 286.24 354.159C285.659 354.312 284.926 353.471 284.606 352.264C284.285 351.057 284.484 349.972 285.064 349.819C285.644 349.666 286.377 350.507 286.698 351.699Z" fill="#010100"/>
<path d="M268.802 359.721C268.508 359.091 268.406 358.388 268.509 357.7C268.612 357.012 268.916 356.37 269.383 355.855C271.032 353.96 273.963 357.169 274.513 360.439C275.063 363.709 273.902 364.427 272.223 361.967C270.543 359.507 270.543 357.108 272.314 358.04" stroke="#010100" stroke-linecap="round" stroke-linejoin="round"/>
<path d="M281.079 348.811C280.193 347.802 281.384 345.464 283.72 344.868C284.41 344.758 285.116 344.887 285.722 345.235C286.327 345.583 286.796 346.127 287.049 346.778C287.217 347.695 281.888 349.712 281.079 348.811Z" fill="#451D05"/>
<path d="M297.707 347.741C298.027 348.933 297.829 350.033 297.249 350.186C296.668 350.338 295.935 349.498 295.615 348.306C295.294 347.114 295.493 345.999 296.073 345.846C296.653 345.693 297.386 346.534 297.707 347.741Z" fill="#010100"/>
<path d="M292.057 344.884C291.156 343.891 292.362 341.553 294.699 340.957C295.388 340.846 296.094 340.976 296.7 341.323C297.306 341.671 297.774 342.216 298.027 342.867C298.165 343.738 292.897 345.739 292.057 344.884Z" fill="#451D05"/>
<path d="M292.057 347.007C292.057 347.007 292.485 351.454 294.683 352.691C297.264 354.219 302.318 356.848 295.935 357.52" stroke="#010100" stroke-linecap="round" stroke-linejoin="round"/>
<path d="M285.507 335.166C285.507 335.166 281.949 331.819 279.827 334.768C278.3 336.801 281.354 339.994 280.346 343.936C279.552 346.992 274.773 347.817 274.773 347.817C275.203 348.114 275.564 348.499 275.831 348.949C276.098 349.398 276.265 349.899 276.32 350.419C276.376 350.939 276.318 351.464 276.151 351.959C275.984 352.455 275.711 352.908 275.353 353.288" stroke="#010100" stroke-linecap="round" stroke-linejoin="round"/>
<path d="M260.42 347.848C260.497 348.382 260.709 348.888 261.034 349.318C261.36 349.748 261.79 350.089 262.283 350.308C262.899 350.438 263.535 350.443 264.153 350.325C264.772 350.207 265.361 349.968 265.886 349.621C265.886 349.621 266.222 350.614 267.795 350.446C270.024 350.201 271.413 346.87 271.413 346.87" stroke="#010100" stroke-linecap="round" stroke-linejoin="round"/>
<path d="M285.507 335.166C285.507 335.166 286.331 331.269 288.561 331.178C291.126 331.055 290.087 336.006 293.935 336.373" stroke="#010100" stroke-linecap="round" stroke-linejoin="round"/>
<path d="M268.07 380.547C269.779 382.611 271.942 384.253 274.388 385.345C276.835 386.437 279.501 386.949 282.178 386.842C291.767 386.751 294.668 383.282 295.248 381.418" stroke="#010100" stroke-linecap="round" stroke-linejoin="round"/>
<path d="M285.949 362.227L300.15 363.495C300.15 363.495 300.745 372.464 294.973 372.51C288.24 372.556 285.949 362.227 285.949 362.227Z" fill="white"/>
<path d="M392.71 867.215C392.71 867.215 323.343 851.935 340.689 815.951C340.689 815.951 349.148 785.391 350.904 781.021L364.646 785.925L392.466 795.827L385.473 814.591C385.473 814.591 378.342 845.67 392.71 867.215Z" fill="#FF8ACB"/>
<path d="M383.304 799.234C356.63 807.058 340.689 815.951 340.689 815.951C340.689 815.951 349.148 785.391 350.904 781.021L364.646 785.925L383.304 799.234Z" fill="#010100"/>
<path d="M343.269 823.407C343.269 823.407 342.887 813.811 352.11 816.409" stroke="#010100" stroke-linecap="round" stroke-linejoin="round"/>
<path d="M244.082 819.679L233.699 840.353C233.699 840.353 221.988 859.27 217.59 874.687C217.59 874.687 173.524 852.47 191.343 828.328C191.557 827.717 198.718 807.914 202.718 799.525L232.508 815.049L244.082 819.679Z" fill="#FF8ACB"/>
<path d="M232.508 815.049C218.535 818.541 204.812 822.972 191.435 828.312C191.648 827.701 198.809 807.898 202.81 799.509L232.508 815.049Z" fill="#010100"/>
<path d="M194.733 834.898C194.733 834.898 195.618 825.333 204.413 829.122" stroke="#010100" stroke-linecap="round" stroke-linejoin="round"/>
<path d="M235.073 300.571C235.073 300.571 231.913 290.777 229.317 290.089C224.522 288.836 221.988 294.23 226.263 303.841L235.073 300.571Z" fill="#4E2812"/>
<path d="M250.632 312.184C243.969 319.527 235.36 324.826 225.805 327.464L218.476 347.695L215.3 356.496L212.491 364.274C209.674 362.935 207.029 361.263 204.612 359.292C201.428 356.778 198.682 353.752 196.489 350.338C193.908 346.152 193.191 342.286 194.962 340.024L202.459 323.491C202.441 318.993 204.133 314.656 207.192 311.359C209.12 309.253 211.487 307.597 214.126 306.509C216.765 305.422 219.61 304.928 222.461 305.064C222.461 305.064 226.614 298.952 236.524 298.86C236.249 297.247 236.371 295.592 236.879 294.037C237.387 292.483 238.266 291.075 239.44 289.937C243.456 286.239 245.456 290.823 245.456 290.823C245.456 290.823 249.319 288.179 251.564 291.449C253.808 294.719 250.037 296.308 250.037 301.397C250.037 301.397 260.313 294.307 263.779 300.22C265.825 303.475 253.793 308.914 250.632 312.184Z" fill="#FFDECD"/>
<path d="M222.507 305.156C224.262 303.164 226.429 301.578 228.857 300.507C231.285 299.436 233.917 298.905 236.57 298.952C245.074 298.753 242.998 307.906 230.157 313.208" stroke="#010100" stroke-linecap="round" stroke-linejoin="round"/>
<path d="M241.669 301.626C241.669 301.626 241.318 294.949 245.563 290.838" stroke="#010100" stroke-linecap="round" stroke-linejoin="round"/>
<path d="M240.326 305.874C240.326 305.874 242.479 303.933 250.083 301.412" stroke="#010100" stroke-linecap="round" stroke-linejoin="round"/>
<path d="M215.911 328.458C219.232 328.577 222.554 328.253 225.79 327.495" stroke="#010100" stroke-linecap="round" stroke-linejoin="round"/>
<path d="M215.3 356.527L212.49 364.304C209.674 362.966 207.029 361.293 204.612 359.323C201.427 356.809 198.682 353.783 196.489 350.369C196.489 350.369 209.162 358.636 215.3 356.527Z" fill="#DFA98D"/>
<path d="M145.735 853.005C142.681 862.524 169.447 880.784 174.013 885.307C192.839 904.009 193.221 920.099 209.864 937.625C219.621 947.878 224.675 954.204 232.187 955.274C234.951 955.671 245.334 945.663 245.334 945.663C264.405 937.35 254.495 921.322 251.029 917.456C237.455 902.42 227.576 875.298 228.782 868.972C229.989 862.646 243.044 852.959 237.944 847.336C232.249 841.01 213.437 845.609 213.437 845.609C213.437 845.609 193.954 850.468 189.511 831.399C188.656 827.747 172.837 833.446 160.408 840.567C153.109 844.769 146.895 849.475 145.735 853.005Z" fill="#FF5900"/>
<path d="M210.261 868.835C210.94 868.799 211.58 868.503 212.046 868.008C212.513 867.513 212.77 866.857 212.765 866.176C212.756 865.847 212.68 865.523 212.542 865.224C212.405 864.925 212.208 864.656 211.964 864.435C211.72 864.214 211.434 864.044 211.123 863.937C210.812 863.829 210.483 863.785 210.154 863.808C209.475 863.843 208.836 864.139 208.369 864.634C207.903 865.13 207.645 865.786 207.65 866.466C207.66 866.796 207.736 867.12 207.873 867.419C208.011 867.718 208.208 867.986 208.451 868.207C208.695 868.428 208.981 868.598 209.292 868.706C209.603 868.814 209.933 868.858 210.261 868.835Z" fill="#010100"/>
<path d="M211.269 881.303C211.937 881.205 212.538 880.846 212.942 880.305C213.345 879.763 213.518 879.084 213.422 878.415C213.31 877.753 212.94 877.163 212.393 876.773C211.846 876.383 211.168 876.227 210.506 876.337C209.84 876.439 209.241 876.799 208.838 877.34C208.435 877.88 208.261 878.557 208.353 879.225C208.465 879.888 208.835 880.478 209.381 880.868C209.928 881.257 210.607 881.414 211.269 881.303Z" fill="#010100"/>
<path d="M215.025 891.816C215.352 891.745 215.661 891.608 215.933 891.414C216.205 891.22 216.435 890.972 216.61 890.687C216.784 890.401 216.898 890.083 216.946 889.752C216.994 889.421 216.974 889.083 216.888 888.76C216.705 888.125 216.288 887.584 215.721 887.246C215.153 886.908 214.479 886.8 213.834 886.942C213.509 887.015 213.201 887.153 212.93 887.348C212.659 887.542 212.429 887.79 212.256 888.075C212.082 888.36 211.967 888.677 211.918 889.007C211.869 889.338 211.887 889.675 211.971 889.998C212.154 890.633 212.571 891.174 213.139 891.512C213.706 891.85 214.38 891.959 215.025 891.816Z" fill="#010100"/>
<path d="M221.957 902.328C222.23 902.154 222.462 901.924 222.639 901.653C222.815 901.381 222.931 901.075 222.978 900.755C223.026 900.435 223.005 900.108 222.915 899.797C222.826 899.486 222.671 899.197 222.461 898.951C222.022 898.418 221.406 898.059 220.725 897.942C220.044 897.824 219.344 897.954 218.751 898.31C218.475 898.481 218.239 898.709 218.06 898.98C217.881 899.251 217.763 899.557 217.713 899.878C217.664 900.199 217.685 900.527 217.774 900.839C217.864 901.152 218.02 901.441 218.232 901.687C218.67 902.227 219.289 902.59 219.974 902.708C220.659 902.826 221.364 902.691 221.957 902.328Z" fill="#010100"/>
<path d="M145.735 853.005C142.681 862.524 169.447 880.784 174.013 885.307C192.839 904.01 193.221 920.1 209.864 937.626C219.621 947.879 224.675 954.204 232.187 955.274C234.951 955.671 245.334 945.663 245.334 945.663C236.518 941.161 229.084 934.355 223.82 925.967C215.422 912.215 205.085 882.22 186.503 873.129C186.503 873.129 178.609 833.997 160.439 840.552C153.109 844.769 146.895 849.475 145.735 853.005Z" fill="white"/>
<path d="M241.837 948.872C232.864 944.255 225.276 937.337 219.85 928.824C211.467 915.072 201.13 885.078 182.548 875.986C182.548 875.986 162.424 863.242 155.797 843.378" stroke="#010100" stroke-linecap="round" stroke-linejoin="round"/>
<path d="M254.694 938.389C254.694 938.389 250.953 940.697 245.93 937.503C240.906 934.31 229.134 919.167 226.477 911.527C224.95 907.172 236.906 905.293 245.12 909.862" stroke="#010100" stroke-linecap="round" stroke-linejoin="round"/>
<path d="M213.468 845.609C213.468 845.609 220.491 847.871 213.865 859.514C208.368 869.171 215.697 891.755 230.829 907.57" stroke="#010100" stroke-linecap="round" stroke-linejoin="round"/>
<path d="M219.392 901.075C219.733 901.427 220.182 901.653 220.667 901.717C221.152 901.781 221.644 901.679 222.064 901.427C228.874 897.637 237.974 900.449 238.066 900.464C238.569 900.628 239.115 900.607 239.604 900.406C240.094 900.204 240.496 899.835 240.738 899.364C240.837 899.139 240.885 898.895 240.88 898.65C240.875 898.404 240.817 898.162 240.709 897.941C240.602 897.721 240.448 897.526 240.258 897.37C240.068 897.215 239.846 897.103 239.608 897.041C239.165 896.889 228.553 893.588 219.988 898.371C219.764 898.477 219.565 898.63 219.404 898.819C219.244 899.008 219.125 899.229 219.056 899.467C218.987 899.705 218.968 899.955 219.003 900.201C219.037 900.446 219.123 900.682 219.255 900.892C219.293 900.958 219.339 901.02 219.392 901.075Z" fill="white"/>
<path d="M213.346 890.379C213.618 890.657 213.961 890.856 214.337 890.955C214.713 891.055 215.109 891.051 215.483 890.945C221.187 889.302 227.233 889.276 232.951 890.868C233.452 891.048 234 891.043 234.498 890.856C234.995 890.668 235.41 890.31 235.669 889.845C235.78 889.625 235.841 889.383 235.848 889.137C235.855 888.892 235.808 888.647 235.711 888.421C235.613 888.195 235.467 887.993 235.283 887.83C235.099 887.667 234.882 887.546 234.646 887.476C228.051 885.577 221.055 885.577 214.46 887.476C214.208 887.52 213.967 887.614 213.752 887.754C213.537 887.893 213.353 888.075 213.21 888.288C213.067 888.5 212.969 888.74 212.921 888.992C212.874 889.244 212.878 889.503 212.933 889.753C213.022 889.99 213.163 890.204 213.346 890.379Z" fill="white"/>
<path d="M209.986 879.684C210.244 879.951 210.567 880.146 210.923 880.251C211.279 880.355 211.656 880.365 212.017 880.28C217.802 878.951 223.844 879.274 229.454 881.212C229.95 881.412 230.499 881.431 231.007 881.266C231.516 881.102 231.949 880.763 232.233 880.31C232.355 880.098 232.428 879.861 232.449 879.617C232.469 879.373 232.436 879.127 232.352 878.897C232.267 878.667 232.134 878.458 231.96 878.285C231.787 878.112 231.578 877.98 231.348 877.896C224.881 875.66 217.914 875.305 211.254 876.872C211.002 876.911 210.761 877 210.543 877.132C210.325 877.265 210.136 877.439 209.986 877.645C209.836 877.85 209.727 878.084 209.667 878.331C209.607 878.579 209.596 878.836 209.635 879.088C209.708 879.31 209.828 879.513 209.986 879.684Z" fill="white"/>
<path d="M209.269 867.46C209.481 867.693 209.745 867.872 210.039 867.984C210.334 868.095 210.651 868.136 210.964 868.102C216.804 867.502 222.694 868.6 227.927 871.264C228.389 871.53 228.929 871.625 229.454 871.533C229.978 871.441 230.454 871.167 230.798 870.76C230.959 870.576 231.077 870.358 231.143 870.122C231.21 869.887 231.223 869.639 231.182 869.398C231.141 869.157 231.047 868.928 230.907 868.727C230.766 868.527 230.583 868.36 230.37 868.239C224.374 865.081 217.584 863.753 210.841 864.419C210.325 864.431 209.833 864.64 209.467 865.004C209.1 865.368 208.887 865.858 208.872 866.375C208.857 866.775 209 867.164 209.269 867.46Z" fill="white"/>
<path d="M225.393 868.346C225.325 868.137 225.314 867.915 225.359 867.7C225.405 867.486 225.506 867.287 225.652 867.124C239.089 851.293 249.09 853.555 251.823 854.625C253.709 855.226 255.293 856.526 256.25 858.26C257.207 859.993 257.464 862.028 256.969 863.945C256.632 865.122 256.049 866.214 255.26 867.149C254.47 868.084 253.491 868.841 252.388 869.37C243.883 873.786 227.118 869.37 226.431 869.217C226.298 869.182 226.17 869.131 226.049 869.064C225.75 868.913 225.517 868.657 225.393 868.346ZM250.48 857.13C246.143 855.434 238.448 857.253 229.5 867.093C234.081 868.086 245.181 869.996 250.877 867.017C251.615 866.671 252.27 866.17 252.797 865.547C253.324 864.925 253.711 864.196 253.93 863.411C254.233 862.289 254.142 861.097 253.672 860.035C253.203 858.973 252.383 858.104 251.35 857.574C251.069 857.409 250.778 857.261 250.48 857.13Z" fill="white"/>
<path d="M223.347 867.979C216.659 859.621 215.56 843.638 221.255 837.419C222.437 836.162 223.983 835.307 225.676 834.976C227.369 834.644 229.123 834.852 230.691 835.57C232.046 835.992 233.277 836.738 234.278 837.745C235.279 838.752 236.018 839.988 236.432 841.346C239.257 850.927 226.416 867.2 225.866 867.887C225.711 868.074 225.517 868.225 225.299 868.331C225.08 868.436 224.841 868.493 224.599 868.498C224.269 868.507 223.945 868.417 223.667 868.239C223.546 868.172 223.437 868.084 223.347 867.979ZM229.454 838.122C228.516 837.628 227.441 837.459 226.397 837.641C225.352 837.824 224.398 838.347 223.683 839.13C219.621 843.531 219.636 856.519 224.767 864.648C227.927 860.293 235.455 848.879 233.516 842.171C233.133 840.829 232.268 839.676 231.088 838.932C230.574 838.604 230.026 838.333 229.454 838.122Z" fill="white"/>
<path d="M186.503 873.129C186.503 873.129 165.599 856.764 160.439 840.552" stroke="#010100" stroke-linecap="round" stroke-linejoin="round"/>
<path d="M226.401 864.083C226.85 863.893 227.347 863.845 227.824 863.947C228.301 864.048 228.735 864.294 229.068 864.651C229.401 865.007 229.617 865.458 229.686 865.941C229.755 866.424 229.674 866.917 229.454 867.353C228.309 869.66 225.164 869.003 225.164 869.003C225.164 869.003 228.828 866.222 224.828 864.648" stroke="#010100" stroke-linecap="round" stroke-linejoin="round"/>
<path d="M228.538 864.296C228.538 864.296 228.874 863.823 229.317 863.15" stroke="#010100" stroke-linecap="round" stroke-linejoin="round"/>
<path d="M284.667 418.228C284.667 418.228 282.041 404.063 285.614 396.194C288.041 390.831 268.818 393.291 270.131 411.81C270.131 411.856 276.926 418.06 284.667 418.228Z" fill="#FFDECD"/>
<path d="M316.915 466.421C316.231 466.625 315.509 466.662 314.808 466.528L314.319 466.421L309.952 465.489L288.912 460.905C288.912 460.905 259.305 465.687 262.344 432.621C262.649 429.321 251.945 429.321 249.976 427.044C245.945 422.368 252.663 420.84 252.663 420.84C252.663 420.84 247.182 419.114 247.685 415.416C248.22 411.458 254.129 412.36 254.633 412.36C248.754 410.312 250.8 403.192 255.076 404.353C259.351 405.515 279.277 406.172 282.941 411.565C286.606 416.959 287.415 431.582 293.263 436.518L317.877 440.277C318.556 441.798 319.143 443.36 319.633 444.952C322.839 455.388 321.618 464.938 316.915 466.421Z" fill="#FFDECD"/>
<path d="M270.07 406.615C270.07 406.615 283.109 406.615 285.339 417.219" stroke="#010100" stroke-linecap="round" stroke-linejoin="round"/>
<path d="M316.915 466.421C316.231 466.625 315.509 466.662 314.808 466.528L314.319 466.421L309.952 465.489C317.587 460.783 317.877 440.384 317.877 440.384C318.556 441.905 319.143 443.467 319.633 445.059C322.839 455.389 321.618 464.939 316.915 466.421Z" fill="#4E2812"/>
<path d="M292.286 435.402C293.346 436.835 294.32 438.33 295.203 439.879" stroke="#010100" stroke-linecap="round" stroke-linejoin="round"/>
<path d="M252.663 420.901C254.19 420.581 262.619 421.161 264.634 422.185" stroke="#010100" stroke-linecap="round" stroke-linejoin="round"/>
<path d="M254.679 412.482C254.679 412.482 261.794 411.779 265.886 413.598" stroke="#010100" stroke-linecap="round" stroke-linejoin="round"/>
<path d="M288.912 461.011C290.644 460.505 292.29 459.742 293.798 458.75" stroke="#010100" stroke-linecap="round" stroke-linejoin="round"/>
<path d="M376.036 849.124C376.036 849.124 375.899 848.574 375.67 847.794" stroke="#3F2621" stroke-linecap="round" stroke-linejoin="round"/>
<path d="M300.898 855.48C300.104 865.473 330.474 876.872 336.016 880.203C358.721 893.955 362.875 909.495 383.182 922.605C395.062 930.245 401.505 935.226 409.017 934.493C411.812 934.233 415.43 928.029 415.43 928.029C435.28 908.486 414.117 889.218 409.857 886.254C394.39 875.558 391.366 861.806 390.878 855.419C389.58 837.954 390.114 829.886 384.969 826.616C381.289 824.293 367.7 822.689 360.538 824.966C353.606 827.136 357.347 834.623 357.347 834.623C357.347 834.623 343.605 837.954 338.49 824.156C337.177 820.642 322.763 830.069 312.365 839.91C306.089 845.747 301.218 851.767 300.898 855.48Z" fill="#FF5900"/>
<path d="M300.898 855.48C300.104 865.473 330.474 876.872 336.016 880.203C358.721 893.955 362.065 907.936 379.731 924.515C383.544 928.286 388.157 931.149 393.227 932.889C398.297 934.63 403.695 935.204 409.017 934.569C411.812 934.309 415.43 928.106 415.43 928.106C415.43 928.106 394.802 921.795 384.312 910.029C370.57 894.597 358.187 872.991 345.3 865.504C345.3 865.504 328.412 829.336 312.304 839.986C306.089 845.747 301.218 851.767 300.898 855.48Z" fill="white"/>
<path d="M345.254 865.427C345.254 865.427 321.068 854.502 312.258 839.956" stroke="#010100" stroke-linecap="round" stroke-linejoin="round"/>
<path d="M357.24 834.623C360.049 838.628 361.793 843.281 362.31 848.146C363.455 856.81 376.235 885.857 384.923 894.521" stroke="#010100" stroke-linecap="round" stroke-linejoin="round"/>
<path d="M390.832 855.419C390.832 855.419 390.832 872.594 405.872 887.293" stroke="#010100" stroke-linecap="round" stroke-linejoin="round"/>
<path d="M409.811 886.254C409.811 886.254 389.794 891.189 381.487 896.369C381.487 896.369 393.962 913.498 401.933 917.058C409.903 920.619 417.675 922.513 422.622 917.058" stroke="#010100" stroke-linecap="round" stroke-linejoin="round"/>
<path d="M363.608 858.964C364.259 858.768 364.81 858.329 365.145 857.737C365.481 857.145 365.576 856.446 365.409 855.786C365.323 855.472 365.175 855.179 364.974 854.923C364.773 854.668 364.523 854.456 364.238 854.299C363.953 854.142 363.64 854.044 363.316 854.011C362.993 853.978 362.666 854.01 362.355 854.105C361.706 854.304 361.158 854.744 360.823 855.335C360.487 855.926 360.391 856.623 360.554 857.283C360.641 857.596 360.79 857.888 360.992 858.142C361.194 858.396 361.444 858.608 361.728 858.764C362.013 858.921 362.325 859.019 362.648 859.053C362.971 859.088 363.297 859.057 363.608 858.964Z" fill="#010100"/>
<path d="M367.119 871.157C367.741 870.902 368.237 870.414 368.503 869.797C368.768 869.18 368.781 868.483 368.539 867.857C368.274 867.239 367.775 866.751 367.151 866.499C366.528 866.247 365.831 866.252 365.211 866.512C364.588 866.77 364.092 867.261 363.826 867.881C363.561 868.5 363.548 869.199 363.791 869.828C363.92 870.135 364.11 870.414 364.348 870.647C364.586 870.881 364.868 871.065 365.178 871.188C365.487 871.312 365.818 871.373 366.152 871.367C366.485 871.362 366.814 871.291 367.119 871.157Z" fill="#010100"/>
<path d="M371.7 880.692C371.996 880.543 372.26 880.337 372.476 880.085C372.691 879.833 372.854 879.54 372.955 879.224C373.056 878.908 373.093 878.575 373.064 878.245C373.034 877.914 372.939 877.593 372.784 877.3C372.455 876.709 371.908 876.271 371.26 876.079C370.612 875.888 369.915 875.958 369.318 876.276C369.021 876.422 368.756 876.626 368.539 876.876C368.322 877.126 368.158 877.417 368.055 877.732C367.953 878.047 367.914 878.379 367.942 878.709C367.97 879.039 368.064 879.36 368.219 879.653C368.551 880.244 369.1 880.684 369.749 880.878C370.399 881.071 371.099 881.005 371.7 880.692Z" fill="#010100"/>
<path d="M377.976 890.7C378.198 890.467 378.369 890.189 378.475 889.885C378.581 889.58 378.622 889.256 378.593 888.935C378.564 888.614 378.466 888.302 378.307 888.022C378.148 887.741 377.931 887.498 377.67 887.308C377.117 886.888 376.432 886.682 375.739 886.727C375.046 886.772 374.393 887.065 373.899 887.553C373.674 887.785 373.501 888.063 373.393 888.368C373.285 888.672 373.245 888.997 373.274 889.319C373.303 889.641 373.401 889.953 373.561 890.234C373.722 890.514 373.941 890.757 374.204 890.945C374.757 891.365 375.443 891.571 376.135 891.526C376.828 891.482 377.481 891.188 377.976 890.7Z" fill="#010100"/>
<path d="M363.607 858.506C363.22 858.504 362.841 858.389 362.518 858.174C362.196 857.96 361.943 857.655 361.79 857.299C361.69 857.06 361.638 856.804 361.636 856.545C361.635 856.285 361.685 856.029 361.782 855.789C361.88 855.549 362.024 855.331 362.207 855.147C362.389 854.963 362.605 854.816 362.844 854.716C363.455 854.457 378.113 848.375 391.122 852.577C391.618 852.738 392.029 853.089 392.267 853.553C392.504 854.017 392.548 854.556 392.39 855.052C392.313 855.3 392.188 855.531 392.022 855.73C391.856 855.929 391.652 856.093 391.421 856.213C391.191 856.332 390.94 856.405 390.681 856.426C390.423 856.447 390.162 856.416 389.916 856.336C378.281 852.592 364.508 858.292 364.371 858.353C364.13 858.456 363.87 858.508 363.607 858.506Z" fill="white"/>
<path d="M366.356 870.286C365.948 870.285 365.551 870.159 365.217 869.923C364.884 869.688 364.631 869.356 364.493 868.972C364.322 868.476 364.355 867.932 364.584 867.459C364.813 866.987 365.219 866.624 365.715 866.451C366.31 866.237 380.525 861.332 393.306 863.395C393.822 863.474 394.286 863.755 394.595 864.176C394.904 864.598 395.034 865.124 394.955 865.641C394.876 866.158 394.595 866.622 394.174 866.931C393.753 867.241 393.226 867.37 392.71 867.291C380.907 865.458 367.15 870.21 367.012 870.256C366.797 870.303 366.575 870.313 366.356 870.286Z" fill="white"/>
<path d="M371.074 880.372C370.708 880.369 370.35 880.265 370.04 880.071C369.73 879.877 369.48 879.6 369.318 879.271C369.203 879.04 369.134 878.787 369.116 878.529C369.098 878.271 369.131 878.011 369.214 877.766C369.296 877.521 369.426 877.294 369.595 877.098C369.765 876.903 369.972 876.743 370.204 876.628C370.753 876.353 383.946 869.859 395.81 871.677C396.326 871.756 396.79 872.037 397.099 872.459C397.408 872.88 397.538 873.407 397.459 873.923C397.422 874.18 397.334 874.427 397.2 874.649C397.067 874.872 396.891 875.065 396.682 875.219C396.473 875.372 396.236 875.483 395.984 875.544C395.732 875.605 395.47 875.615 395.214 875.574C384.526 873.954 372.082 880.158 371.96 880.158C371.684 880.295 371.381 880.368 371.074 880.372Z" fill="white"/>
<path d="M376.281 890.746C376.013 890.747 375.747 890.693 375.501 890.588C375.254 890.483 375.031 890.329 374.845 890.135C374.488 889.756 374.295 889.25 374.31 888.729C374.324 888.208 374.544 887.713 374.922 887.354C375.304 886.988 384.373 878.599 401.826 879.225C402.35 879.245 402.844 879.472 403.202 879.855C403.559 880.239 403.751 880.748 403.734 881.273C403.729 881.533 403.671 881.789 403.564 882.027C403.457 882.264 403.304 882.477 403.113 882.654C402.922 882.831 402.697 882.968 402.453 883.056C402.208 883.144 401.948 883.182 401.688 883.168C385.961 882.617 377.716 890.15 377.64 890.227C377.268 890.565 376.783 890.75 376.281 890.746Z" fill="white"/>
<path d="M377.044 854.12C376.842 854.035 376.665 853.899 376.531 853.725C376.397 853.551 376.311 853.345 376.281 853.127C372.891 832.637 381.075 826.463 383.656 825.073C385.332 824.016 387.349 823.643 389.291 824.03C391.234 824.416 392.955 825.533 394.1 827.151C394.775 828.175 395.227 829.331 395.424 830.543C395.622 831.754 395.561 832.994 395.245 834.18C393.122 843.531 378.938 853.509 378.342 853.937C378.226 854.01 378.104 854.072 377.976 854.12C377.676 854.234 377.344 854.234 377.044 854.12ZM384.679 827.716C380.587 829.932 377.044 836.976 378.724 850.178C382.48 847.275 391.061 840.078 392.466 833.798C392.68 833.004 392.722 832.174 392.591 831.362C392.459 830.551 392.156 829.777 391.702 829.092C391.041 828.141 390.075 827.444 388.964 827.119C387.853 826.794 386.664 826.859 385.595 827.304C385.284 827.423 384.983 827.566 384.694 827.732L384.679 827.716Z" fill="white"/>
<path d="M375.471 855.419C364.783 855.129 351.866 845.64 350.827 837.297C350.627 835.581 350.972 833.845 351.814 832.337C352.655 830.828 353.95 829.623 355.515 828.893C356.712 828.133 358.075 827.677 359.488 827.562C360.9 827.448 362.319 827.679 363.623 828.236C372.784 832.27 376.876 852.592 377.044 853.448C377.085 853.689 377.075 853.936 377.015 854.173C376.954 854.41 376.845 854.631 376.693 854.823C376.488 855.077 376.211 855.263 375.899 855.358C375.761 855.401 375.616 855.421 375.471 855.419ZM356.599 831.521C355.602 831.907 354.761 832.613 354.209 833.528C353.656 834.443 353.423 835.516 353.545 836.579C354.293 842.538 364.233 850.911 373.715 852.241C372.433 847.015 368.616 833.905 362.218 831.047C360.952 830.465 359.514 830.377 358.187 830.803C357.631 830.979 357.098 831.22 356.599 831.521Z" fill="white"/>
<path d="M374.403 850.652C374.553 850.194 374.839 849.792 375.223 849.5C375.606 849.208 376.069 849.039 376.551 849.016C377.032 848.993 377.509 849.116 377.919 849.37C378.329 849.624 378.652 849.996 378.846 850.438C379.854 852.806 377.319 854.777 377.319 854.777C377.319 854.777 377.563 850.193 373.792 852.226" stroke="#010100" stroke-linecap="round" stroke-linejoin="round"/>
<path d="M306.685 845.655C306.685 845.655 319.953 862.876 336.169 869.645C352.385 876.414 361.867 890.426 376.433 910.504C384.923 922.193 407.643 932.598 413.568 930.704" stroke="#010100" stroke-linecap="round" stroke-linejoin="round"/>
<path d="M203.909 781.892L189.541 808.25C189.541 808.25 198.321 839.207 236.005 841.468L248.296 810.542L203.909 781.892Z" fill="#005CFF"/>
<path d="M345.651 766.321L336.337 794.864C336.337 794.864 350.614 823.713 388.084 819.068L394.527 786.43L345.651 766.321Z" fill="#005CFF"/>
<path d="M446.365 691.037C410.804 735.349 405.292 802.367 405.292 802.367C358.508 806.523 333.864 771.669 333.864 771.669C342.872 740.437 379.533 685.826 379.533 685.826C379.533 685.826 365.791 683.702 374.113 672.288C374.113 672.288 360.37 630.36 326.641 604.934C321.769 601.258 316.571 598.036 311.113 595.307C296.5 637.465 350.049 674.397 316.808 705.614C271.459 748.199 254.679 826.326 254.679 826.326C209.07 828.419 195.13 784.703 195.13 784.703C212.536 725.111 253.075 676.841 253.075 676.841C253.075 676.841 243.044 678.599 243.716 670.607C244.296 664.006 253.427 660.186 253.427 660.186C217.315 608.127 241.669 532.827 241.669 532.827C254.434 532.827 279.842 536.204 334.81 512.199C337.698 510.896 340.679 509.808 343.727 508.945C372.57 537.06 379.594 555.747 379.594 555.747C455.725 645.242 462.871 670.454 446.365 691.037Z" fill="#005CFF"/>
<path d="M300.867 524.958C300.867 524.958 318.228 546.35 321.419 580.226" stroke="white" stroke-linecap="round" stroke-linejoin="round"/>
<path d="M319.419 518.51C319.419 518.51 334.047 540.422 333.864 568.476" stroke="white" stroke-linecap="round" stroke-linejoin="round"/>
<path d="M321.419 580.196C321.419 580.196 369.776 605.683 384.755 661.867C384.755 661.867 374.83 680.203 392.496 686.315C392.496 686.315 351.82 738.619 348.98 786.629" stroke="white" stroke-linecap="round" stroke-linejoin="round"/>
<path d="M251.655 533.026C251.655 533.026 230.279 609.289 260.114 656.061C260.114 656.061 251.762 669.309 264.588 677.04C264.588 677.04 210.857 753.44 207.91 806.355" stroke="white" stroke-linecap="round" stroke-linejoin="round"/>
<path d="M202.734 799.494L192.335 814.759" stroke="#010100" stroke-linecap="round" stroke-linejoin="round"/>
<path d="M210.887 809.563L199.573 826.356" stroke="#010100" stroke-linecap="round" stroke-linejoin="round"/>
<path d="M220.72 817.586L210.887 834.241" stroke="#010100" stroke-linecap="round" stroke-linejoin="round"/>
<path d="M232.432 823.239L225.332 839.94" stroke="#010100" stroke-linecap="round" stroke-linejoin="round"/>
<path d="M198.367 792.068C198.367 792.068 210.811 820.917 242.28 825.684" stroke="#010100" stroke-linecap="round" stroke-linejoin="round"/>
<path d="M340.689 779.309C340.689 779.309 362.065 802.565 391.214 802.458" stroke="#010100" stroke-linecap="round" stroke-linejoin="round"/>
<path d="M358.584 793.092L351.102 810.908" stroke="#010100" stroke-linecap="round" stroke-linejoin="round"/>
<path d="M371.074 798.898L365.302 817.571" stroke="#010100" stroke-linecap="round" stroke-linejoin="round"/>
<path d="M384.923 802.122L381.487 819.541" stroke="#010100" stroke-linecap="round" stroke-linejoin="round"/>
<path d="M347.346 785.36L341.269 802" stroke="#010100" stroke-linecap="round" stroke-linejoin="round"/>
<path d="M383.457 686.346C383.457 686.346 374.876 686.606 371.547 680.096C368.219 673.587 384.755 661.898 384.755 661.898C392.817 653.57 399.093 624.217 386.083 621.834C376.311 620.046 377.227 643.424 381.381 657.726" stroke="#010100" stroke-linecap="round" stroke-linejoin="round"/>
<path d="M264.573 653.219C264.573 653.219 243.838 665.779 243.761 670.577C243.67 677.01 251.915 677.239 256.328 676.979" stroke="#010100" stroke-linecap="round" stroke-linejoin="round"/>
<path d="M312.762 594.528C318.545 582.178 327.799 571.782 339.391 564.61" stroke="#010100" stroke-linecap="round" stroke-linejoin="round"/>
<path d="M262.848 677.04C263.411 676.918 263.995 676.93 264.553 677.075C265.111 677.221 265.626 677.497 266.058 677.879C266.489 678.262 266.824 678.741 267.036 679.277C267.247 679.814 267.33 680.393 267.276 680.967C267.276 687.079 269.612 716.692 276.361 737.855" stroke="#010100" stroke-linecap="round" stroke-linejoin="round"/>
<path d="M326.641 604.919C321.769 601.243 316.571 598.021 311.113 595.292C315.493 587.096 321.211 579.691 328.031 573.381C328.031 573.381 322.076 593.474 326.641 604.919Z" fill="#010100"/>
<path d="M379.533 555.748C382.193 561.49 384.543 567.371 386.572 573.365" stroke="#010100" stroke-linecap="round" stroke-linejoin="round"/>
<path d="M232.248 542.821C232.248 542.821 227.5 536.892 234.264 533.851C243.715 529.619 266.329 542.133 334.734 512.215C352.369 504.575 352.217 510.336 352.217 510.336" stroke="#010100" stroke-linecap="round" stroke-linejoin="round"/>
<path d="M326.351 676.46C178.151 626.234 20.1015 567.605 25.5525 459.942C29.8889 374.71 107.074 313.544 171.066 277.239C197.701 262.289 225.325 249.179 253.747 238H193.129C182.12 243.409 170.806 249.292 159.446 255.725C115.731 280.478 80.4139 307.921 54.4719 337.32C21.2772 374.894 3.35142 415.752 1.16796 458.735C-1.88583 518.327 34.2406 569.087 111.547 613.98C170.608 648.299 244.891 674.672 318.518 699.624L325.802 702.099C330.871 703.826 335.925 705.507 340.979 707.234L348.781 684.069L326.351 676.46Z" fill="black"/>
<path d="M421.843 806.966L411.155 828.969C402.584 824.793 394.588 821.227 387.168 818.273C387.129 818.236 387.082 818.21 387.03 818.197C385.946 817.769 384.862 817.326 383.793 816.929C350.522 804.124 328.489 803.559 312.899 814.652C312.319 815.049 311.739 815.492 311.174 815.935C256.954 858.842 294.844 948.72 323 1000L289.5 988.5C259.084 929.596 231.791 847.58 296.027 796.774C297.249 795.796 298.485 794.88 299.753 794.024C300.531 793.489 301.28 792.97 302.119 792.496C303.448 791.686 304.791 790.968 306.135 790.189C306.944 789.776 307.769 789.348 308.578 788.966L308.945 788.783C309.739 788.431 310.472 788.08 311.311 787.759C311.404 787.708 311.501 787.668 311.601 787.637C311.998 787.484 312.38 787.301 312.762 787.163C313.144 787.026 313.724 786.781 314.212 786.613L316.701 785.757C316.842 785.731 316.981 785.69 317.114 785.635C317.48 785.513 317.846 785.406 318.213 785.314C319.129 785.024 320.06 784.795 320.992 784.566C322.381 784.214 323.786 783.924 325.206 783.664C325.67 783.559 326.139 783.477 326.611 783.42C327.603 783.236 328.596 783.099 329.573 782.976C330.55 782.854 331.253 782.793 332.108 782.717C332.963 782.64 334.108 782.549 335.161 782.518C360.432 781.173 388.175 791.212 414.255 803.391C416.835 804.537 419.355 805.744 421.843 806.966Z" fill="black"/>
<path d="M226.158 20.0992L220.895 44.9029C230.566 46.9421 239.376 49.1151 247.327 51.422C247.382 51.4162 247.438 51.4248 247.488 51.447C248.648 51.7871 249.816 52.1146 250.944 52.47C286.312 63.1734 304.697 76.736 310.389 95.7346C310.611 96.4289 310.803 97.1607 310.983 97.8829C328.028 167.497 237.668 217.878 181.993 241.906L204.777 259.634C295.5 224.5 355.781 174.302 335.572 91.8494C335.195 90.2718 334.767 88.7346 334.274 87.2278C333.978 86.2946 333.696 85.3934 333.311 84.4713C332.74 82.9632 332.098 81.5204 331.495 80.0276C331.095 79.175 330.693 78.3001 330.274 77.4725L330.091 77.0892C329.665 76.2963 329.289 75.5423 328.807 74.7452C328.763 74.6451 328.71 74.5497 328.647 74.4606C328.419 74.0829 328.224 73.6899 327.999 73.3344C327.774 72.9789 327.455 72.4096 327.163 71.961L325.671 69.6768C325.573 69.5651 325.486 69.4437 325.412 69.3144C325.19 68.9811 324.958 68.6603 324.717 68.352C324.152 67.5314 323.536 66.751 322.92 65.9706C322.007 64.7987 321.043 63.667 320.046 62.5506C319.734 62.1694 319.402 61.8042 319.053 61.4564C318.358 60.6746 317.633 59.9303 316.912 59.2083C316.19 58.4863 315.654 57.9892 315.003 57.3824C314.353 56.7756 313.474 55.9717 312.632 55.276C292.815 38.0905 263.728 28.6429 234.642 22.0048C231.801 21.2997 228.972 20.6835 226.158 20.0992Z" fill="black"/>
</svg>
