<svg width="423" height="553" viewBox="0 0 423 553" fill="none" xmlns="http://www.w3.org/2000/svg">
<g clip-path="url(#clip0_2017_1192)">
<path d="M128.638 431.073C152.112 392.688 195.482 429.286 265.256 458.717C331.471 486.647 439.628 470.783 424.002 507.829C408.376 544.875 234.126 572.844 170.224 531.589C103.217 480.235 118.397 451.509 128.638 431.073Z" fill="#007FFF"/>
<path d="M420.968 440.796C417.435 452.266 411.12 459.952 402.199 463.668C397.968 465.383 393.438 466.236 388.873 466.179C370.182 466.179 347.173 454.013 321.338 440.431C307.592 433.198 293.118 425.567 279.284 420.015C279.256 419.988 279.222 419.969 279.185 419.959L276.844 419.041C275.475 418.51 274.128 418.024 272.803 417.548L271.909 417.239C270.959 416.896 270.021 416.586 269.093 416.287C252.985 411.045 238.268 409.651 227.249 416.287C226.686 416.63 226.145 416.984 225.582 417.393C225.019 417.803 224.743 418.002 224.335 418.322C185.129 449.379 212.472 514.435 232.831 551.552L220.9 547.933L208.608 543.228C186.615 500.592 166.934 441.228 213.382 404.453C214.266 403.745 215.16 403.082 216.076 402.462C216.639 402.075 217.18 401.699 217.788 401.356C218.748 400.77 219.72 400.25 220.691 399.686C221.276 399.388 221.873 399.078 222.458 398.802L222.723 398.669C223.297 398.414 223.827 398.16 224.434 397.928C224.501 397.891 224.571 397.861 224.644 397.839C224.931 397.729 225.207 397.596 225.483 397.496C225.759 397.397 226.178 397.22 226.532 397.098L228.331 396.479C228.434 396.46 228.533 396.43 228.63 396.39C228.894 396.302 229.159 396.225 229.424 396.158C230.087 395.948 230.76 395.782 231.434 395.616C232.439 395.362 233.454 395.152 234.481 394.964C234.816 394.888 235.155 394.829 235.497 394.787C236.214 394.654 236.932 394.554 237.639 394.466L239.471 394.278C240.189 394.278 240.918 394.156 241.68 394.134C259.433 393.227 279.218 400.096 298.87 409.242C300.692 410.083 302.513 410.956 304.335 411.841C312.859 415.978 321.327 420.435 329.574 424.781C351.755 436.461 374.576 448.505 388.818 448.505C391.082 448.559 393.334 448.16 395.443 447.333C396.878 446.747 401.25 444.922 404.12 435.598C406.914 426.562 407.366 412.372 379.246 394.046C355.762 378.705 318.854 364.847 285.842 353.312C273.002 348.81 259.919 344.397 246.096 339.708L245.897 339.653C242.243 338.403 238.588 337.186 234.923 335.936C233.167 335.35 231.412 334.764 229.656 334.156L235.32 317.4L251.539 322.93H251.738C265.638 327.63 278.765 332.077 291.705 336.6C327.421 349.076 363.922 362.89 388.929 379.214C417.082 397.651 427.891 418.367 420.968 440.796Z" fill="black"/>
<path d="M170.316 514.539C172.265 507.596 155.718 496.86 133.357 490.56C110.996 484.26 91.2887 484.781 89.3394 491.724C87.3901 498.667 103.937 509.403 126.298 515.703C148.659 522.003 168.367 521.482 170.316 514.539Z" fill="#010100"/>
<path d="M298.229 500.735C300.163 493.767 283.539 483.051 261.098 476.799C238.656 470.548 218.896 471.129 216.962 478.097C215.028 485.064 231.652 495.781 254.093 502.032C276.534 508.283 296.295 507.702 298.229 500.735Z" fill="#010100"/>
<path d="M257.291 210.594C260.283 207.276 261.52 204.223 260.857 201.746L257.965 192.898C257.965 192.898 261.597 190.343 259.974 183.806C268.806 186.018 287.211 187.345 292.334 187.345C303.518 187.345 313.698 165.568 300.383 156.189C296.364 153.369 281.713 145.649 265.218 137.774C257.379 134.025 249.154 130.254 241.448 126.925C229.999 121.992 219.731 118.077 213.736 116.838C211.958 116.473 210.059 116.141 208.061 115.842C208.061 113.42 201.79 99.2525 200.277 97.6377C207.42 95.1603 203.589 79.5768 198.268 70.1758C198.681 70.3123 199.117 70.3659 199.551 70.3337C199.984 70.3014 200.408 70.1839 200.796 69.9877C202.563 69.114 202.353 66.537 202.353 66.537C202.353 66.537 201.326 67.5545 200.399 66.7472C199.471 65.9398 198.577 59.713 195.154 58.8946C191.732 58.0761 190.263 62.4116 190.263 62.4116C189.04 61.2631 187.51 60.4966 185.859 60.2059C184.208 59.9151 182.508 60.1128 180.967 60.7748C175.093 62.8651 173.658 73.5048 171.262 75.0532C170.688 75.4293 171.792 76.3251 172.918 75.8164C172.974 76.1625 173.107 76.4913 173.309 76.7778C173.51 77.0643 173.775 77.3009 174.081 77.4695C174.388 77.6381 174.729 77.7342 175.079 77.7506C175.428 77.7669 175.777 77.7031 176.098 77.5638C176.098 77.5638 176.937 78.9353 177.887 80.6717C177.645 81.064 177.459 81.4884 177.335 81.9325C177.152 82.598 177.092 83.2915 177.158 83.9786C171.859 83.4256 166.449 83.5915 165.83 86.1906C165.83 86.1906 147.646 87.9713 153.686 103.787L151.831 103.853C145.317 104.086 138.88 108.797 134.232 113.21C131.71 115.597 129.388 118.186 127.288 120.952L147.68 87.9271L140.36 82.01L142.645 75.6726L147.933 61.0291C154.846 59.122 161.076 55.2864 165.897 49.9691C168.182 47.6023 176.882 43.6649 175.48 41.3202C172.918 37.04 165.543 42.1718 165.543 42.1718C165.543 38.4889 168.193 37.3276 166.647 34.9718C165.102 32.616 162.231 34.5183 162.231 34.5183C162.231 34.5183 160.785 31.2003 157.881 33.8768C157.032 34.7009 156.397 35.7197 156.029 36.8451C155.662 37.9705 155.574 39.1687 155.772 40.3359C155.253 40.3359 154.768 40.3359 154.293 40.4244C153.553 38.4004 151.93 34.3635 150.528 33.9874C147.216 33.1358 145.449 36.5312 147.856 42.7138C147.015 43.2982 146.27 44.011 145.648 44.8262C143.587 44.7279 141.529 45.0852 139.621 45.8727C137.713 46.6602 136.001 47.8586 134.607 49.383C132.395 51.769 131.172 54.9084 131.185 58.1646L125.786 70.1426C125.786 70.1426 115.485 73.6597 113.034 86.9648C113.034 86.9648 88.1816 137.365 79.6913 159.496C75.1536 171.308 92.4322 199.423 114.778 176.96C125.521 166.165 134.232 157.295 139.841 151.522L140.006 151.345C140.47 150.87 140.923 150.416 141.331 149.974L146.708 144.444L146.796 144.355C146.796 144.355 143.617 185.631 143.109 194.601C142.722 201.668 149.545 202.055 149.545 202.055L149.082 210.66C149.082 210.66 145.516 218.999 156.457 221.2C152.858 239.228 149.159 274.841 167.895 301.816C167.895 301.816 161.271 304.581 160.873 309.359C160.376 315.144 167.641 313.872 167.641 313.872C167.641 313.872 138.328 348.766 125.687 391.944C126.331 393.78 127.102 395.569 127.994 397.297L121.613 409.021C122.517 411.767 123.799 414.372 125.422 416.763C124.031 420.457 122.993 423.344 122.926 423.543C122.431 424.22 121.981 424.929 121.579 425.666C120.685 423.233 109.435 427.314 100.602 432.391C95.2807 435.443 90.8092 438.85 89.9701 441.405C87.762 448.295 107.116 461.512 110.406 464.785C124.031 478.323 124.307 489.969 136.341 502.655C143.385 510.076 147.05 514.655 152.482 515.429C154.481 515.717 161.977 508.472 161.977 508.472C175.778 502.456 168.602 490.854 166.095 488.056C156.291 477.173 149.148 457.541 150.02 452.962C150.892 448.383 160.332 441.371 156.645 437.301C155.342 436.043 153.654 435.264 151.853 435.089C152.416 434.105 152.869 433.342 153.167 432.877C153.84 432.944 154.514 433.01 155.22 433.054L159.758 421.618C162.725 422.052 165.727 422.2 168.723 422.061C168.723 422.061 180.868 365.522 213.647 334.687C237.672 312.091 198.963 285.359 209.518 254.845C213.47 256.817 217.233 259.149 220.758 261.812C245.168 280.216 255.072 310.565 255.072 310.565" stroke="white" stroke-linecap="round" stroke-linejoin="round"/>
<path d="M208.502 99.6838C208.502 99.6838 205.599 90.316 200.067 89.0441C194.536 87.7722 181.464 85.7261 180.481 89.8957C180.481 89.8957 162.297 91.6763 168.337 107.503C168.337 107.503 186.421 117.712 203.324 113.785C203.302 113.785 211.837 106.375 208.502 99.6838Z" fill="#FF8ACB"/>
<path d="M184.147 104.141C178.13 99.7169 181.773 91.6099 192.217 92.6053C200.906 93.4238 206.57 97.6266 208.9 102.559C208.9 102.559 205.301 108.089 201.37 109.837C197.44 111.584 186.708 106.021 184.147 104.141Z" fill="#010100"/>
<path d="M291.053 178.884C286.449 178.232 282.298 177.668 278.39 177.126H278.268C269.756 175.953 262.48 174.914 254.376 173.321C256.01 179.857 252.367 182.412 252.367 182.412L255.26 191.26C257.854 200.971 231.633 219.607 184.081 225.082C157.914 228.101 163.744 214.453 163.744 214.453L164.207 205.848C164.207 205.848 157.395 205.461 157.771 198.394C158.257 189.424 161.282 148.137 161.282 148.137L161.193 148.226L155.817 153.756C155.408 154.198 154.955 154.652 154.492 155.127L154.337 155.304C148.729 161.044 139.984 169.915 129.286 180.742C106.929 203.205 89.6501 175.091 94.1878 163.279C102.678 141.159 127.531 90.7471 127.531 90.7471C129.993 77.4751 140.282 73.9248 140.282 73.9248L162.297 91.7203L141.894 124.701C143.995 121.935 146.317 119.346 148.839 116.959C153.487 112.535 159.935 107.835 166.449 107.603C186.598 106.873 208.127 107.448 222.215 110.368C228.21 111.617 238.478 115.521 249.927 120.454C257.655 123.772 265.859 127.555 273.698 131.304C290.192 139.179 304.843 146.899 308.862 149.719C322.188 159.043 313.665 182.114 291.053 178.884Z" fill="#FF8ACB"/>
<path d="M232.538 187.368C232.538 187.368 236.468 193.594 237.595 199.534" stroke="white" stroke-linecap="round" stroke-linejoin="round"/>
<path d="M249.298 181.97C249.298 181.97 253.062 191.117 252.389 195.596" stroke="white" stroke-linecap="round" stroke-linejoin="round"/>
<path d="M215.679 193.229C215.679 193.229 218.384 201.37 219.554 206.833" stroke="white" stroke-linecap="round" stroke-linejoin="round"/>
<path d="M196.435 197.189C196.691 202.217 197.274 207.223 198.179 212.175" stroke="white" stroke-linecap="round" stroke-linejoin="round"/>
<path d="M173.515 200.64C173.515 200.64 173.515 208.691 174 213.414" stroke="white" stroke-linecap="round" stroke-linejoin="round"/>
<path d="M273.709 131.26C273.212 131.492 256.883 139.632 249.982 145.35L238.058 142.884C238.058 142.884 236.855 138.814 235.585 133.317C235.585 133.317 242.408 125.033 249.938 120.41C257.644 123.728 265.881 127.511 273.709 131.26Z" fill="white"/>
<path d="M235.541 133.317C235.541 133.317 242.828 139.953 244.716 144.311L238.025 142.884C236.672 139.856 235.833 136.622 235.541 133.317Z" fill="#010100"/>
<path d="M127.751 89.8516C130.556 86.3235 134.806 81.0036 141.861 79.3999" stroke="white" stroke-linecap="round" stroke-linejoin="round"/>
<path d="M146.2 84.377C141.255 86.4828 136.995 89.9303 133.901 94.331" stroke="white" stroke-linecap="round" stroke-linejoin="round"/>
<path d="M143.219 98.4784C146.346 95.645 148.941 92.2738 150.881 88.5244" stroke="white" stroke-linecap="round" stroke-linejoin="round"/>
<path d="M158.268 91.4883C158.268 91.4883 155.662 98.5667 152.957 101.763" stroke="white" stroke-linecap="round" stroke-linejoin="round"/>
<path d="M226.907 143.514C231.117 142.804 235.436 143.146 239.483 144.51" stroke="white" stroke-linecap="round" stroke-linejoin="round"/>
<path d="M229.38 152.572C229.38 152.572 236.325 151.312 241.713 153.822" stroke="white" stroke-linecap="round" stroke-linejoin="round"/>
<path d="M228.354 160.215C228.354 160.215 235.927 160.215 240.686 162.56" stroke="white" stroke-linecap="round" stroke-linejoin="round"/>
<path d="M224.224 110.6C229.745 112.038 234.371 118.143 234.525 130.74" stroke="#010100" stroke-linecap="round" stroke-linejoin="round"/>
<path d="M168.933 140.196L161.282 148.093L161.204 148.182L155.839 153.712L154.503 155.083L154.337 155.249C155.078 149.755 154.168 144.165 151.724 139.191C149.279 134.217 145.412 130.085 140.614 127.323L141.861 124.746C143.966 121.983 146.288 119.394 148.806 117.004C171.108 116.771 168.933 140.196 168.933 140.196Z" fill="white"/>
<path d="M140.271 73.8696C140.271 73.8696 125.532 79.3996 127.519 97.892" stroke="#010100" stroke-linecap="round" stroke-linejoin="round"/>
<path d="M155.342 77.7406C161.425 82.6512 164.539 88.9001 162.297 91.6762C160.056 94.4522 153.31 92.7822 147.227 87.8162C141.144 82.8503 138.03 76.6567 140.271 73.8696C142.513 71.0824 149.258 72.8189 155.342 77.7406Z" fill="#010100"/>
<path d="M228.431 165.336C227.936 165.484 227.414 165.51 226.907 165.413L226.554 165.336C223.474 164.495 219.93 159.894 218.064 153.712C217.185 150.986 216.749 148.137 216.772 145.273C216.871 141.601 218.008 138.891 220.029 138.25C222.888 137.365 226.653 140.904 229.126 146.49C229.618 147.591 230.042 148.721 230.396 149.874C232.715 157.351 231.831 164.263 228.431 165.336Z" fill="#010100"/>
<path d="M189.038 108.001C188.817 112.734 196.667 115.146 203.932 115.057C213.283 114.946 216.441 111.374 216.441 111.374C216.441 111.374 217.225 103.555 214.84 101.31C210.633 97.339 194.746 97.6487 191.113 100.148C190.02 100.9 189.038 108.001 189.038 108.001Z" fill="#FF8ACB"/>
<path d="M191.941 111.806C191.219 111.41 190.616 110.828 190.195 110.12C189.774 109.412 189.549 108.604 189.546 107.78C189.689 106.851 190.871 101.464 190.871 101.464C191.323 99.54 193.951 99.0865 195.121 98.9648" stroke="#010100" stroke-linecap="round" stroke-linejoin="round"/>
<path d="M207.697 107.36C207.697 107.36 210.081 117.546 209.529 124.492C209.176 128.838 211.87 140.296 213.714 141.635L216.761 139.81C214.917 138.46 212.223 127.013 212.576 122.667C213.14 115.721 210.755 105.535 210.755 105.535L207.697 107.36Z" fill="white"/>
<path d="M195.927 114.095C198.539 114.781 201.232 115.105 203.932 115.057C213.283 114.947 216.441 111.374 216.441 111.374C216.441 111.374 217.225 103.555 214.84 101.31C213.239 99.7944 209.96 98.9096 206.294 98.5225" stroke="#010100" stroke-linecap="round" stroke-linejoin="round"/>
<path d="M194.547 102.604C195.298 100.956 214.023 99.5733 212.764 103.809C212.322 105.302 208.812 107.293 203.269 107.36C196.689 107.437 193.62 104.683 194.547 102.604Z" fill="#010100"/>
<path d="M141.861 124.746C141.861 124.746 126.316 156.908 124.914 160.702C123.512 164.495 125.455 165.834 127.221 165.391" stroke="#010100" stroke-linecap="round" stroke-linejoin="round"/>
<path d="M159.67 109.262C166.239 106.165 182.855 115.411 168.944 140.23" stroke="#010100" stroke-linecap="round" stroke-linejoin="round"/>
<path d="M161.282 148.149L168.933 140.252C168.933 140.252 167.619 152.02 160.443 159.729L161.282 148.149Z" fill="#010100"/>
<path d="M192.538 197.742C203.241 196.342 213.8 193.999 224.092 190.741C241.183 185.023 247.918 180.422 252.389 182.401" stroke="#010100" stroke-linecap="round" stroke-linejoin="round"/>
<path d="M164.219 205.816C164.219 205.816 168.27 200.286 177.313 200.286" stroke="#010100" stroke-linecap="round" stroke-linejoin="round"/>
<path d="M179.079 93.7114C179.079 93.7114 170.026 98.0691 189.656 107.348C189.656 107.348 183.032 107.05 168.315 107.503C162.176 107.68 159.659 109.262 159.659 109.262" stroke="#010100" stroke-linecap="round" stroke-linejoin="round"/>
<path d="M223.396 142.209C223.396 142.209 217.004 164.175 202.629 178.94" stroke="#010100" stroke-linecap="round" stroke-linejoin="round"/>
<path d="M215.348 111.651L210.931 106.32C209.946 106.907 208.866 107.318 207.741 107.536L211.804 114.703C211.946 114.979 212.147 115.22 212.392 115.409C212.638 115.598 212.922 115.73 213.225 115.797C213.527 115.863 213.841 115.862 214.143 115.793C214.445 115.725 214.728 115.591 214.972 115.4C215.308 115.115 215.568 114.75 215.728 114.339C215.888 113.927 215.943 113.482 215.889 113.044C215.835 112.54 215.648 112.059 215.348 111.651ZM214.244 114.139C214.071 114.255 213.875 114.332 213.669 114.363C213.464 114.394 213.254 114.38 213.055 114.321C212.856 114.262 212.672 114.159 212.517 114.021C212.361 113.882 212.239 113.711 212.157 113.52L214.674 111.662C214.929 112.055 215.026 112.529 214.946 112.991C214.866 113.452 214.615 113.866 214.244 114.15V114.139Z" fill="#FCCB04"/>
<path d="M226.907 165.414C226.907 165.414 244.727 171.452 254.387 173.31" stroke="#010100" stroke-linecap="round" stroke-linejoin="round"/>
<path d="M220.029 138.869C220.029 138.869 234.028 134.899 240.818 146.49" stroke="#010100" stroke-linecap="round" stroke-linejoin="round"/>
<path d="M238.058 142.884C255.993 146.803 274.121 149.779 292.367 151.799" stroke="#010100" stroke-linecap="round" stroke-linejoin="round"/>
<path d="M283.811 148.414C287.887 146.897 292.232 146.242 296.574 146.49" stroke="#010100" stroke-linecap="round" stroke-linejoin="round"/>
<path d="M212.808 235.202C212.555 235.433 212.224 235.559 211.881 235.556C211.727 235.553 211.574 235.527 211.428 235.479C211.189 235.396 210.975 235.251 210.81 235.058C210.639 234.878 210.518 234.657 210.457 234.417C210.406 234.169 210.422 233.912 210.503 233.673C210.585 233.434 210.729 233.221 210.92 233.056C218.704 226.321 219.698 214.011 219.532 206.844C220.459 206.557 221.42 206.236 222.392 205.893C222.712 213.403 221.895 227.349 212.808 235.202Z" fill="#786662"/>
<path d="M208.977 237.093C208.856 237.094 208.737 237.064 208.631 237.006C208.525 236.948 208.435 236.864 208.37 236.762C208.27 236.601 208.238 236.408 208.279 236.224C208.32 236.04 208.432 235.879 208.591 235.777C209.577 235.138 210.508 234.417 211.373 233.621C211.509 233.488 211.691 233.414 211.881 233.414C212.071 233.414 212.253 233.488 212.389 233.621C212.455 233.686 212.508 233.765 212.544 233.851C212.58 233.938 212.598 234.03 212.598 234.124C212.598 234.217 212.58 234.31 212.544 234.396C212.508 234.483 212.455 234.561 212.389 234.627C211.451 235.499 210.439 236.287 209.364 236.983C209.248 237.057 209.114 237.095 208.977 237.093Z" fill="#786662"/>
<path d="M226.41 234.218C226.275 234.378 226.106 234.506 225.915 234.592C225.724 234.678 225.516 234.72 225.306 234.715H225.086C224.827 234.679 224.586 234.567 224.39 234.395C224.199 234.241 224.061 234.033 223.992 233.797C223.902 233.564 223.875 233.31 223.916 233.063C223.957 232.816 224.063 232.584 224.224 232.393C231.379 223.987 229.833 210.405 228.486 203.714C229.38 203.393 230.286 203.039 231.213 202.686C232.715 209.631 234.614 224.584 226.41 234.218Z" fill="#786662"/>
<path d="M222.8 236.629C222.698 236.63 222.596 236.609 222.503 236.567C222.41 236.525 222.326 236.463 222.259 236.385C222.136 236.243 222.074 236.057 222.087 235.869C222.099 235.68 222.185 235.504 222.325 235.379C223.21 234.602 224.023 233.747 224.754 232.824C224.809 232.748 224.878 232.684 224.958 232.635C225.038 232.586 225.126 232.553 225.219 232.539C225.311 232.524 225.406 232.528 225.497 232.551C225.587 232.573 225.673 232.614 225.748 232.669C225.824 232.725 225.889 232.795 225.938 232.876C225.987 232.957 226.019 233.047 226.034 233.14C226.048 233.234 226.044 233.329 226.021 233.421C225.999 233.513 225.959 233.6 225.903 233.676C225.106 234.677 224.223 235.606 223.264 236.452C223.137 236.568 222.972 236.631 222.8 236.629Z" fill="#786662"/>
<path d="M215.05 70.5184C214.122 69.7221 213.228 63.4843 209.816 62.6658C206.405 61.8474 204.936 66.1829 204.936 66.1829C203.722 65.0202 202.196 64.2385 200.544 63.9339C198.892 63.6293 197.188 63.8152 195.64 64.4686C189.778 66.5589 188.331 77.1987 185.935 78.7471C185.361 79.1231 186.465 80.019 187.603 79.5102C187.654 79.857 187.785 80.1872 187.985 80.475C188.185 80.7628 188.448 81.0005 188.755 81.1696C189.062 81.3387 189.403 81.4346 189.753 81.4499C190.103 81.4652 190.451 81.3994 190.771 81.2577C190.771 81.2577 194.183 86.7877 195.066 89.7296L212.267 73.6484C212.748 73.9366 213.294 74.0979 213.854 74.1173C214.414 74.1366 214.97 74.0134 215.469 73.759C217.236 72.8853 217.026 70.3083 217.026 70.3083C217.026 70.3083 215.977 71.3258 215.05 70.5184Z" fill="#451D05"/>
<path d="M185.77 79.0791C185.77 79.0791 186.532 80.3178 188.066 79.0791" stroke="#010100" stroke-linecap="round" stroke-linejoin="round"/>
<path d="M196.369 90.4375L195.728 105.192C195.728 105.192 197.307 107.525 203.313 107.735C207.277 107.879 212.091 106.309 211.914 104.594L210.457 90.5149L196.369 90.4375Z" fill="#FFDECD"/>
<path d="M201.624 97.4387C201.624 97.4387 199.217 97.4387 200.741 101.188C202.265 104.937 207.884 105.325 211.682 102.88L210.998 96.4102L201.624 97.4387Z" fill="#010100"/>
<path d="M195 77.1658C195 77.1658 207.752 66.0283 211.561 71.7021C217.909 81.1916 223.363 101.111 213.272 101.741C203.181 102.372 196.722 99.1641 195 77.1658Z" fill="#FFDECD"/>
<path d="M205.72 70.3305C205.72 70.3305 203.148 67.9084 201.613 70.043C200.509 71.5139 202.717 73.8255 201.989 76.679C201.414 78.891 197.959 79.4882 197.959 79.4882C198.27 79.7026 198.531 79.9819 198.724 80.3069C198.917 80.632 199.038 80.9951 199.078 81.3712C199.118 81.7474 199.076 82.1278 198.955 82.4862C198.834 82.8447 198.638 83.1727 198.378 83.4477L193.785 83.8016C193.785 83.8016 192.008 69.2688 192.229 69.1913C192.449 69.1139 204.727 63.0973 205.72 70.3305Z" fill="#451D05"/>
<path d="M191.986 85.6263C193.266 81.0474 198.378 83.4143 198.378 83.4143L201.017 91.2669C201.017 91.2669 198.047 94.2531 194.624 91.9526C193.538 91.3492 192.687 90.3965 192.208 89.2485C191.729 88.1006 191.651 86.8244 191.986 85.6263Z" fill="#FFDECD"/>
<path d="M197.418 92.8486C198.203 93.4728 198.787 94.3155 199.096 95.2708C200.056 97.5934 202.96 102.504 211.616 101.796" stroke="#010100" stroke-linecap="round" stroke-linejoin="round"/>
<path d="M206.581 82.2977C206.824 83.1714 206.67 83.9677 206.25 84.0783C205.831 84.1889 205.301 83.5806 205.069 82.7069C204.837 81.8332 204.98 81.0479 205.4 80.9373C205.82 80.8267 206.35 81.435 206.581 82.2977Z" fill="#010100"/>
<path d="M193.642 88.1038C193.429 87.6479 193.355 87.1391 193.43 86.6413C193.504 86.1434 193.724 85.6788 194.061 85.3057C195.254 83.9342 197.373 86.2568 197.771 88.6237C198.168 90.9905 197.329 91.5103 196.115 89.7297C194.9 87.949 194.9 86.2126 196.181 86.8872" stroke="#010100" stroke-linecap="round" stroke-linejoin="round"/>
<path d="M202.518 80.2069C201.878 79.477 202.739 77.7848 204.428 77.3535C204.927 77.2736 205.438 77.3672 205.876 77.6188C206.314 77.8703 206.652 78.2646 206.835 78.736C206.957 79.3996 203.104 80.8595 202.518 80.2069Z" fill="#451D05"/>
<path d="M214.542 79.4328C214.774 80.2954 214.63 81.0918 214.21 81.2024C213.791 81.313 213.261 80.7047 213.029 79.842C212.797 78.9793 212.941 78.1719 213.36 78.0613C213.78 77.9507 214.31 78.559 214.542 79.4328Z" fill="#010100"/>
<path d="M210.457 77.3648C209.805 76.6459 210.678 74.9538 212.367 74.5224C212.865 74.4425 213.376 74.5361 213.814 74.7877C214.252 75.0393 214.591 75.4336 214.774 75.9049C214.873 76.5353 211.064 77.9842 210.457 77.3648Z" fill="#451D05"/>
<path d="M210.457 78.9019C210.457 78.9019 210.766 82.1203 212.356 83.0162C214.222 84.1222 217.876 86.0245 213.261 86.5111" stroke="#010100" stroke-linecap="round" stroke-linejoin="round"/>
<path d="M205.72 70.3306C205.72 70.3306 203.148 67.9085 201.613 70.0431C200.509 71.514 202.717 73.8256 201.988 76.6791C201.414 78.8911 197.959 79.4883 197.959 79.4883C198.27 79.7027 198.531 79.982 198.724 80.307C198.917 80.6321 199.038 80.9952 199.078 81.3713C199.118 81.7475 199.076 82.1279 198.955 82.4863C198.834 82.8448 198.637 83.1728 198.378 83.4478" stroke="#010100" stroke-linecap="round" stroke-linejoin="round"/>
<path d="M187.58 79.5106C187.636 79.8972 187.789 80.2634 188.025 80.5747C188.26 80.8861 188.571 81.1326 188.927 81.2912C189.373 81.3849 189.833 81.3891 190.28 81.3037C190.727 81.2183 191.153 81.0449 191.533 80.7935C191.533 80.7935 191.776 81.5124 192.913 81.3908C194.525 81.2138 195.53 78.8027 195.53 78.8027" stroke="#010100" stroke-linecap="round" stroke-linejoin="round"/>
<path d="M205.72 70.3307C205.72 70.3307 206.316 67.5104 207.928 67.444C209.783 67.3555 209.032 70.939 211.815 71.2044" stroke="#010100" stroke-linecap="round" stroke-linejoin="round"/>
<path d="M193.112 103.179C194.348 104.673 195.912 105.861 197.681 106.652C199.45 107.442 201.378 107.813 203.313 107.735C210.247 107.669 212.345 105.158 212.764 103.809" stroke="#010100" stroke-linecap="round" stroke-linejoin="round"/>
<path d="M206.04 89.918L216.308 90.836C216.308 90.836 216.739 97.3282 212.565 97.3614C207.697 97.3945 206.04 89.918 206.04 89.918Z" fill="white"/>
<path d="M283.237 455.44C283.237 455.44 233.079 444.38 245.621 418.333C245.621 418.333 251.738 396.213 253.007 393.05L262.944 396.601L283.06 403.767L278.003 417.349C278.003 417.349 272.847 439.845 283.237 455.44Z" fill="#FF8ACB"/>
<path d="M276.436 406.234C257.148 411.897 245.621 418.333 245.621 418.333C245.621 418.333 251.738 396.213 253.007 393.05L262.944 396.601L276.436 406.234Z" fill="#010100"/>
<path d="M247.487 423.731C247.487 423.731 247.211 416.785 253.88 418.665" stroke="#010100" stroke-linecap="round" stroke-linejoin="round"/>
<path d="M175.767 421.032L168.259 435.996C168.259 435.996 159.791 449.688 156.611 460.848C156.611 460.848 124.748 444.767 137.633 427.292C137.787 426.85 142.965 412.516 145.858 406.444L167.398 417.681L175.767 421.032Z" fill="#FF8ACB"/>
<path d="M167.398 417.681C157.294 420.209 147.372 423.416 137.699 427.281C137.853 426.839 143.031 412.505 145.924 406.433L167.398 417.681Z" fill="#010100"/>
<path d="M140.084 432.048C140.084 432.048 140.724 425.124 147.083 427.867" stroke="#010100" stroke-linecap="round" stroke-linejoin="round"/>
<path d="M169.253 45.2906C169.253 45.2906 166.968 38.2012 165.091 37.7035C161.624 36.7965 159.791 40.7007 162.883 47.6575L169.253 45.2906Z" fill="#4E2812"/>
<path d="M180.503 53.6965C175.685 59.0115 169.46 62.8469 162.551 64.7565L157.252 79.4L154.955 85.7705L152.924 91.4001C150.888 90.4311 148.975 89.2206 147.227 87.7945C144.925 85.9746 142.94 83.7845 141.353 81.3133C139.487 78.2829 138.969 75.4847 140.249 73.8478L145.67 61.8809C145.657 58.6247 146.881 55.4853 149.093 53.0993C150.487 51.5749 152.198 50.3765 154.106 49.589C156.015 48.8015 158.072 48.4443 160.133 48.5426C160.133 48.5426 163.137 44.1186 170.302 44.0522C170.103 42.885 170.191 41.6868 170.559 40.5614C170.926 39.436 171.562 38.4172 172.411 37.5931C175.314 34.9166 176.761 38.2346 176.761 38.2346C176.761 38.2346 179.554 36.3212 181.177 38.6881C182.8 41.0549 180.073 42.2052 180.073 45.8882C180.073 45.8882 187.503 40.7563 190.009 45.0365C191.489 47.3923 182.789 51.3297 180.503 53.6965Z" fill="#FFDECD"/>
<path d="M160.167 48.6089C161.436 47.1675 163.002 46.0194 164.758 45.2441C166.514 44.4688 168.417 44.0848 170.335 44.1185C176.485 43.9747 174.983 50.5997 165.698 54.4375" stroke="#010100" stroke-linecap="round" stroke-linejoin="round"/>
<path d="M174.023 46.054C174.023 46.054 173.769 41.2207 176.838 38.2456" stroke="#010100" stroke-linecap="round" stroke-linejoin="round"/>
<path d="M173.051 49.1284C173.051 49.1284 174.608 47.7238 180.106 45.8989" stroke="#010100" stroke-linecap="round" stroke-linejoin="round"/>
<path d="M155.397 65.4751C157.798 65.5615 160.201 65.3271 162.54 64.7783" stroke="#010100" stroke-linecap="round" stroke-linejoin="round"/>
<path d="M154.955 85.7926L152.924 91.4222C150.888 90.4532 148.975 89.2427 147.227 87.8166C144.924 85.9967 142.94 83.8066 141.353 81.3354C141.353 81.3354 150.517 87.3189 154.955 85.7926Z" fill="#DFA98D"/>
<path d="M104.654 445.154C102.446 452.044 121.8 465.261 125.102 468.535C138.715 482.072 138.991 493.719 151.025 506.404C158.08 513.826 161.734 518.404 167.166 519.179C169.165 519.466 176.672 512.222 176.672 512.222C190.462 506.205 183.297 494.603 180.791 491.805C170.975 480.922 163.832 461.291 164.704 456.712C165.576 452.133 175.016 445.121 171.329 441.051C167.211 436.472 153.608 439.801 153.608 439.801C153.608 439.801 139.521 443.318 136.308 429.515C135.689 426.872 124.251 430.997 115.264 436.151C109.987 439.193 105.493 442.599 104.654 445.154Z" fill="#FF5900"/>
<path d="M151.312 456.612C151.803 456.587 152.265 456.372 152.603 456.014C152.94 455.655 153.126 455.18 153.123 454.688C153.116 454.449 153.061 454.215 152.961 453.999C152.862 453.782 152.72 453.588 152.543 453.428C152.367 453.268 152.16 453.145 151.935 453.067C151.71 452.989 151.472 452.957 151.235 452.973C150.744 452.999 150.281 453.213 149.944 453.572C149.607 453.93 149.42 454.405 149.424 454.898C149.431 455.136 149.486 455.371 149.585 455.587C149.685 455.804 149.827 455.998 150.003 456.158C150.18 456.318 150.387 456.441 150.611 456.519C150.836 456.597 151.075 456.629 151.312 456.612Z" fill="#010100"/>
<path d="M152.041 465.637C152.523 465.566 152.958 465.306 153.25 464.914C153.542 464.522 153.667 464.031 153.597 463.547C153.516 463.068 153.249 462.64 152.853 462.358C152.458 462.076 151.967 461.963 151.489 462.043C151.007 462.116 150.574 462.377 150.283 462.768C149.991 463.159 149.865 463.65 149.932 464.133C150.013 464.612 150.28 465.04 150.676 465.322C151.071 465.604 151.562 465.717 152.041 465.637Z" fill="#010100"/>
<path d="M154.757 473.246C154.993 473.195 155.216 473.095 155.413 472.955C155.61 472.814 155.776 472.635 155.902 472.429C156.028 472.222 156.111 471.992 156.146 471.752C156.18 471.512 156.166 471.268 156.104 471.034C155.972 470.575 155.67 470.183 155.26 469.938C154.849 469.694 154.362 469.615 153.895 469.718C153.66 469.771 153.438 469.871 153.242 470.012C153.045 470.153 152.88 470.332 152.754 470.538C152.628 470.744 152.545 470.974 152.51 471.213C152.475 471.452 152.488 471.696 152.548 471.93C152.68 472.39 152.982 472.781 153.393 473.026C153.803 473.27 154.291 473.349 154.757 473.246Z" fill="#010100"/>
<path d="M159.769 480.856C159.966 480.73 160.134 480.563 160.262 480.367C160.389 480.17 160.473 479.948 160.507 479.717C160.542 479.485 160.526 479.249 160.462 479.023C160.397 478.798 160.285 478.589 160.133 478.411C159.816 478.025 159.37 477.766 158.878 477.68C158.386 477.595 157.879 477.69 157.451 477.947C157.251 478.071 157.081 478.236 156.951 478.432C156.821 478.628 156.736 478.85 156.7 479.082C156.665 479.315 156.68 479.552 156.744 479.778C156.809 480.004 156.922 480.213 157.075 480.391C157.392 480.782 157.84 481.045 158.335 481.13C158.83 481.216 159.34 481.118 159.769 480.856Z" fill="#010100"/>
<path d="M104.654 445.154C102.446 452.045 121.8 465.261 125.102 468.535C138.715 482.073 138.991 493.719 151.025 506.405C158.08 513.826 161.734 518.405 167.166 519.179C169.165 519.466 176.672 512.222 176.672 512.222C170.297 508.964 164.922 504.037 161.116 497.966C155.044 488.012 147.569 466.301 134.133 459.72C134.133 459.72 128.425 431.396 115.286 436.14C109.987 439.193 105.493 442.599 104.654 445.154Z" fill="white"/>
<path d="M174.144 514.544C167.656 511.203 162.169 506.195 158.246 500.034C152.184 490.08 144.71 468.369 131.273 461.788C131.273 461.788 116.722 452.564 111.93 438.186" stroke="#010100" stroke-linecap="round" stroke-linejoin="round"/>
<path d="M183.44 506.957C183.44 506.957 180.735 508.627 177.103 506.316C173.47 504.004 164.958 493.044 163.037 487.514C161.933 484.362 170.578 483.001 176.518 486.308" stroke="#010100" stroke-linecap="round" stroke-linejoin="round"/>
<path d="M153.631 439.801C153.631 439.801 158.709 441.438 153.918 449.865C149.943 456.855 155.242 473.202 166.184 484.649" stroke="#010100" stroke-linecap="round" stroke-linejoin="round"/>
<path d="M157.914 479.949C158.16 480.203 158.485 480.367 158.836 480.413C159.187 480.459 159.543 480.385 159.846 480.203C164.77 477.46 171.351 479.495 171.417 479.506C171.781 479.625 172.175 479.61 172.529 479.464C172.883 479.318 173.174 479.051 173.349 478.71C173.42 478.547 173.455 478.371 173.452 478.193C173.448 478.015 173.406 477.84 173.328 477.68C173.251 477.52 173.139 477.379 173.002 477.267C172.864 477.154 172.704 477.073 172.532 477.029C172.212 476.918 164.539 474.529 158.345 477.991C158.183 478.068 158.039 478.179 157.923 478.315C157.807 478.452 157.721 478.612 157.671 478.784C157.621 478.957 157.608 479.138 157.633 479.316C157.657 479.493 157.72 479.664 157.815 479.816C157.843 479.864 157.876 479.909 157.914 479.949Z" fill="white"/>
<path d="M153.542 472.207C153.739 472.408 153.987 472.551 154.259 472.623C154.531 472.695 154.817 472.693 155.088 472.616C159.212 471.427 163.584 471.408 167.718 472.561C168.08 472.69 168.477 472.687 168.837 472.551C169.197 472.416 169.497 472.156 169.684 471.82C169.764 471.661 169.808 471.486 169.813 471.308C169.818 471.13 169.784 470.953 169.714 470.789C169.643 470.626 169.538 470.48 169.405 470.361C169.272 470.243 169.114 470.156 168.944 470.105C164.175 468.731 159.117 468.731 154.348 470.105C154.166 470.137 153.991 470.205 153.836 470.306C153.681 470.407 153.547 470.538 153.444 470.693C153.341 470.847 153.27 471.02 153.235 471.202C153.201 471.385 153.204 471.572 153.244 471.753C153.308 471.925 153.41 472.08 153.542 472.207Z" fill="white"/>
<path d="M151.113 464.465C151.3 464.658 151.533 464.799 151.79 464.875C152.048 464.951 152.321 464.958 152.582 464.896C156.765 463.934 161.133 464.168 165.19 465.571C165.548 465.715 165.946 465.729 166.313 465.61C166.68 465.491 166.994 465.246 167.199 464.918C167.287 464.764 167.34 464.593 167.355 464.416C167.37 464.239 167.346 464.062 167.285 463.895C167.224 463.729 167.128 463.578 167.002 463.452C166.877 463.327 166.725 463.231 166.559 463.171C161.883 461.552 156.845 461.295 152.03 462.43C151.848 462.458 151.673 462.522 151.516 462.618C151.358 462.714 151.222 462.84 151.113 462.989C151.004 463.138 150.926 463.306 150.882 463.486C150.839 463.665 150.831 463.851 150.859 464.033C150.912 464.194 150.999 464.341 151.113 464.465Z" fill="white"/>
<path d="M150.594 455.617C150.748 455.785 150.939 455.915 151.152 455.996C151.365 456.077 151.594 456.106 151.82 456.081C156.043 455.647 160.302 456.442 164.086 458.371C164.42 458.563 164.811 458.631 165.19 458.565C165.569 458.498 165.913 458.3 166.162 458.006C166.278 457.872 166.363 457.715 166.411 457.544C166.459 457.373 166.469 457.194 166.439 457.02C166.41 456.845 166.342 456.679 166.24 456.534C166.139 456.389 166.006 456.268 165.852 456.181C161.517 453.895 156.607 452.934 151.732 453.416C151.358 453.424 151.002 453.576 150.737 453.839C150.472 454.102 150.318 454.458 150.307 454.831C150.297 455.121 150.4 455.403 150.594 455.617Z" fill="white"/>
<path d="M162.253 456.258C162.205 456.107 162.196 455.946 162.229 455.79C162.262 455.635 162.335 455.491 162.441 455.373C172.157 443.915 179.388 445.552 181.365 446.326C182.728 446.761 183.874 447.703 184.566 448.957C185.257 450.212 185.443 451.685 185.085 453.073C184.841 453.924 184.42 454.715 183.849 455.391C183.278 456.068 182.571 456.616 181.773 456.999C175.623 460.195 163.501 456.999 163.004 456.888C162.908 456.863 162.815 456.826 162.728 456.778C162.512 456.668 162.343 456.483 162.253 456.258ZM180.393 448.14C177.257 446.912 171.693 448.228 165.223 455.351C168.535 456.07 176.562 457.452 180.68 455.296C181.214 455.045 181.688 454.683 182.069 454.232C182.45 453.782 182.729 453.254 182.888 452.686C183.107 451.874 183.041 451.011 182.702 450.242C182.362 449.473 181.769 448.844 181.022 448.461C180.819 448.342 180.609 448.235 180.393 448.14Z" fill="white"/>
<path d="M160.774 455.993C155.938 449.943 155.143 438.374 159.261 433.873C160.116 432.963 161.234 432.344 162.458 432.104C163.682 431.864 164.95 432.014 166.084 432.534C167.064 432.839 167.954 433.38 168.678 434.108C169.402 434.837 169.936 435.732 170.236 436.715C172.278 443.65 162.993 455.429 162.595 455.926C162.483 456.061 162.343 456.171 162.185 456.247C162.027 456.324 161.855 456.365 161.679 456.369C161.441 456.375 161.206 456.309 161.006 456.181C160.918 456.132 160.839 456.069 160.774 455.993ZM165.19 434.381C164.512 434.024 163.734 433.901 162.979 434.033C162.224 434.166 161.534 434.545 161.017 435.111C158.08 438.297 158.091 447.698 161.801 453.582C164.086 450.429 169.529 442.168 168.127 437.312C167.85 436.341 167.225 435.506 166.371 434.968C166 434.731 165.603 434.534 165.19 434.381Z" fill="white"/>
<path d="M134.133 459.72C134.133 459.72 119.018 447.875 115.286 436.14" stroke="#010100" stroke-linecap="round" stroke-linejoin="round"/>
<path d="M162.982 453.172C163.307 453.035 163.666 453 164.011 453.074C164.356 453.147 164.67 453.325 164.911 453.583C165.152 453.842 165.308 454.168 165.358 454.517C165.407 454.867 165.349 455.224 165.19 455.539C164.362 457.209 162.088 456.734 162.088 456.734C162.088 456.734 164.737 454.721 161.845 453.582" stroke="#010100" stroke-linecap="round" stroke-linejoin="round"/>
<path d="M164.528 453.327C164.528 453.327 164.77 452.984 165.091 452.498" stroke="#010100" stroke-linecap="round" stroke-linejoin="round"/>
<path d="M205.113 130.452C205.113 130.452 203.214 120.2 205.797 114.504C207.553 110.622 193.653 112.403 194.602 125.807C194.602 125.84 199.515 130.331 205.113 130.452Z" fill="#FFDECD"/>
<path d="M228.431 165.336C227.936 165.484 227.414 165.511 226.907 165.414L226.554 165.336L223.396 164.661L208.182 161.343C208.182 161.343 186.774 164.805 188.972 140.871C189.192 138.482 181.453 138.482 180.029 136.835C177.114 133.45 181.972 132.344 181.972 132.344C181.972 132.344 178.008 131.094 178.373 128.418C178.759 125.553 183.032 126.206 183.396 126.206C179.145 124.724 180.625 119.57 183.716 120.41C186.808 121.251 201.216 121.727 203.865 125.631C206.515 129.535 207.1 140.119 211.329 143.692L229.126 146.412C229.618 147.514 230.042 148.644 230.396 149.797C232.715 157.351 231.831 164.263 228.431 165.336Z" fill="#FFDECD"/>
<path d="M194.558 122.047C194.558 122.047 203.987 122.047 205.599 129.723" stroke="#010100" stroke-linecap="round" stroke-linejoin="round"/>
<path d="M228.431 165.336C227.936 165.484 227.414 165.511 226.907 165.413L226.554 165.336L223.396 164.661C228.917 161.255 229.126 146.49 229.126 146.49C229.618 147.591 230.042 148.721 230.396 149.874C232.715 157.351 231.831 164.263 228.431 165.336Z" fill="#4E2812"/>
<path d="M210.622 142.884C211.389 143.922 212.093 145.004 212.731 146.125" stroke="#010100" stroke-linecap="round" stroke-linejoin="round"/>
<path d="M181.972 132.388C183.076 132.156 189.17 132.576 190.628 133.317" stroke="#010100" stroke-linecap="round" stroke-linejoin="round"/>
<path d="M183.429 126.294C183.429 126.294 188.574 125.785 191.533 127.101" stroke="#010100" stroke-linecap="round" stroke-linejoin="round"/>
<path d="M208.182 161.421C209.435 161.054 210.625 160.502 211.715 159.784" stroke="#010100" stroke-linecap="round" stroke-linejoin="round"/>
<path d="M271.18 442.345C271.18 442.345 271.081 441.946 270.915 441.382" stroke="#3F2621" stroke-linecap="round" stroke-linejoin="round"/>
<path d="M216.849 446.946C216.275 454.179 238.235 462.43 242.243 464.841C258.66 474.795 261.663 486.043 276.347 495.532C284.937 501.062 289.596 504.668 295.028 504.137C297.048 503.949 299.665 499.459 299.665 499.459C314.018 485.313 298.716 471.366 295.635 469.221C284.451 461.479 282.265 451.525 281.912 446.902C280.973 434.26 281.36 428.42 277.639 426.053C274.978 424.372 265.152 423.211 259.974 424.859C254.961 426.43 257.666 431.849 257.666 431.849C257.666 431.849 247.73 434.26 244.031 424.273C243.082 421.729 232.659 428.553 225.141 435.676C220.603 439.901 217.081 444.258 216.849 446.946Z" fill="#FF5900"/>
<path d="M216.849 446.946C216.275 454.179 238.235 462.43 242.243 464.841C258.66 474.795 261.078 484.915 273.852 496.915C276.609 499.645 279.944 501.717 283.61 502.977C287.277 504.237 291.179 504.652 295.028 504.192C297.048 504.004 299.665 499.514 299.665 499.514C299.665 499.514 284.749 494.946 277.164 486.43C267.228 475.259 258.274 459.621 248.955 454.201C248.955 454.201 236.744 428.022 225.097 435.731C220.603 439.901 217.081 444.258 216.849 446.946Z" fill="white"/>
<path d="M248.922 454.146C248.922 454.146 231.434 446.238 225.063 435.708" stroke="#010100" stroke-linecap="round" stroke-linejoin="round"/>
<path d="M257.589 431.849C259.62 434.747 260.881 438.115 261.255 441.637C262.083 447.908 271.324 468.933 277.606 475.204" stroke="#010100" stroke-linecap="round" stroke-linejoin="round"/>
<path d="M281.879 446.901C281.879 446.901 281.879 459.333 292.754 469.973" stroke="#010100" stroke-linecap="round" stroke-linejoin="round"/>
<path d="M295.602 469.221C295.602 469.221 281.128 472.793 275.122 476.542C275.122 476.542 284.142 488.941 289.905 491.518C295.668 494.095 301.288 495.466 304.865 491.518" stroke="#010100" stroke-linecap="round" stroke-linejoin="round"/>
<path d="M262.193 449.468C262.664 449.326 263.062 449.008 263.305 448.579C263.548 448.151 263.616 447.645 263.496 447.167C263.434 446.94 263.327 446.728 263.181 446.543C263.036 446.358 262.855 446.204 262.649 446.091C262.443 445.977 262.216 445.906 261.982 445.882C261.749 445.858 261.512 445.881 261.288 445.95C260.818 446.094 260.422 446.413 260.179 446.841C259.937 447.269 259.868 447.773 259.985 448.251C260.048 448.477 260.156 448.688 260.302 448.873C260.448 449.057 260.629 449.21 260.834 449.323C261.04 449.436 261.266 449.507 261.499 449.532C261.733 449.557 261.968 449.535 262.193 449.468Z" fill="#010100"/>
<path d="M264.732 458.293C265.182 458.109 265.541 457.755 265.733 457.309C265.925 456.862 265.934 456.358 265.759 455.904C265.567 455.457 265.206 455.104 264.756 454.921C264.305 454.739 263.801 454.743 263.352 454.931C262.902 455.118 262.543 455.473 262.351 455.922C262.159 456.37 262.15 456.876 262.326 457.331C262.419 457.553 262.556 457.755 262.729 457.924C262.901 458.093 263.105 458.226 263.328 458.316C263.552 458.405 263.792 458.449 264.033 458.445C264.274 458.441 264.512 458.39 264.732 458.293Z" fill="#010100"/>
<path d="M268.045 465.194C268.259 465.087 268.45 464.937 268.605 464.755C268.761 464.573 268.879 464.361 268.952 464.132C269.025 463.903 269.052 463.662 269.031 463.423C269.009 463.184 268.941 462.951 268.829 462.739C268.591 462.312 268.195 461.994 267.727 461.856C267.258 461.717 266.754 461.768 266.322 461.998C266.107 462.104 265.916 462.251 265.759 462.432C265.602 462.613 265.483 462.824 265.409 463.052C265.335 463.28 265.307 463.52 265.328 463.759C265.348 463.998 265.416 464.23 265.527 464.442C265.767 464.871 266.164 465.189 266.634 465.329C267.104 465.469 267.61 465.421 268.045 465.194Z" fill="#010100"/>
<path d="M272.582 472.439C272.743 472.27 272.867 472.069 272.943 471.848C273.02 471.628 273.049 471.393 273.029 471.161C273.008 470.928 272.937 470.703 272.822 470.5C272.707 470.297 272.55 470.121 272.362 469.983C271.962 469.679 271.466 469.53 270.965 469.562C270.464 469.595 269.992 469.807 269.634 470.16C269.472 470.328 269.347 470.529 269.269 470.75C269.191 470.971 269.161 471.206 269.182 471.439C269.203 471.672 269.274 471.898 269.391 472.101C269.507 472.304 269.665 472.48 269.855 472.616C270.255 472.92 270.751 473.069 271.252 473.037C271.753 473.004 272.225 472.792 272.582 472.439Z" fill="#010100"/>
<path d="M262.193 449.136C261.913 449.134 261.639 449.051 261.406 448.896C261.172 448.74 260.989 448.52 260.879 448.262C260.807 448.089 260.769 447.904 260.768 447.716C260.767 447.529 260.803 447.343 260.873 447.169C260.944 446.996 261.048 446.838 261.18 446.704C261.312 446.571 261.468 446.465 261.641 446.393C262.083 446.205 272.682 441.803 282.088 444.844C282.447 444.961 282.744 445.215 282.916 445.551C283.087 445.887 283.119 446.277 283.005 446.636C282.949 446.816 282.859 446.982 282.739 447.127C282.619 447.271 282.471 447.39 282.305 447.476C282.138 447.562 281.956 447.615 281.769 447.63C281.582 447.645 281.394 447.623 281.216 447.565C272.803 444.855 262.844 448.981 262.745 449.025C262.571 449.1 262.383 449.138 262.193 449.136Z" fill="white"/>
<path d="M264.18 457.663C263.886 457.662 263.598 457.57 263.357 457.4C263.116 457.23 262.933 456.99 262.833 456.712C262.71 456.352 262.734 455.959 262.899 455.617C263.065 455.275 263.359 455.012 263.717 454.887C264.147 454.732 274.426 451.182 283.667 452.675C284.04 452.732 284.376 452.936 284.599 453.24C284.823 453.545 284.917 453.927 284.86 454.301C284.802 454.675 284.599 455.011 284.295 455.235C283.991 455.459 283.61 455.552 283.237 455.495C274.702 454.168 264.755 457.608 264.655 457.641C264.499 457.675 264.339 457.682 264.18 457.663Z" fill="white"/>
<path d="M267.592 464.962C267.327 464.961 267.068 464.886 266.844 464.745C266.62 464.604 266.439 464.404 266.322 464.166C266.239 463.998 266.189 463.816 266.176 463.629C266.163 463.442 266.187 463.254 266.247 463.076C266.306 462.899 266.4 462.735 266.523 462.593C266.646 462.452 266.795 462.336 266.963 462.253C267.36 462.054 276.899 457.353 285.478 458.669C285.851 458.726 286.186 458.93 286.41 459.235C286.634 459.54 286.727 459.921 286.67 460.295C286.643 460.481 286.58 460.659 286.483 460.82C286.387 460.981 286.259 461.121 286.108 461.233C285.957 461.344 285.786 461.424 285.603 461.468C285.421 461.512 285.232 461.519 285.047 461.489C277.319 460.317 268.321 464.807 268.232 464.807C268.033 464.907 267.814 464.96 267.592 464.962Z" fill="white"/>
<path d="M271.357 472.472C271.163 472.473 270.971 472.434 270.793 472.357C270.614 472.281 270.453 472.17 270.319 472.03C270.061 471.755 269.921 471.389 269.932 471.012C269.942 470.635 270.101 470.277 270.374 470.017C270.65 469.752 277.208 463.68 289.828 464.133C290.207 464.147 290.564 464.311 290.823 464.589C291.081 464.867 291.22 465.236 291.208 465.615C291.204 465.803 291.162 465.989 291.085 466.161C291.007 466.333 290.896 466.487 290.758 466.615C290.62 466.743 290.458 466.842 290.281 466.906C290.104 466.969 289.916 466.997 289.728 466.987C278.357 466.588 272.395 472.041 272.339 472.096C272.071 472.341 271.72 472.475 271.357 472.472Z" fill="white"/>
<path d="M271.909 445.961C271.763 445.899 271.635 445.801 271.538 445.675C271.441 445.549 271.379 445.4 271.357 445.242C268.906 430.411 274.824 425.943 276.689 424.936C277.901 424.171 279.36 423.901 280.765 424.181C282.169 424.461 283.414 425.269 284.241 426.44C284.73 427.182 285.056 428.018 285.199 428.895C285.342 429.772 285.298 430.669 285.069 431.528C283.535 438.297 273.278 445.519 272.847 445.828C272.764 445.881 272.675 445.926 272.582 445.961C272.365 446.044 272.126 446.044 271.909 445.961ZM277.429 426.849C274.47 428.453 271.909 433.552 273.123 443.108C275.839 441.006 282.044 435.797 283.06 431.251C283.215 430.677 283.245 430.076 283.15 429.489C283.055 428.901 282.836 428.341 282.508 427.845C282.03 427.156 281.331 426.653 280.528 426.417C279.724 426.182 278.865 426.229 278.092 426.551C277.867 426.637 277.649 426.74 277.44 426.861L277.429 426.849Z" fill="white"/>
<path d="M270.772 446.901C263.043 446.691 253.703 439.823 252.952 433.784C252.807 432.542 253.057 431.286 253.665 430.194C254.274 429.102 255.21 428.23 256.342 427.701C257.207 427.151 258.193 426.821 259.214 426.738C260.236 426.655 261.262 426.822 262.204 427.226C268.829 430.145 271.787 444.855 271.909 445.475C271.939 445.649 271.931 445.828 271.888 445.999C271.844 446.171 271.765 446.331 271.655 446.47C271.506 446.654 271.306 446.788 271.081 446.857C270.981 446.888 270.876 446.903 270.772 446.901ZM257.125 429.604C256.405 429.883 255.797 430.393 255.397 431.056C254.997 431.719 254.829 432.495 254.917 433.264C255.458 437.578 262.646 443.639 269.502 444.601C268.575 440.818 265.814 431.329 261.188 429.261C260.273 428.839 259.233 428.776 258.274 429.084C257.872 429.211 257.486 429.386 257.125 429.604Z" fill="white"/>
<path d="M269.999 443.451C270.108 443.119 270.314 442.828 270.592 442.617C270.869 442.406 271.204 442.283 271.552 442.267C271.9 442.25 272.245 442.339 272.541 442.523C272.838 442.707 273.071 442.976 273.212 443.296C273.94 445.01 272.108 446.437 272.108 446.437C272.108 446.437 272.284 443.119 269.557 444.59" stroke="#010100" stroke-linecap="round" stroke-linejoin="round"/>
<path d="M221.034 439.834C221.034 439.834 230.628 452.299 242.353 457.198C254.078 462.098 260.934 472.24 271.467 486.773C277.606 495.234 294.034 502.765 298.318 501.394" stroke="#010100" stroke-linecap="round" stroke-linejoin="round"/>
<path d="M146.719 393.681L136.33 412.759C136.33 412.759 142.678 435.167 169.927 436.804L178.814 414.418L146.719 393.681Z" fill="#005CFF"/>
<path d="M249.209 382.411L242.474 403.071C242.474 403.071 252.797 423.952 279.891 420.59L284.55 396.966L249.209 382.411Z" fill="#005CFF"/>
<path d="M322.033 327.918C296.32 359.992 292.334 408.501 292.334 408.501C258.505 411.509 240.686 386.281 240.686 386.281C247.2 363.675 273.708 324.146 273.708 324.146C273.708 324.146 263.772 322.609 269.789 314.347C269.789 314.347 259.852 283.998 235.464 265.595C231.941 262.934 228.182 260.602 224.235 258.627C213.669 289.141 252.389 315.873 228.353 338.469C195.563 369.293 183.429 425.843 183.429 425.843C150.451 427.358 140.371 395.716 140.371 395.716C152.957 352.582 182.27 317.643 182.27 317.643C182.27 317.643 175.016 318.915 175.502 313.131C175.921 308.353 182.524 305.588 182.524 305.588C156.413 267.906 174.022 213.403 174.022 213.403C183.252 213.403 201.624 215.847 241.37 198.472C243.459 197.528 245.614 196.74 247.818 196.116C268.674 216.466 273.753 229.993 273.753 229.993C328.801 294.771 333.968 313.02 322.033 327.918Z" fill="#005CFF"/>
<path d="M216.827 207.707C216.827 207.707 229.38 223.191 231.688 247.711" stroke="white" stroke-linecap="round" stroke-linejoin="round"/>
<path d="M230.241 203.04C230.241 203.04 240.818 218.9 240.686 239.206" stroke="white" stroke-linecap="round" stroke-linejoin="round"/>
<path d="M231.688 247.688C231.688 247.688 266.653 266.137 277.484 306.804C277.484 306.804 270.308 320.076 283.082 324.5C283.082 324.5 253.67 362.359 251.616 397.109" stroke="white" stroke-linecap="round" stroke-linejoin="round"/>
<path d="M181.243 213.546C181.243 213.546 165.786 268.747 187.36 302.601C187.36 302.601 181.32 312.191 190.595 317.787C190.595 317.787 151.743 373.087 149.612 411.388" stroke="white" stroke-linecap="round" stroke-linejoin="round"/>
<path d="M145.869 406.422L138.35 417.471" stroke="#010100" stroke-linecap="round" stroke-linejoin="round"/>
<path d="M151.765 413.71L143.583 425.865" stroke="#010100" stroke-linecap="round" stroke-linejoin="round"/>
<path d="M158.875 419.517L151.765 431.572" stroke="#010100" stroke-linecap="round" stroke-linejoin="round"/>
<path d="M167.343 423.609L162.209 435.697" stroke="#010100" stroke-linecap="round" stroke-linejoin="round"/>
<path d="M142.711 401.047C142.711 401.047 151.709 421.928 174.464 425.379" stroke="#010100" stroke-linecap="round" stroke-linejoin="round"/>
<path d="M245.621 391.812C245.621 391.812 261.078 408.645 282.155 408.567" stroke="#010100" stroke-linecap="round" stroke-linejoin="round"/>
<path d="M258.561 401.788L253.151 414.684" stroke="#010100" stroke-linecap="round" stroke-linejoin="round"/>
<path d="M267.592 405.99L263.419 419.506" stroke="#010100" stroke-linecap="round" stroke-linejoin="round"/>
<path d="M277.606 408.324L275.122 420.933" stroke="#010100" stroke-linecap="round" stroke-linejoin="round"/>
<path d="M250.435 396.191L246.041 408.236" stroke="#010100" stroke-linecap="round" stroke-linejoin="round"/>
<path d="M276.546 324.523C276.546 324.523 270.341 324.711 267.934 319.999C265.527 315.288 277.484 306.827 277.484 306.827C283.314 300.799 287.852 279.553 278.445 277.827C271.379 276.533 272.041 293.455 275.044 303.807" stroke="#010100" stroke-linecap="round" stroke-linejoin="round"/>
<path d="M190.583 300.544C190.583 300.544 175.59 309.636 175.535 313.109C175.469 317.765 181.431 317.931 184.622 317.743" stroke="#010100" stroke-linecap="round" stroke-linejoin="round"/>
<path d="M225.428 258.063C229.61 249.124 236.301 241.599 244.683 236.408" stroke="#010100" stroke-linecap="round" stroke-linejoin="round"/>
<path d="M189.336 317.787C189.743 317.698 190.166 317.707 190.569 317.812C190.972 317.918 191.345 318.117 191.657 318.394C191.969 318.671 192.211 319.018 192.364 319.406C192.517 319.794 192.577 320.214 192.538 320.629C192.538 325.053 194.227 346.488 199.107 361.806" stroke="#010100" stroke-linecap="round" stroke-linejoin="round"/>
<path d="M235.464 265.584C231.941 262.923 228.182 260.591 224.235 258.616C227.403 252.684 231.537 247.323 236.468 242.756C236.468 242.756 232.163 257.3 235.464 265.584Z" fill="#010100"/>
<path d="M273.708 229.993C275.632 234.149 277.331 238.406 278.798 242.745" stroke="#010100" stroke-linecap="round" stroke-linejoin="round"/>
<path d="M167.211 220.636C167.211 220.636 163.777 216.344 168.668 214.144C175.502 211.08 191.853 220.138 241.315 198.483C254.067 192.953 253.957 197.122 253.957 197.122" stroke="#010100" stroke-linecap="round" stroke-linejoin="round"/>
<path d="M235.254 317.367C128.093 281.013 13.8118 238.575 17.7533 160.646C20.8889 98.9538 76.6993 54.6806 122.971 28.4021C142.23 17.5811 162.205 8.09158 182.756 0H138.924C130.964 3.91524 122.783 8.17334 114.569 12.8296C82.9593 30.7468 57.4223 50.6106 38.6643 71.89C14.662 99.0865 1.70024 128.661 0.121426 159.773C-2.0867 202.907 24.0355 239.648 79.9342 272.142C122.639 296.983 176.352 316.073 229.59 334.134L234.856 335.925C238.522 337.175 242.176 338.392 245.831 339.642L251.473 322.875L235.254 317.367Z" fill="black"/>
<path d="M304.302 411.83L296.574 427.756C290.376 424.733 284.595 422.153 279.229 420.014C279.201 419.988 279.167 419.969 279.129 419.959C278.346 419.649 277.562 419.329 276.789 419.041C252.731 409.773 236.8 409.364 225.527 417.393C225.108 417.681 224.688 418.002 224.28 418.322C185.074 449.379 212.472 514.435 232.831 551.552C232.831 551.552 226.519 551.045 222.5 550.5C217.983 549.887 211 548.5 211 548.5C189.007 505.864 166.879 441.228 213.327 404.453C214.211 403.745 215.105 403.082 216.021 402.462C216.584 402.075 217.125 401.699 217.732 401.356C218.693 400.77 219.665 400.25 220.636 399.686C221.221 399.388 221.818 399.078 222.403 398.801L222.668 398.669C223.242 398.414 223.772 398.16 224.379 397.928C224.446 397.891 224.516 397.861 224.589 397.839C224.876 397.729 225.152 397.596 225.428 397.496C225.704 397.397 226.123 397.22 226.477 397.098L228.276 396.479C228.378 396.46 228.478 396.43 228.574 396.39C228.839 396.302 229.104 396.224 229.369 396.158C230.032 395.948 230.705 395.782 231.379 395.616C232.383 395.362 233.399 395.152 234.426 394.964C234.761 394.888 235.1 394.828 235.442 394.787C236.159 394.654 236.877 394.554 237.584 394.466C238.29 394.377 238.798 394.333 239.416 394.278C240.035 394.223 240.863 394.156 241.624 394.134C259.897 393.161 279.957 400.427 298.815 409.242C300.681 410.072 302.502 410.945 304.302 411.83Z" fill="black"/>
</g>
<defs>
<clipPath id="clip0_2017_1192">
<rect width="423" height="553" fill="white"/>
</clipPath>
</defs>
</svg>
