<svg width="54" height="52" viewBox="0 0 54 52" fill="none" xmlns="http://www.w3.org/2000/svg">
<path d="M24.3232 52H23.814C22.4135 51.6917 21.3683 50.8284 20.3918 49.856C19.9004 49.3674 19.3847 48.9012 18.864 48.4363C18.1944 47.8299 17.4127 47.5091 16.4896 47.583C15.6252 47.6507 14.7569 47.692 13.8975 47.8061C12.1151 48.0416 10.4843 47.8061 9.13983 46.4879C7.89343 45.2699 6.61393 44.0858 5.36753 42.8678C4.43687 41.9581 3.95054 40.8191 3.67554 39.5686C3.37253 38.1902 3.18666 36.753 2.65703 35.4561C1.78621 33.3259 0.547448 31.3361 0 29.0656V28.1884C0.323376 26.9266 1.06816 25.8891 1.82058 24.8528C2.14014 24.413 2.42914 23.9507 2.71178 23.4883C2.91852 23.1825 3.04176 22.8294 3.06963 22.4631C3.09751 22.0968 3.02907 21.7297 2.87092 21.3969C2.53141 20.6577 2.16815 19.9288 1.78111 19.2104C0.253353 16.3585 0.343745 15.3172 2.44187 12.8124C3.26432 11.8312 4.16188 10.909 4.95759 9.90905C5.55978 9.15723 6.27783 8.61341 7.21104 8.37658C8.11242 8.14728 9.02143 7.94679 9.93299 7.7651C11.1412 7.52451 12.0795 6.93057 12.7339 5.88554C13.1731 5.17255 13.634 4.47085 14.1165 3.78669C15.0154 2.50984 16.2401 1.753 17.8417 1.71666C18.6673 1.71151 19.4926 1.74958 20.3141 1.83069C21.4829 1.92718 22.6389 1.96728 23.7631 1.53874C25.138 1.01497 26.5207 0.511241 27.9007 0H29.0466C30.4839 0.293212 31.6221 1.1127 32.717 2.01489C33.1053 2.33441 33.5267 2.61887 33.9431 2.90456C34.251 3.1285 34.6066 3.2808 34.983 3.35004C35.3594 3.41927 35.7469 3.40362 36.1163 3.30427C37.2638 3.01607 38.4126 2.73372 39.5627 2.45721C40.9007 2.13769 42.0682 2.37326 43.1745 3.26793C46.2823 5.78278 48.9126 8.63596 50.3334 12.4151C50.4759 12.7856 50.6404 13.1475 50.8261 13.499C51.3035 14.4188 51.3264 15.3786 51.1202 16.3647C51.0005 16.9349 50.8923 17.5188 50.6746 18.0551C49.8356 20.1138 50.2646 21.8468 51.8509 23.4081C52.8223 24.3629 53.6333 25.4606 54 26.8113V27.3126C53.7377 28.627 52.8542 29.4979 51.8357 30.2785C51.1507 30.8035 50.4722 31.3373 49.7898 31.8661C48.8986 32.5565 48.593 33.4437 48.8527 34.5301C49.0755 35.4623 49.2729 36.3996 49.4982 37.3319C49.8712 38.8781 49.5962 40.1963 48.607 41.5446C45.9538 45.1396 42.5813 47.7635 38.4601 49.5227C37.5689 49.8987 36.7083 49.9839 35.8158 49.6719C35.22 49.4638 34.6458 49.1907 34.0691 48.9313C33.2606 48.5692 32.4637 48.1795 31.6501 47.8236C30.7857 47.4477 29.9861 47.588 29.2923 48.1995C28.5984 48.811 27.9529 49.4137 27.31 50.049C26.4328 50.9036 25.5327 51.6717 24.3232 52ZM49.8267 15.43C49.7465 15.0265 49.7235 14.7308 49.6268 14.4614C48.1703 10.4266 45.7641 7.06842 42.3088 4.43703C41.5271 3.84058 40.7607 3.6401 39.8351 3.87692C38.9095 4.11375 37.9432 4.33553 37.0062 4.59491C35.3511 5.05352 33.8705 4.79039 32.5311 3.71778C31.8245 3.15015 31.0976 2.60633 30.3579 2.0813C29.4514 1.43849 28.4329 1.32948 27.3889 1.6653C26.6673 1.90654 25.9593 2.18552 25.2679 2.50107C23.8675 3.11882 22.4314 3.4559 20.8858 3.3118C19.9577 3.22534 19.0245 3.18648 18.0938 3.15891C16.9683 3.11882 16.0746 3.57995 15.4202 4.46961C15.0135 5.00377 14.6398 5.56154 14.3011 6.13991C13.2966 7.92424 11.8058 8.99684 9.7433 9.28253C9.47084 9.32012 9.20476 9.39281 8.93231 9.43416C7.60698 9.63214 6.43824 10.0745 5.71001 11.2924C5.53049 11.5931 5.24277 11.83 5.01106 12.1019C4.30319 12.9339 3.59279 13.7622 2.89638 14.608C2.08285 15.5916 2.00519 16.6329 2.64175 17.7406C3.02369 18.3921 3.3267 19.0838 3.71118 19.7317C4.857 21.6639 4.73861 23.4908 3.3407 25.2613C2.82127 25.9192 2.37694 26.6397 1.91861 27.3364C1.49211 27.9892 1.3788 28.7147 1.65508 29.4377C2.15032 30.7208 2.6303 32.0202 3.25668 33.242C4.06965 34.8003 4.62696 36.4755 4.90793 38.2053C5.08617 39.333 5.21348 40.5447 6.05375 41.403C7.58152 42.9568 9.19839 44.4354 10.8089 45.914C11.0904 46.1659 11.4483 46.3196 11.8274 46.3513C12.7517 46.3826 13.7002 46.4114 14.6054 46.2535C17.0524 45.8275 19.1428 46.3187 20.8043 48.2334C21.1885 48.6516 21.5998 49.045 22.0354 49.4112C23.6561 50.8522 24.3474 50.8397 25.9185 49.3598C26.7155 48.608 27.4895 47.8336 28.3145 47.1156C29.4527 46.1245 30.7615 45.9403 32.1696 46.4891C32.6788 46.6884 33.1804 46.9202 33.6795 47.1507C34.4268 47.4953 35.1665 47.8599 35.9151 48.2033C36.609 48.5203 37.2583 48.4539 37.9827 48.1507C42.016 46.4478 45.2396 43.8013 47.7094 40.2452C48.1372 39.63 48.3104 39.0185 48.1576 38.3055C47.903 37.1239 47.6254 35.946 47.3937 34.7606C47.0945 33.257 47.4319 31.9426 48.6668 30.9201C49.0488 30.5968 49.4498 30.281 49.8445 29.9653C50.4378 29.4916 51.0616 29.053 51.6269 28.5431C52.6632 27.597 52.7409 26.9442 51.9248 25.8089C51.3863 25.0571 50.7102 24.4068 50.1946 23.6462C49.679 22.8856 49.1939 22.0962 48.8807 21.2516C48.4797 20.164 48.9087 19.0713 49.1799 17.9937C49.3951 17.1115 49.623 16.2269 49.8267 15.43Z" fill="black"/>
<path d="M49.8267 15.43C49.623 16.2269 49.3951 17.1115 49.1697 17.9974C48.8986 19.0688 48.4695 20.1614 48.8706 21.2554C49.1837 22.0999 49.6739 22.8968 50.1844 23.6499C50.6949 24.403 51.3761 25.0646 51.9146 25.8127C52.7307 26.9479 52.653 27.6008 51.6167 28.5468C51.0578 29.0568 50.434 29.4954 49.8343 29.969C49.4396 30.2848 49.045 30.5955 48.6567 30.9238C47.4281 31.9463 47.0907 33.262 47.3835 34.7644C47.6191 35.9498 47.8928 37.1276 48.1474 38.3093C48.3002 39.0222 48.127 39.6337 47.6993 40.249C45.223 43.8051 42.0058 46.4515 37.9725 48.1544C37.2481 48.4602 36.5988 48.5303 35.9049 48.207C35.1563 47.8637 34.4167 47.4991 33.6693 47.1545C33.1703 46.9239 32.6712 46.6921 32.1594 46.4929C30.7513 45.9453 29.4425 46.1295 28.3043 47.1194C27.4793 47.8374 26.7053 48.6143 25.9083 49.3636C24.3372 50.8434 23.6459 50.856 22.0252 49.415C21.5896 49.0488 21.1784 48.6554 20.7941 48.2371C19.139 46.3225 17.0422 45.8313 14.5952 46.2573C13.69 46.4152 12.7415 46.3826 11.8172 46.355C11.4381 46.3234 11.0802 46.1697 10.7987 45.9177C9.18822 44.4404 7.57642 42.9618 6.04357 41.4068C5.19693 40.5484 5.06962 39.3368 4.89775 38.209C4.62157 36.4773 4.06854 34.7996 3.25922 33.2382C2.63284 32.0165 2.15287 30.7171 1.65762 29.434C1.38135 28.7147 1.49466 27.9854 1.92116 27.3326C2.37949 26.6309 2.82382 25.9154 3.34325 25.2576C4.7437 23.4858 4.85828 21.6601 3.71373 19.7279C3.33179 19.0801 3.02242 18.3884 2.6443 17.7368C2.00773 16.6279 2.07903 15.5866 2.89892 14.6042C3.59533 13.7622 4.29938 12.9339 5.01361 12.0981C5.24532 11.8262 5.53304 11.5894 5.71256 11.2887C6.44079 10.0707 7.60953 9.62838 8.93486 9.4304C9.20731 9.38904 9.4734 9.31637 9.74585 9.27878C11.8083 8.99309 13.2992 7.92047 14.3037 6.13614C14.6423 5.55778 15.016 5 15.4228 4.46584C16.0759 3.57618 16.9696 3.11507 18.0963 3.15517C19.027 3.18774 19.9602 3.22157 20.8883 3.30803C22.4339 3.45213 23.8725 3.11507 25.2705 2.49732C25.9618 2.18177 26.6699 1.90277 27.3915 1.66153C28.4355 1.32948 29.454 1.43473 30.3604 2.07754C31.1001 2.60256 31.8271 3.14639 32.5337 3.71402C33.873 4.78913 35.3588 5.05227 37.0088 4.59115C37.9458 4.33177 38.8955 4.11374 39.8377 3.87316C40.7798 3.63257 41.5297 3.83681 42.3114 4.43326C45.7666 7.06465 48.1678 10.4253 49.6293 14.4576C49.7223 14.7308 49.7465 15.0265 49.8267 15.43ZM22.2111 23.2928C22.0914 20.3143 21.6547 17.9661 20.2708 15.9061C19.8104 15.2373 19.2276 14.6586 18.5521 14.1995C17.6813 13.603 16.7137 13.7609 16.0491 14.5754C15.5924 15.1441 15.2439 15.7893 15.0204 16.48C14.4272 18.332 14.5316 20.2254 14.9326 22.1037C15.3145 23.8742 15.9116 25.5596 17.1517 26.9467C18.7571 28.741 20.6566 28.4503 21.5134 26.2136C21.931 25.1235 22.0672 23.9256 22.2111 23.2928ZM34.9603 20.6614C34.8202 18.4059 34.3772 16.2657 33.2479 14.326C32.8077 13.5667 32.2369 12.8884 31.561 12.3212C30.4788 11.4277 29.2184 11.6495 28.4393 12.8161C28.0512 13.3883 27.772 14.0252 27.6156 14.6957C26.9217 17.9035 27.408 20.9609 29.0618 23.8103C29.4634 24.4722 29.9857 25.0554 30.6023 25.5307C31.6781 26.379 32.894 26.1573 33.691 25.0471C33.9612 24.6988 34.1652 24.3053 34.2932 23.8855C34.5592 22.8279 34.7426 21.744 34.9603 20.6677V20.6614ZM36.842 34.2507C36.679 33.5352 36.5046 32.1117 36.017 30.801C35.4313 29.2285 33.9609 28.642 32.3249 29.1345C31.6411 29.3547 30.9778 29.6327 30.3426 29.9653C27.8027 31.2346 25.1584 31.7057 22.3359 31.1368C20.4898 30.7609 19.2332 31.9476 19.3962 33.7971C19.5057 35.0413 20.2174 35.8721 21.2155 36.5124C23.4163 37.9275 25.6265 39.3297 27.846 40.7189C28.2414 40.9612 28.6566 41.1707 29.0873 41.3454C31.3942 42.3015 33.6706 41.7213 35.2404 39.7991C36.4015 38.3895 36.7579 36.7192 36.842 34.2569V34.2507Z" fill="#8FF813"/>
<path d="M22.2111 23.2928C22.0672 23.9193 21.931 25.1235 21.5134 26.2161C20.6566 28.4566 18.7571 28.7435 17.1517 26.9492C15.9116 25.5621 15.3094 23.8767 14.9326 22.1062C14.5316 20.2266 14.4233 18.3345 15.0204 16.4825C15.2439 15.7918 15.5924 15.1466 16.0491 14.5779C16.7137 13.7609 17.6813 13.603 18.5521 14.202C19.2276 14.6611 19.8104 15.2398 20.2708 15.9086C21.6547 17.9661 22.0952 20.3143 22.2111 23.2928Z" fill="black"/>
<path d="M34.9603 20.6677C34.7426 21.744 34.5592 22.8279 34.2932 23.893C34.1652 24.3128 33.9612 24.7063 33.691 25.0546C32.8965 26.1623 31.6781 26.3866 30.6023 25.5382C29.9857 25.0629 29.4634 24.4797 29.0618 23.8178C27.4068 20.9734 26.9217 17.911 27.6156 14.7032C27.772 14.0327 28.0512 13.3958 28.4393 12.8236C29.2184 11.657 30.4763 11.4353 31.561 12.3287C32.2369 12.8959 32.8077 13.5742 33.2479 14.3335C34.3772 16.272 34.8266 18.4084 34.9603 20.6677Z" fill="black"/>
<path d="M36.842 34.2569C36.7579 36.7192 36.4015 38.392 35.2391 39.8092C33.6655 41.7326 31.393 42.3152 29.086 41.3554C28.6554 41.1808 28.2402 40.9712 27.8447 40.7289C25.6244 39.3347 23.4142 37.9313 21.2142 36.5187C20.2161 35.8784 19.5044 35.0476 19.3949 33.8033C19.232 31.9538 20.4886 30.7697 22.3346 31.1431C25.1571 31.712 27.8014 31.2408 30.3414 29.9715C30.9766 29.6389 31.6398 29.361 32.3236 29.1407C33.9609 28.6483 35.4313 29.2347 36.0157 30.8073C36.5046 32.118 36.679 33.5414 36.842 34.2569ZM35.4555 35.0087C35.2353 33.8021 35.1283 32.737 34.8355 31.7245C34.4854 30.5141 33.6693 30.1645 32.4688 30.5968C31.9595 30.7797 31.4757 31.0629 30.969 31.2722C30.0931 31.6356 29.2286 32.044 28.3222 32.3122C26.2645 32.9285 24.0806 33.0147 21.9794 32.5628C21.2244 32.4037 20.9278 32.6881 20.8692 33.4399C20.8081 34.2231 21.1939 34.7769 21.8088 35.1691C24.2418 36.7242 26.6467 38.3281 29.1459 39.7716C31.3522 41.0459 33.6935 40.2339 34.7057 37.9058C35.1131 36.961 35.2314 35.9034 35.4555 35.0075V35.0087Z" fill="black"/>
<path d="M35.4555 35.0075C35.2314 35.9034 35.1131 36.961 34.7057 37.8895C33.6871 40.2176 31.3522 41.0296 29.1459 39.7553C26.6467 38.3118 24.2418 36.7079 21.8088 35.1529C21.1939 34.7607 20.8081 34.2068 20.8692 33.4236C20.9278 32.6718 21.2244 32.3849 21.9794 32.5465C24.0806 32.9985 26.2645 32.9122 28.3221 32.2959C29.2286 32.0278 30.0931 31.6193 30.969 31.2559C31.4783 31.0466 31.9531 30.7634 32.4687 30.5805C33.6693 30.1532 34.4854 30.5028 34.8355 31.7082C35.1283 32.7357 35.2353 33.8021 35.4555 35.0075Z" fill="#EAEAEA"/>
</svg>
